<svg width="140" height="140" viewBox="0 0 140 140" fill="none" xmlns="http://www.w3.org/2000/svg">
<path d="M23.5385 67.5109C26.2323 54.0423 27.5791 47.308 32.4175 43.3415C37.2559 39.375 44.1235 39.375 57.8589 39.375H82.1393C95.8746 39.375 102.742 39.375 107.581 43.3415C112.419 47.308 113.766 54.0423 116.46 67.5109L119.96 85.0109C123.833 104.38 125.77 114.065 120.519 120.47C115.268 126.875 105.392 126.875 85.6393 126.875H54.3589C34.6062 126.875 24.7298 126.875 19.4788 120.47C14.2278 114.065 16.1647 104.38 20.0385 85.0109L23.5385 67.5109Z" fill="#0084D1"/>
<path opacity="0.5" d="M81.7313 39.2C95.4664 39.2 102.334 39.2003 107.173 43.1668C109.217 44.843 110.636 47.0143 111.799 49.9783L25.4139 124.585C22.7552 123.64 20.6918 122.273 19.0702 120.295C13.8194 113.89 15.7569 104.205 19.6307 84.8358L23.1307 67.3358C25.8244 53.8673 27.1713 47.1333 32.0096 43.1668C36.848 39.2004 43.7158 39.2 57.451 39.2H81.7313Z" fill="#74D4FF"/>
<circle cx="87.4994" cy="56.875" r="5.83333" fill="white"/>
<circle cx="52.4993" cy="56.875" r="5.83333" fill="white"/>
<path d="M56.875 33.5417C56.875 26.2929 62.7513 20.4167 70 20.4167C77.2487 20.4167 83.125 26.2929 83.125 33.5417V39.375H85.6401C87.8383 39.375 89.9142 39.375 91.875 39.3838L91.875 33.5417C91.875 21.4605 82.0812 11.6667 70 11.6667C57.9188 11.6667 48.125 21.4605 48.125 33.5417L48.125 39.3838C50.0857 39.375 52.1616 39.375 54.3597 39.375H56.875V33.5417Z" fill="#D4D4D8"/>
</svg>
