<svg width="120" height="120" viewBox="0 0 120 120" fill="none" xmlns="http://www.w3.org/2000/svg">
<path d="M33.6246 14.6701C33.5207 9.2138 35.9363 4.6835 41.7074 4.0721C48.2019 3.31638 51.6674 8.61402 51.6763 14.6701L56.1245 14.6663C57.7116 14.6645 59.4384 14.5468 60.9839 14.9435C67.2158 16.5425 66.1122 23.7112 66.1119 28.5804L66.1142 56.68C66.1165 59.5726 66.3445 62.8499 65.8394 65.6775C64.1818 74.9563 56.8877 80.6575 47.9735 81.5258L47.9828 85.4626C47.9978 89.3092 47.9473 89.3362 43.8819 89.304C43.8135 95.4323 43.502 100.747 47.4574 105.896C56.5892 117.785 75.2246 114.017 78.9687 99.5965C79.6523 96.9636 79.5784 94.273 79.5778 91.5762L79.57 48.8394C79.5674 47.1869 79.4724 45.465 79.656 43.8236C81.0286 31.5397 98.2496 31.5491 100.603 42.6137C100.936 44.179 100.87 45.8315 100.865 47.4249L100.869 51.6691C100.876 53.4206 101.487 56.2037 100.009 57.252C97.4292 58.2547 97.7202 55.0916 97.7303 53.5526L97.7438 48.4595C97.7467 46.5997 97.9358 44.4983 97.4075 42.7026C95.4016 35.8817 85.4551 35.4139 82.9561 42.6792C82.2953 44.6002 82.5095 46.8546 82.5112 48.8661L82.5162 91.571C82.5176 94.2185 82.6643 97.0277 82.0794 99.6235C77.8767 118.277 52.8518 122.092 43.6031 105.353C40.5983 99.9148 40.941 95.2063 40.9482 89.304C37.5644 88.979 37.3583 89.5844 37.3672 85.4318L37.3779 81.5258C28.4531 80.8741 21.316 75.3289 19.3963 66.3294C18.8865 63.9397 19.0135 61.4397 19.0153 59.0094L19.0011 22.2513C18.9792 15.6405 23.2463 14.6528 28.772 14.6654L33.6246 14.6701ZM42.4801 7.00109C38.0704 7.41539 36.4608 10.5186 36.5722 14.6701H42.9565H48.7812C48.7994 10.4825 47.057 7.00976 42.4801 7.00109ZM25.1619 17.724C20.8304 18.599 22.0024 24.3526 22.0016 27.708L21.9987 55.9601C21.9981 58.8407 21.7446 63.0984 22.3399 65.8025C23.7206 72.0757 28.7923 76.8703 34.9392 78.1572C37.4021 78.6727 40.1211 78.4508 42.6317 78.4528C47.7051 78.4575 52.5929 78.7169 56.7437 75.1676C63.5303 69.7662 63.1117 64.5978 63.11 57L63.1111 24.6954C63.129 17.5132 61.6796 17.7181 55.7648 17.7199L25.1619 17.724ZM44.1865 81.5258H40.2542V86.3563H41.0616H45.1671V81.5258H44.1865Z" fill="#0084D1"/>
<path d="M33.1982 35.8294C33.2596 34.7053 33.2039 33.5503 33.1982 32.423H35.1588C35.1431 33.5578 35.1581 34.6945 35.1588 35.8294H33.1982Z" fill="#0084D1"/>
<path d="M50.2743 39.8571C49.0488 39.8639 42.2479 40.0055 41.6451 39.6949C40.4074 39.0567 40.9239 37.5476 42.1736 37.2422C43.4678 37.2424 50.1201 37.0758 50.7937 37.4648C51.9006 38.1042 51.3728 39.5998 50.2743 39.8571Z" fill="#0084D1"/>
<path d="M33.1982 53.6435V38.9786H35.1588V53.6435H33.1982Z" fill="#0084D1"/>
<path d="M49.5852 47.921L44.7074 47.9236C43.8496 47.9273 42.9067 48.0225 42.0604 47.9004C40.8372 47.7239 40.0072 45.4416 42.9943 45.3548L47.8454 45.3485C48.6566 45.3469 49.5479 45.2658 50.3462 45.387C51.838 45.6134 52.0035 47.9705 49.5852 47.921Z" fill="#0084D1"/>
<path d="M50.2744 55.9415C49.0489 55.9504 42.3563 56.0892 41.709 55.8065C40.441 55.2527 40.7932 53.7077 42.1737 53.3193C43.3976 53.3097 50.0743 53.1593 50.7361 53.5155C51.8768 54.1293 51.4046 55.6788 50.2744 55.9415Z" fill="#0084D1"/>
<path d="M39.7103 70.5556C32.9969 68.0494 33.1113 62.9454 33.1985 56.7223H35.159L35.1513 59.8317C35.1452 64.3538 35.8666 66.833 40.5157 68.7652L39.9293 70.0636L39.7103 70.5556Z" fill="#0084D1"/>
</svg>
