<svg width="120" height="120" viewBox="0 0 120 120" fill="none" xmlns="http://www.w3.org/2000/svg">
<mask id="path-1-outside-1_2015_36522" maskUnits="userSpaceOnUse" x="21.6182" y="3" width="77" height="114" fill="black">
<rect fill="white" x="21.6182" y="3" width="77" height="114"/>
<path d="M96.3573 104.884L94.1579 103.673C93.6977 103.419 93.1352 103.363 92.613 103.529C92.4517 103.58 92.3231 103.676 92.1844 103.76C89.4827 102.457 86.9804 101.23 84.6538 100.089L82.5589 99.0639C80.628 98.1182 78.8118 97.2281 77.0928 96.3792C77.0863 96.2306 77.1042 96.0817 77.0639 95.9351C76.9166 95.406 76.5596 94.965 76.1226 94.7459L73.9229 93.5137C72.9744 93.0333 71.83 93.3721 71.2625 94.2875C64.091 90.1938 57.6473 85.2005 52.116 79.4149C51.999 79.2913 51.8524 79.1997 51.6901 79.1488C58.5134 71.8872 64.3805 64.3842 68.6858 57.4106C86.1419 29.2293 75.1743 15.2544 69.6492 10.5537C59.2108 1.67527 42.2164 1.8378 31.7698 10.9188C25.3322 16.5143 12.8721 33.4881 36.1276 70.1425C37.7857 72.7899 39.7041 75.4762 41.9931 78.3566C42.1248 78.5236 42.3064 78.6443 42.5113 78.701C37.6463 83.4859 30.419 89.4551 26.6939 92.2762C26.5823 92.3603 26.4893 92.4667 26.421 92.5887C26.3526 92.7106 26.3104 92.8454 26.2969 92.9846C26.2841 93.1238 26.3001 93.2642 26.344 93.397C26.3878 93.5298 26.4586 93.6521 26.5518 93.7564C28.571 96.0056 32.8171 96.4493 37.7483 92.3643C40.9155 89.7333 44.034 86.9067 47.0399 83.9434C47.0869 84.0688 47.1598 84.1861 47.2576 84.2881C53.3739 90.6306 60.3619 96.0345 68.0285 100.377C67.9018 100.75 67.8532 101.145 67.9623 101.536C68.1041 102.047 68.4461 102.483 68.8996 102.734L71.1005 103.946C71.3873 104.103 71.7092 104.185 72.0361 104.184C72.2427 104.183 72.4481 104.151 72.6454 104.09C72.776 104.049 72.8766 103.965 72.9926 103.902L74.5113 104.849C75.9735 105.763 77.5131 106.724 79.1309 107.716L87.2542 112.819C87.2666 113.531 87.6188 114.208 88.2545 114.528L90.3974 115.731C90.6189 115.862 90.8643 115.948 91.1192 115.982C91.3741 116.017 91.6334 116.001 91.8818 115.934C92.4067 115.795 92.8671 115.44 93.1566 114.936L97.105 107.646C97.6667 106.674 97.3499 105.467 96.3573 104.884ZM46.2713 81.8615C43.1151 85.0119 39.8129 88.0232 36.4586 90.81C33.2611 93.4575 30.5821 93.8684 28.9598 93.0826C33.0804 89.8797 39.9438 84.1355 44.4631 79.6107L47.9209 76.1171C54.5596 69.0553 60.3149 61.6929 64.5654 54.8256C75.2545 37.5942 75.7191 22.2674 65.8071 13.8273C57.5116 6.76133 43.9793 6.90742 35.6412 14.1513C23.8235 24.416 25.5323 44.368 40.2113 67.5202C41.8388 70.0879 43.6108 72.5611 45.5187 74.9279C45.6318 75.0681 45.7803 75.1755 45.9487 75.2392L43.756 77.4526C43.7203 77.324 43.6589 77.204 43.5756 77.0997C41.3331 74.2785 39.4575 71.6533 37.8369 69.0651C15.4192 33.7297 27.0526 17.6973 33.0944 12.4435C42.6537 4.1328 58.7949 3.97302 68.3403 12.0935C73.4687 16.4556 83.5995 29.4986 66.9677 56.3485C62.6141 63.4021 56.6258 71.0153 49.6589 78.3583L46.2713 81.8615ZM47.0926 73.66C45.2322 71.3533 43.5043 68.9427 41.9175 66.4398C27.8216 44.2055 25.9704 25.2279 36.9656 15.6768C40.8398 12.3113 45.9375 10.6231 51.0094 10.6231C55.9076 10.6231 60.7793 12.1998 64.4977 15.3654C73.5814 23.0999 72.9639 37.4536 62.8481 53.7618C58.832 60.2519 53.4406 67.1994 47.2333 73.8945C47.1974 73.8102 47.1501 73.7313 47.0926 73.66ZM48.7134 82.8856C48.6069 82.7748 48.4764 82.6899 48.3319 82.6375L50.4377 80.46C50.4833 80.5866 50.5562 80.7068 50.6555 80.8101C56.3267 86.7419 62.92 91.8688 70.2672 96.0613L68.9083 98.5681C61.4596 94.3358 54.6584 89.0543 48.7134 82.8856ZM69.9155 100.998H69.9168L72.9736 95.2962L75.0989 96.48L73.6529 99.2061L72.8263 100.714C72.564 101.195 72.2996 101.675 72.0331 102.154L69.9155 100.998ZM75.5828 103.135L74.2554 102.308C74.3699 102.102 74.4842 101.892 74.5984 101.684L75.7383 99.6028C75.9732 99.1731 76.2052 98.7417 76.4342 98.3088C78.1786 99.1678 79.9243 100.024 81.6713 100.878L83.7632 101.903C85.9948 102.998 88.3777 104.166 90.9507 105.408C90.7882 105.71 90.6269 106.012 90.4641 106.313C90.2506 106.713 90.0325 107.109 89.816 107.506L87.9765 110.888L80.1967 105.999C78.5734 105.005 77.0395 104.046 75.5828 103.135ZM91.4042 113.98L89.25 112.792C89.25 112.79 89.2485 112.78 89.2525 112.769L89.2729 112.731C89.5986 112.145 89.9189 111.557 90.2339 110.965C90.5605 110.352 90.8927 109.741 91.2304 109.133C91.5764 108.517 91.9114 107.892 92.2462 107.268C92.5697 106.663 92.8918 106.06 93.225 105.466L95.3431 106.663L91.4042 113.98Z"/>
</mask>
<path d="M96.3573 104.884L94.1579 103.673C93.6977 103.419 93.1352 103.363 92.613 103.529C92.4517 103.58 92.3231 103.676 92.1844 103.76C89.4827 102.457 86.9804 101.23 84.6538 100.089L82.5589 99.0639C80.628 98.1182 78.8118 97.2281 77.0928 96.3792C77.0863 96.2306 77.1042 96.0817 77.0639 95.9351C76.9166 95.406 76.5596 94.965 76.1226 94.7459L73.9229 93.5137C72.9744 93.0333 71.83 93.3721 71.2625 94.2875C64.091 90.1938 57.6473 85.2005 52.116 79.4149C51.999 79.2913 51.8524 79.1997 51.6901 79.1488C58.5134 71.8872 64.3805 64.3842 68.6858 57.4106C86.1419 29.2293 75.1743 15.2544 69.6492 10.5537C59.2108 1.67527 42.2164 1.8378 31.7698 10.9188C25.3322 16.5143 12.8721 33.4881 36.1276 70.1425C37.7857 72.7899 39.7041 75.4762 41.9931 78.3566C42.1248 78.5236 42.3064 78.6443 42.5113 78.701C37.6463 83.4859 30.419 89.4551 26.6939 92.2762C26.5823 92.3603 26.4893 92.4667 26.421 92.5887C26.3526 92.7106 26.3104 92.8454 26.2969 92.9846C26.2841 93.1238 26.3001 93.2642 26.344 93.397C26.3878 93.5298 26.4586 93.6521 26.5518 93.7564C28.571 96.0056 32.8171 96.4493 37.7483 92.3643C40.9155 89.7333 44.034 86.9067 47.0399 83.9434C47.0869 84.0688 47.1598 84.1861 47.2576 84.2881C53.3739 90.6306 60.3619 96.0345 68.0285 100.377C67.9018 100.75 67.8532 101.145 67.9623 101.536C68.1041 102.047 68.4461 102.483 68.8996 102.734L71.1005 103.946C71.3873 104.103 71.7092 104.185 72.0361 104.184C72.2427 104.183 72.4481 104.151 72.6454 104.09C72.776 104.049 72.8766 103.965 72.9926 103.902L74.5113 104.849C75.9735 105.763 77.5131 106.724 79.1309 107.716L87.2542 112.819C87.2666 113.531 87.6188 114.208 88.2545 114.528L90.3974 115.731C90.6189 115.862 90.8643 115.948 91.1192 115.982C91.3741 116.017 91.6334 116.001 91.8818 115.934C92.4067 115.795 92.8671 115.44 93.1566 114.936L97.105 107.646C97.6667 106.674 97.3499 105.467 96.3573 104.884ZM46.2713 81.8615C43.1151 85.0119 39.8129 88.0232 36.4586 90.81C33.2611 93.4575 30.5821 93.8684 28.9598 93.0826C33.0804 89.8797 39.9438 84.1355 44.4631 79.6107L47.9209 76.1171C54.5596 69.0553 60.3149 61.6929 64.5654 54.8256C75.2545 37.5942 75.7191 22.2674 65.8071 13.8273C57.5116 6.76133 43.9793 6.90742 35.6412 14.1513C23.8235 24.416 25.5323 44.368 40.2113 67.5202C41.8388 70.0879 43.6108 72.5611 45.5187 74.9279C45.6318 75.0681 45.7803 75.1755 45.9487 75.2392L43.756 77.4526C43.7203 77.324 43.6589 77.204 43.5756 77.0997C41.3331 74.2785 39.4575 71.6533 37.8369 69.0651C15.4192 33.7297 27.0526 17.6973 33.0944 12.4435C42.6537 4.1328 58.7949 3.97302 68.3403 12.0935C73.4687 16.4556 83.5995 29.4986 66.9677 56.3485C62.6141 63.4021 56.6258 71.0153 49.6589 78.3583L46.2713 81.8615ZM47.0926 73.66C45.2322 71.3533 43.5043 68.9427 41.9175 66.4398C27.8216 44.2055 25.9704 25.2279 36.9656 15.6768C40.8398 12.3113 45.9375 10.6231 51.0094 10.6231C55.9076 10.6231 60.7793 12.1998 64.4977 15.3654C73.5814 23.0999 72.9639 37.4536 62.8481 53.7618C58.832 60.2519 53.4406 67.1994 47.2333 73.8945C47.1974 73.8102 47.1501 73.7313 47.0926 73.66ZM48.7134 82.8856C48.6069 82.7748 48.4764 82.6899 48.3319 82.6375L50.4377 80.46C50.4833 80.5866 50.5562 80.7068 50.6555 80.8101C56.3267 86.7419 62.92 91.8688 70.2672 96.0613L68.9083 98.5681C61.4596 94.3358 54.6584 89.0543 48.7134 82.8856ZM69.9155 100.998H69.9168L72.9736 95.2962L75.0989 96.48L73.6529 99.2061L72.8263 100.714C72.564 101.195 72.2996 101.675 72.0331 102.154L69.9155 100.998ZM75.5828 103.135L74.2554 102.308C74.3699 102.102 74.4842 101.892 74.5984 101.684L75.7383 99.6028C75.9732 99.1731 76.2052 98.7417 76.4342 98.3088C78.1786 99.1678 79.9243 100.024 81.6713 100.878L83.7632 101.903C85.9948 102.998 88.3777 104.166 90.9507 105.408C90.7882 105.71 90.6269 106.012 90.4641 106.313C90.2506 106.713 90.0325 107.109 89.816 107.506L87.9765 110.888L80.1967 105.999C78.5734 105.005 77.0395 104.046 75.5828 103.135ZM91.4042 113.98L89.25 112.792C89.25 112.79 89.2485 112.78 89.2525 112.769L89.2729 112.731C89.5986 112.145 89.9189 111.557 90.2339 110.965C90.5605 110.352 90.8927 109.741 91.2304 109.133C91.5764 108.517 91.9114 107.892 92.2462 107.268C92.5697 106.663 92.8918 106.06 93.225 105.466L95.3431 106.663L91.4042 113.98Z" fill="#0084D1"/>
<path d="M96.3573 104.884L94.1579 103.673C93.6977 103.419 93.1352 103.363 92.613 103.529C92.4517 103.58 92.3231 103.676 92.1844 103.76C89.4827 102.457 86.9804 101.23 84.6538 100.089L82.5589 99.0639C80.628 98.1182 78.8118 97.2281 77.0928 96.3792C77.0863 96.2306 77.1042 96.0817 77.0639 95.9351C76.9166 95.406 76.5596 94.965 76.1226 94.7459L73.9229 93.5137C72.9744 93.0333 71.83 93.3721 71.2625 94.2875C64.091 90.1938 57.6473 85.2005 52.116 79.4149C51.999 79.2913 51.8524 79.1997 51.6901 79.1488C58.5134 71.8872 64.3805 64.3842 68.6858 57.4106C86.1419 29.2293 75.1743 15.2544 69.6492 10.5537C59.2108 1.67527 42.2164 1.8378 31.7698 10.9188C25.3322 16.5143 12.8721 33.4881 36.1276 70.1425C37.7857 72.7899 39.7041 75.4762 41.9931 78.3566C42.1248 78.5236 42.3064 78.6443 42.5113 78.701C37.6463 83.4859 30.419 89.4551 26.6939 92.2762C26.5823 92.3603 26.4893 92.4667 26.421 92.5887C26.3526 92.7106 26.3104 92.8454 26.2969 92.9846C26.2841 93.1238 26.3001 93.2642 26.344 93.397C26.3878 93.5298 26.4586 93.6521 26.5518 93.7564C28.571 96.0056 32.8171 96.4493 37.7483 92.3643C40.9155 89.7333 44.034 86.9067 47.0399 83.9434C47.0869 84.0688 47.1598 84.1861 47.2576 84.2881C53.3739 90.6306 60.3619 96.0345 68.0285 100.377C67.9018 100.75 67.8532 101.145 67.9623 101.536C68.1041 102.047 68.4461 102.483 68.8996 102.734L71.1005 103.946C71.3873 104.103 71.7092 104.185 72.0361 104.184C72.2427 104.183 72.4481 104.151 72.6454 104.09C72.776 104.049 72.8766 103.965 72.9926 103.902L74.5113 104.849C75.9735 105.763 77.5131 106.724 79.1309 107.716L87.2542 112.819C87.2666 113.531 87.6188 114.208 88.2545 114.528L90.3974 115.731C90.6189 115.862 90.8643 115.948 91.1192 115.982C91.3741 116.017 91.6334 116.001 91.8818 115.934C92.4067 115.795 92.8671 115.44 93.1566 114.936L97.105 107.646C97.6667 106.674 97.3499 105.467 96.3573 104.884ZM46.2713 81.8615C43.1151 85.0119 39.8129 88.0232 36.4586 90.81C33.2611 93.4575 30.5821 93.8684 28.9598 93.0826C33.0804 89.8797 39.9438 84.1355 44.4631 79.6107L47.9209 76.1171C54.5596 69.0553 60.3149 61.6929 64.5654 54.8256C75.2545 37.5942 75.7191 22.2674 65.8071 13.8273C57.5116 6.76133 43.9793 6.90742 35.6412 14.1513C23.8235 24.416 25.5323 44.368 40.2113 67.5202C41.8388 70.0879 43.6108 72.5611 45.5187 74.9279C45.6318 75.0681 45.7803 75.1755 45.9487 75.2392L43.756 77.4526C43.7203 77.324 43.6589 77.204 43.5756 77.0997C41.3331 74.2785 39.4575 71.6533 37.8369 69.0651C15.4192 33.7297 27.0526 17.6973 33.0944 12.4435C42.6537 4.1328 58.7949 3.97302 68.3403 12.0935C73.4687 16.4556 83.5995 29.4986 66.9677 56.3485C62.6141 63.4021 56.6258 71.0153 49.6589 78.3583L46.2713 81.8615ZM47.0926 73.66C45.2322 71.3533 43.5043 68.9427 41.9175 66.4398C27.8216 44.2055 25.9704 25.2279 36.9656 15.6768C40.8398 12.3113 45.9375 10.6231 51.0094 10.6231C55.9076 10.6231 60.7793 12.1998 64.4977 15.3654C73.5814 23.0999 72.9639 37.4536 62.8481 53.7618C58.832 60.2519 53.4406 67.1994 47.2333 73.8945C47.1974 73.8102 47.1501 73.7313 47.0926 73.66ZM48.7134 82.8856C48.6069 82.7748 48.4764 82.6899 48.3319 82.6375L50.4377 80.46C50.4833 80.5866 50.5562 80.7068 50.6555 80.8101C56.3267 86.7419 62.92 91.8688 70.2672 96.0613L68.9083 98.5681C61.4596 94.3358 54.6584 89.0543 48.7134 82.8856ZM69.9155 100.998H69.9168L72.9736 95.2962L75.0989 96.48L73.6529 99.2061L72.8263 100.714C72.564 101.195 72.2996 101.675 72.0331 102.154L69.9155 100.998ZM75.5828 103.135L74.2554 102.308C74.3699 102.102 74.4842 101.892 74.5984 101.684L75.7383 99.6028C75.9732 99.1731 76.2052 98.7417 76.4342 98.3088C78.1786 99.1678 79.9243 100.024 81.6713 100.878L83.7632 101.903C85.9948 102.998 88.3777 104.166 90.9507 105.408C90.7882 105.71 90.6269 106.012 90.4641 106.313C90.2506 106.713 90.0325 107.109 89.816 107.506L87.9765 110.888L80.1967 105.999C78.5734 105.005 77.0395 104.046 75.5828 103.135ZM91.4042 113.98L89.25 112.792C89.25 112.79 89.2485 112.78 89.2525 112.769L89.2729 112.731C89.5986 112.145 89.9189 111.557 90.2339 110.965C90.5605 110.352 90.8927 109.741 91.2304 109.133C91.5764 108.517 91.9114 107.892 92.2462 107.268C92.5697 106.663 92.8918 106.06 93.225 105.466L95.3431 106.663L91.4042 113.98Z" stroke="#0084D1" mask="url(#path-1-outside-1_2015_36522)"/>
</svg>
