<svg width="100" height="100" viewBox="0 0 100 100" fill="none" xmlns="http://www.w3.org/2000/svg">
  <g clip-path="url(#clip0_2014_6282)">
    <path d="M83.4593 36.6439L36.839 83.265C34.7318 85.3715 31.3162 85.3715 29.2097 83.265L1.77515 55.8302C-0.331299 53.7228 -0.331299 50.3072 1.77515 48.2008L48.3953 1.58005C50.5027 -0.526196 53.9183 -0.526196 56.0248 1.58005L83.4593 29.0148C85.5666 31.1213 85.5666 34.5375 83.4593 36.6439Z" fill="#8CBAFA" />
    <path d="M83.459 29.0147L80.0356 25.5905C81.9117 27.4666 81.724 30.6953 79.6176 32.8018L32.9965 79.4229C30.89 81.5301 27.6613 81.717 25.7852 79.8409L29.2094 83.2649C31.3158 85.3715 34.7314 85.3715 36.8387 83.2649L83.459 36.644C85.5662 34.5375 85.5662 31.1211 83.459 29.0147Z" fill="#5692D8" />
    <path d="M10.7395 53.9116C10.547 53.9118 10.3564 53.8739 10.1786 53.8002C10.0009 53.7265 9.8394 53.6184 9.70354 53.4821C9.5675 53.3461 9.45958 53.1847 9.38594 53.007C9.31231 52.8293 9.27441 52.6388 9.27441 52.4464C9.27441 52.2541 9.31231 52.0636 9.38594 51.8859C9.45958 51.7082 9.5675 51.5468 9.70354 51.4108L32.5391 28.5752C32.6751 28.4392 32.8365 28.3313 33.0142 28.2576C33.1919 28.184 33.3824 28.1461 33.5747 28.1461C33.7671 28.1461 33.9576 28.184 34.1353 28.2576C34.313 28.3313 34.4744 28.4392 34.6104 28.5752C34.7464 28.7112 34.8543 28.8727 34.928 29.0504C35.0016 29.2281 35.0395 29.4185 35.0395 29.6109C35.0395 29.8032 35.0016 29.9937 34.928 30.1714C34.8543 30.3491 34.7464 30.5106 34.6104 30.6465L11.7748 53.4829C11.6389 53.6189 11.4776 53.7267 11.2999 53.8003C11.1223 53.8739 10.9317 53.9117 10.7395 53.9116ZM17.9967 61.1688C17.8042 61.169 17.6136 61.1311 17.4357 61.0574C17.2579 60.9837 17.0964 60.8755 16.9606 60.7391C16.8245 60.6031 16.7166 60.4417 16.643 60.264C16.5693 60.0863 16.5314 59.8958 16.5314 59.7035C16.5314 59.5111 16.5693 59.3207 16.643 59.143C16.7166 58.9653 16.8245 58.8038 16.9606 58.6678L39.7961 35.8321C39.9321 35.696 40.0936 35.5881 40.2713 35.5145C40.449 35.4409 40.6394 35.403 40.8318 35.403C41.0241 35.403 41.2146 35.4409 41.3923 35.5145C41.57 35.5881 41.7314 35.696 41.8674 35.8321C42.0035 35.9681 42.1114 36.1295 42.185 36.3072C42.2586 36.4849 42.2965 36.6754 42.2965 36.8677C42.2965 37.0601 42.2586 37.2505 42.185 37.4282C42.1114 37.6059 42.0035 37.7674 41.8674 37.9034L19.0319 60.7391C18.8961 60.8754 18.7348 60.9835 18.5572 61.0573C18.3795 61.131 18.189 61.1689 17.9967 61.1688Z" fill="#252D4C" />
    <path d="M47.6342 12.2063L43.0658 16.7741C41.2697 18.57 41.2697 21.4813 43.0658 23.2774C44.8615 25.0733 47.7738 25.0733 49.5697 23.2774L54.1375 18.7096C55.9334 16.9137 55.9334 14.0022 54.1375 12.2063C52.3414 10.4104 49.4293 10.4104 47.6342 12.2063ZM87.8617 50.4122H21.9301C18.9506 50.4122 16.5352 52.8276 16.5352 55.8067V94.6055C16.5352 97.5848 18.9506 100 21.9299 100H87.8615C90.8416 100 93.2564 97.5848 93.2564 94.6055V55.8067C93.2572 52.8276 90.8416 50.4122 87.8617 50.4122Z" fill="#FFCD34" />
    <path d="M87.8619 50.4122H83.0332C86.0125 50.4122 88.4279 52.8277 88.4279 55.8068V94.6056C88.4279 97.5849 86.0125 100 83.0332 100H87.8619C90.8418 100 93.2564 97.5849 93.2564 94.6056V55.8068C93.2574 52.8277 90.8418 50.4122 87.8619 50.4122Z" fill="#E69012" />
    <path d="M16.5352 62.6008H93.2572V71.9215H16.5352V62.6008Z" fill="#575B7A" />
    <path d="M88.4277 62.6008H93.2564V71.9215H88.4277V62.6008Z" fill="#252D4C" />
    <path d="M38.9467 94.8336H29.3115C28.923 94.8336 28.5504 94.6793 28.2757 94.4046C28.001 94.1299 27.8467 93.7573 27.8467 93.3688C27.8467 92.5592 28.5021 91.9039 29.3115 91.9039H38.9467C39.7563 91.9039 40.4115 92.5592 40.4115 93.3688C40.4115 93.7573 40.2572 94.1299 39.9825 94.4046C39.7078 94.6793 39.3352 94.8336 38.9467 94.8336Z" fill="#252D4C" />
  </g>
  <defs>
    <clipPath id="clip0_2014_6282">
      <rect width="100" height="100" fill="white" />
    </clipPath>
  </defs>
</svg>