<svg width="120" height="120" viewBox="0 0 120 120" fill="none" xmlns="http://www.w3.org/2000/svg">
<path d="M60 3.4502C66.7249 3.44759 73.1278 6.5411 78.0322 10.6729C82.9226 14.793 86.4396 20.046 87.2773 24.502C88.0871 28.8093 88.527 38.3024 88.5488 47.8174C88.5706 57.3321 88.1752 67.0134 87.2773 71.6934C86.3658 76.4442 84.5218 79.4235 82.1875 81.998C81.0341 83.2701 79.7594 84.4449 78.4473 85.668C77.1284 86.8973 75.7586 88.1872 74.3721 89.7197C73.1417 91.0797 72.7012 92.2073 72.0713 93.9551C72.0713 93.9551 72.0707 93.9575 72.0693 93.9619C72.0679 93.9669 72.0658 93.9742 72.0635 93.9834C72.0587 94.0024 72.0532 94.0284 72.0469 94.0615C72.0342 94.1282 72.0204 94.2174 72.0068 94.3311C71.9801 94.5553 71.9561 94.8477 71.9365 95.2021C71.8974 95.9103 71.8753 96.8363 71.8662 97.9092C71.848 100.054 71.8825 102.754 71.9375 105.405C71.9924 108.055 72.0678 110.651 72.1289 112.584C72.1594 113.55 72.1866 114.351 72.2061 114.91C72.2158 115.19 72.2231 115.409 72.2285 115.558C72.2312 115.632 72.2339 115.689 72.2354 115.728C72.2358 115.739 72.2351 115.748 72.2354 115.756C72.2356 115.764 72.2362 115.769 72.2363 115.771V115.776L72.2373 115.79V115.806L72.2441 115.979L72.2656 116.55H47.8613L47.8789 115.983L47.8848 115.79V115.789C47.8848 115.786 47.8856 115.781 47.8857 115.775V115.773C47.8869 115.737 47.8854 115.776 47.8867 115.732C47.8879 115.693 47.8903 115.637 47.8926 115.562C47.8971 115.414 47.9031 115.196 47.9111 114.918C47.9272 114.361 47.9498 113.563 47.9746 112.601C48.0242 110.675 48.0834 108.09 48.123 105.45C48.1627 102.809 48.183 100.119 48.1533 97.9824C48.1385 96.9133 48.1108 95.9903 48.0684 95.2842C48.0471 94.9307 48.0227 94.639 47.9951 94.415C47.9811 94.3015 47.967 94.2125 47.9541 94.1455C47.9477 94.1122 47.9414 94.0857 47.9365 94.0664C47.9342 94.0572 47.9322 94.05 47.9307 94.0449C47.9291 94.0397 47.9287 94.0371 47.9287 94.0371C47.2987 92.2892 46.8583 91.1618 45.6279 89.8018C44.2414 88.2692 42.8716 86.9793 41.5527 85.75C40.2405 84.5269 38.9649 83.3522 37.8115 82.0801C35.4773 79.5056 33.6342 76.526 32.7227 71.7754C31.8247 67.0955 31.4294 57.4141 31.4512 47.8994C31.473 38.3842 31.9119 28.8901 32.7217 24.583C33.5593 20.1281 37.0711 14.8581 41.959 10.7188C46.8608 6.56769 53.2645 3.45299 60 3.4502ZM49.4619 94.3369C49.4894 94.5828 49.5138 94.8722 49.5332 95.1953C49.5776 95.9347 49.6052 96.8838 49.6201 97.9619C49.6501 100.12 49.6296 102.827 49.5898 105.473C49.5501 108.119 49.4911 110.71 49.4414 112.639C49.4166 113.603 49.3941 114.403 49.3779 114.961C49.3768 115.001 49.3751 115.04 49.374 115.077H70.7432C70.7419 115.04 70.7406 115.001 70.7393 114.961C70.7198 114.401 70.6927 113.598 70.6621 112.63C70.6009 110.693 70.5258 108.092 70.4707 105.436C70.4156 102.78 70.38 100.063 70.3984 97.8965C70.4076 96.8145 70.4307 95.8619 70.4717 95.1201C70.4878 94.8295 70.5093 94.5662 70.5322 94.3369H49.4619ZM60 4.92285C53.707 4.92553 47.6269 7.84634 42.9053 11.8447C38.1699 15.8549 34.9176 20.8493 34.1641 24.8564C33.3829 29.0115 32.9398 38.3756 32.918 47.9023C32.8962 57.4295 33.2957 66.9751 34.1631 71.4961C35.0168 75.9455 36.7182 78.6854 38.8965 81.0879C39.9995 82.3044 41.2238 83.4331 42.5508 84.6699C43.871 85.9005 45.2814 87.2282 46.7139 88.8115C47.9616 90.1908 48.5134 91.3986 49.0596 92.8633H70.9092C71.4652 91.3621 72.0148 90.1347 73.2861 88.7295C74.7186 87.1462 76.1291 85.8194 77.4492 84.5889C78.7761 83.3521 80.0005 82.2223 81.1035 81.0059C83.2817 78.6034 84.9832 75.8634 85.8369 71.4141C86.7043 66.893 87.1038 57.3473 87.082 47.8203C87.0602 38.2937 86.6171 28.9294 85.8359 24.7744C85.0826 20.7685 81.8263 15.7929 77.0889 11.8018C72.3651 7.82219 66.2846 4.9203 60 4.92285Z" fill="#0084D1" stroke="#0084D1" stroke-width="1.1"/>
<path d="M80.2218 32.0001C80.2218 20.8317 71.1679 11.7779 59.9996 11.7778C48.8311 11.7778 39.7773 20.8316 39.7773 32.0001C39.7773 43.1685 48.8311 52.2223 59.9996 52.2223M80.2218 32.0001C80.2218 35.8882 78.8156 39.5161 76.8902 42.5826M80.2218 32.0001C80.2218 20.9931 71.0065 12.0703 59.9996 12.0702C48.9926 12.0702 40.0697 20.9931 40.0697 32.0001C40.0697 43.007 48.9926 52.2223 59.9996 52.2223M59.9996 52.2223C64.1127 52.2222 67.9346 50.6836 71.1088 48.5484M59.9021 18.5998C67.249 18.5999 73.2049 24.5557 73.2049 31.9026C73.2049 39.2495 67.249 45.2053 59.9021 45.2054C52.5552 45.2054 46.5993 39.2495 46.5993 31.9026C46.5993 24.5557 52.5552 18.5998 59.9021 18.5998ZM59.9021 18.8922C52.7166 18.8922 46.8917 24.7171 46.8917 31.9026C46.8917 39.0881 52.7166 44.913 59.9021 44.913C67.0875 44.913 72.9126 39.088 72.9126 31.9026C72.9125 24.7172 67.0875 18.8922 59.9021 18.8922ZM59.9996 29.9047C61.1567 29.9048 62.0949 30.8429 62.0949 32.0001C62.0949 33.1572 61.1567 34.0953 59.9996 34.0954C58.8424 34.0954 57.9043 33.1573 57.9043 32.0001C57.9043 30.8428 58.8424 29.9047 59.9996 29.9047ZM59.9996 30.1971C59.0038 30.1971 58.1966 31.0043 58.1966 32.0001C58.1966 32.9958 59.0038 33.803 59.9996 33.803C60.9952 33.8029 61.8025 32.9957 61.8025 32.0001C61.8025 31.0044 60.9952 30.1972 59.9996 30.1971Z" stroke="#0084D1" stroke-width="2.5"/>
</svg>
