<svg width="120" height="120" viewBox="0 0 120 120" fill="none" xmlns="http://www.w3.org/2000/svg">
<path d="M100.486 8.68359C97.2207 5.4 92.791 3.51562 88.3309 3.51562C81.8785 3.51562 77.3715 7.34297 77.3715 12.825C77.3715 16.1297 78.984 19.0406 81.4309 20.3906C81.2246 21.1852 81.1168 22.0195 81.1168 22.8562C81.1168 23.3367 81.152 23.8102 81.2176 24.2742C72.6043 30.7852 74.3949 44.7305 75.8457 55.9992C76.659 62.3227 77.4957 68.8383 75.8363 71.1375C74.9384 70.5795 73.9748 70.1347 72.9676 69.8133C65.2121 67.3289 54.7895 67.3289 47.0316 69.8133C46.0243 70.1342 45.0606 70.579 44.1629 71.1375C42.5012 68.8383 43.3402 62.3227 44.1535 55.9992C45.602 44.7305 47.3949 30.7852 38.7816 24.2742C38.8473 23.8125 38.8824 23.3391 38.8824 22.8562C38.8824 22.0195 38.7746 21.1875 38.5684 20.3906C41.0152 19.0383 42.6277 16.1273 42.6277 12.825C42.6277 7.34531 38.1207 3.51562 31.6684 3.51562C27.2082 3.51562 22.7785 5.4 19.5137 8.68359C16.8043 11.4094 13.5723 16.4437 13.5723 24.9516C13.5723 32.8406 18.4684 43.7672 27.6629 43.7672C33.3793 43.7672 37.6918 39.7172 37.6918 34.3477C37.6918 32.5266 37.1879 30.7687 36.2809 29.3367C36.9184 28.725 37.4527 27.9914 37.8699 27.1734C44.2684 33.0516 42.6676 45.5062 41.3645 55.6406C40.3684 63.3961 39.5551 69.7383 41.9551 72.8906C39.7168 75.1383 38.4137 78.218 38.416 81.6305C38.4207 89.2008 43.5887 95.9977 51.5832 98.9461C53.1629 99.5297 54.1426 100.936 54.1426 102.619V115.078C54.1426 115.854 54.773 116.484 55.5488 116.484H64.4504C65.2262 116.484 65.8566 115.854 65.8566 115.078V102.616C65.8566 100.934 66.8363 99.5273 68.416 98.9438C76.4105 95.9953 81.5809 89.1984 81.5832 81.6281C81.5855 78.2156 80.2824 75.1359 78.0441 72.8883C80.4441 69.7359 79.6332 63.3937 78.6348 55.6383C77.3316 45.5039 75.7309 33.0492 82.1293 27.1711C82.5465 27.9891 83.0809 28.7227 83.7184 29.3344C82.8113 30.7688 82.3074 32.5266 82.3074 34.3453C82.3074 39.7148 86.6176 43.7648 92.3363 43.7648C101.531 43.7648 106.427 32.8383 106.427 24.9492C106.427 16.4437 103.195 11.4094 100.486 8.68359ZM35.5449 18.9984C35.4593 19.1797 35.4132 19.377 35.4096 19.5774C35.4059 19.7778 35.4449 19.9767 35.5238 20.1609C35.8801 20.9812 36.0676 21.9141 36.0676 22.8562C36.0676 24.9937 35.0926 26.9672 33.5855 27.8859C33.2223 28.1063 32.9785 28.4789 32.9223 28.9008C32.866 29.3227 33.002 29.7445 33.2949 30.0539C34.3004 31.118 34.8793 32.6836 34.8793 34.35C34.8793 38.6883 31.2488 40.957 27.6629 40.957C20.402 40.957 16.3848 31.4953 16.3848 24.9539C16.3848 18.9797 18.1566 14.0391 21.5082 10.6688C24.248 7.91016 27.9512 6.32812 31.6684 6.32812C35.723 6.32812 39.8152 8.33672 39.8152 12.825C39.8152 15.4172 38.3926 17.6977 36.4332 18.2484C36.24 18.3024 36.0607 18.3973 35.9074 18.5267C35.7541 18.6561 35.6305 18.817 35.5449 18.9984ZM47.8895 72.4898C55.1316 70.1695 64.8652 70.1695 72.1098 72.4898C75.5902 73.6055 78.009 76.4109 78.6184 79.8773C76.5066 80.175 74.6387 81.0984 73.052 82.6336C72.2579 83.4078 71.1927 83.8412 70.0836 83.8412C68.9745 83.8412 67.9093 83.4078 67.1152 82.6336C65.1512 80.7328 62.7559 79.7695 59.9973 79.7695C57.2387 79.7695 54.8457 80.7328 52.8793 82.6336C52.0852 83.4078 51.02 83.8412 49.9109 83.8412C48.8019 83.8412 47.7367 83.4078 46.9426 82.6336C45.3559 81.0984 43.4879 80.175 41.3762 79.8773C41.9902 76.4109 44.4113 73.6055 47.8895 72.4898ZM67.4434 96.3047C64.7715 97.2914 63.0441 99.7664 63.0441 102.616V113.672H56.9551V102.616C56.9551 99.7687 55.2277 97.2914 52.5559 96.3047C46.0684 93.9117 41.7465 88.6523 41.273 82.7109C42.677 82.9711 43.9238 83.6203 44.9902 84.6539C47.7512 87.3258 52.0754 87.3258 54.8363 84.6539C56.259 83.2781 57.9957 82.582 59.9973 82.582C61.9988 82.582 63.7379 83.2805 65.1582 84.6539C66.5387 85.9898 68.3105 86.6578 70.0824 86.6578C71.8543 86.6578 73.6262 85.9898 75.0066 84.6539C76.0754 83.6203 77.3223 82.9687 78.7238 82.7109C78.2527 88.6523 73.9285 93.9117 67.4434 96.3047ZM92.3363 40.9547C88.7504 40.9547 85.1199 38.6859 85.1199 34.3477C85.1199 32.6813 85.6965 31.1156 86.7043 30.0516C86.9949 29.7422 87.1332 29.3203 87.077 28.8984C87.0207 28.4766 86.777 28.1039 86.4137 27.8836C84.9066 26.9672 83.9316 24.9938 83.9316 22.8539C83.9316 21.9117 84.1191 20.9789 84.4754 20.1586C84.6371 19.7859 84.6301 19.3617 84.4543 18.9961C84.368 18.8151 84.2442 18.6546 84.091 18.5253C83.9379 18.396 83.7589 18.3008 83.566 18.2461C81.6066 17.6953 80.184 15.4148 80.184 12.8227C80.184 8.33437 84.2762 6.32578 88.3309 6.32578C92.048 6.32578 95.7512 7.90781 98.491 10.6641C101.843 14.0344 103.614 18.975 103.614 24.9492C103.614 31.493 99.5973 40.9547 92.3363 40.9547Z" fill="#0084D1"/>
</svg>
