<svg width="120" height="120" viewBox="0 0 120 120" fill="none" xmlns="http://www.w3.org/2000/svg">
<path d="M60.3848 4.0365C67.0095 3.78196 73.3757 7.60185 76.1357 8.98181C78.9498 10.3889 84.4264 14.344 86.208 23.2523C87.0934 27.6799 89.3096 41.0246 90.9072 54.142C91.7061 60.7006 92.3513 67.2068 92.5977 72.514C92.7208 75.1669 92.7446 77.524 92.6377 79.4398C92.5312 81.3488 92.2935 82.8425 91.8828 83.7533C90.3074 87.2452 89.0633 89.3739 87.625 91.1097C86.1881 92.8437 84.561 94.1805 82.2373 96.0902L82.1064 96.1976C78.9559 98.7871 74.1611 100.817 70.1699 102.198C68.1717 102.889 66.3683 103.418 65.0654 103.776C64.4145 103.954 63.8875 104.09 63.5234 104.181C63.3418 104.226 63.1995 104.262 63.1035 104.285C63.0898 104.288 63.0763 104.291 63.0645 104.293C63.0619 104.307 63.0595 104.322 63.0566 104.338C63.0387 104.437 63.014 104.581 62.9863 104.76C62.9309 105.118 62.8637 105.617 62.8193 106.178C62.7302 107.308 62.7339 108.667 63.0791 109.657C63.1726 109.924 63.2778 110.121 63.3877 110.328C63.4977 110.535 63.6126 110.752 63.7119 111.049C64.0129 111.949 64.0101 113.147 63.9375 114.103C63.9009 114.584 63.8455 115.01 63.7998 115.316C63.777 115.468 63.7561 115.592 63.7412 115.677C63.7338 115.719 63.7278 115.753 63.7236 115.776C63.7216 115.786 63.7199 115.795 63.7188 115.801C63.7183 115.804 63.718 115.806 63.7178 115.808L63.7168 115.81L63.6904 115.948H58.1035L58.0771 115.811V115.81L58.0762 115.808C58.0759 115.806 58.0757 115.804 58.0752 115.801C58.0741 115.795 58.0723 115.787 58.0703 115.776C58.0661 115.753 58.0602 115.719 58.0527 115.677C58.0378 115.592 58.0169 115.468 57.9941 115.316C57.9485 115.01 57.894 114.584 57.8574 114.103C57.7848 113.147 57.782 111.949 58.083 111.049C58.1824 110.752 58.2972 110.535 58.4072 110.328C58.517 110.121 58.6214 109.924 58.7148 109.657C59.06 108.667 59.0638 107.308 58.9746 106.178C58.9303 105.617 58.864 105.118 58.8086 104.76C58.7809 104.581 58.7552 104.437 58.7373 104.338C58.7344 104.322 58.7311 104.307 58.7285 104.293C58.7169 104.291 58.7039 104.288 58.6904 104.285C58.5945 104.262 58.4524 104.226 58.2705 104.181C57.9065 104.09 57.3796 103.954 56.7285 103.776C55.4258 103.418 53.6231 102.889 51.625 102.198C47.6337 100.817 42.8383 98.7873 39.6875 96.1976L39.5566 96.0902C37.2328 94.1804 35.6059 92.8437 34.1689 91.1097C32.7305 89.3739 31.4867 87.2454 29.9111 83.7533C29.5004 82.8425 29.2638 81.349 29.1572 79.4398C29.0504 77.524 29.0741 75.1669 29.1973 72.514C29.4436 67.2068 30.0879 60.7006 30.8867 54.142C32.4844 41.0246 34.7005 27.6799 35.5859 23.2523C37.3677 14.344 42.8442 10.3888 45.6582 8.98181C48.4218 7.59996 53.7692 4.29106 60.3848 4.0365ZM60.3984 4.37537C53.8746 4.62627 48.6071 7.88717 45.8105 9.28552C43.0647 10.6584 37.6751 14.5383 35.9189 23.3187C35.0356 27.736 32.8205 41.0722 31.2236 54.183C30.4252 60.7382 29.7819 67.2347 29.5361 72.5297C29.4133 75.177 29.3901 77.5215 29.4961 79.4213C29.6025 81.3273 29.838 82.765 30.2207 83.6136C31.7906 87.0931 33.0199 89.1905 34.4307 90.8929C35.843 92.5973 37.443 93.9131 39.7725 95.8275L39.9033 95.9349C43.0045 98.4838 47.7499 100.498 51.7354 101.876C53.7251 102.564 55.5208 103.093 56.8184 103.449C57.4669 103.627 57.9918 103.762 58.3535 103.852C58.5341 103.897 58.6747 103.931 58.7695 103.953C58.8167 103.965 58.8528 103.974 58.877 103.98C58.8887 103.983 58.8983 103.984 58.9043 103.986C58.9071 103.986 58.9097 103.987 58.9111 103.988H58.9131L59.0195 104.012L59.042 104.12V104.122C59.0423 104.124 59.0433 104.127 59.0439 104.13C59.0453 104.137 59.0472 104.148 59.0498 104.161C59.055 104.188 59.0631 104.228 59.0723 104.278C59.0906 104.379 59.1154 104.526 59.1436 104.707C59.1999 105.071 59.2683 105.579 59.3135 106.151C59.4032 107.288 59.4062 108.709 59.0361 109.769C58.9332 110.064 58.8165 110.281 58.707 110.487C58.5978 110.692 58.494 110.889 58.4043 111.157C58.1262 111.988 58.1232 113.128 58.1953 114.077C58.2311 114.547 58.2853 114.966 58.3301 115.266C58.3515 115.409 58.3705 115.526 58.3848 115.608H63.4092C63.4235 115.526 63.4425 115.409 63.4639 115.266C63.5087 114.966 63.5628 114.547 63.5986 114.077C63.6707 113.128 63.6677 111.988 63.3896 111.157C63.2999 110.889 63.1971 110.692 63.0879 110.487C62.9784 110.281 62.8618 110.064 62.7588 109.769C62.3885 108.708 62.3917 107.288 62.4814 106.151C62.5266 105.579 62.594 105.071 62.6504 104.707C62.6785 104.526 62.7043 104.379 62.7227 104.278C62.7318 104.228 62.739 104.188 62.7441 104.161C62.7467 104.148 62.7486 104.137 62.75 104.13C62.7507 104.127 62.7516 104.124 62.752 104.122V104.12L62.7744 104.012L62.8809 103.988H62.8828C62.8843 103.987 62.887 103.986 62.8896 103.986C62.8957 103.984 62.9053 103.983 62.917 103.98C62.9412 103.974 62.9775 103.965 63.0244 103.953C63.1194 103.931 63.2609 103.897 63.4414 103.852C63.8032 103.762 64.3275 103.626 64.9756 103.449C66.2732 103.093 68.069 102.564 70.0586 101.876C74.044 100.498 78.7896 98.4837 81.8906 95.9349L82.0215 95.8275C84.3507 93.9132 85.951 92.5972 87.3633 90.8929C88.7739 89.1905 90.0035 87.0929 91.5732 83.6136C91.9559 82.765 92.1915 81.3271 92.2979 79.4213C92.4038 77.5215 92.3807 75.177 92.2578 72.5297C92.012 67.2347 91.3687 60.7382 90.5703 54.183C88.9734 41.0721 86.7584 27.736 85.875 23.3187C84.1189 14.5384 78.7294 10.6585 75.9834 9.28552C73.1836 7.88562 66.9138 4.12512 60.3984 4.37537ZM57.0381 11.8949C58.0914 11.7462 58.8974 12.2346 59.5371 12.9125C60.1734 13.5868 60.6611 14.466 61.0732 15.1185C62.2405 16.9664 63.7445 17.8882 65.6074 19.142C71.614 21.3565 75.8925 27.0751 75.8926 33.7826C75.8926 33.9978 75.8867 34.2121 75.8779 34.4252L81.7393 36.6801L81.8135 36.7084L81.8027 36.7865C81.399 39.6882 80.811 41.8358 79.7051 43.7426C78.5991 45.6492 76.9793 47.3085 74.5244 49.2416L74.4639 49.2885L74.4033 49.2435L69.9707 45.9701C67.2619 48.1185 63.8226 49.4056 60.0791 49.4056C51.347 49.4054 44.2666 42.4117 44.2666 33.7826C44.2667 28.5189 46.9005 23.8629 50.9375 21.0326C52.4193 19.3592 53.5838 18.1246 54.2432 16.0472C54.3602 15.6784 54.461 15.2612 54.5811 14.8265C54.7002 14.3952 54.8374 13.9516 55.0244 13.5443C55.3997 12.7274 55.9828 12.0439 57.0381 11.8949ZM60.0791 18.3597C51.4552 18.3599 44.4659 25.2663 44.4658 33.7826C44.4659 42.299 51.4552 49.2052 60.0791 49.2054C68.7032 49.2054 75.6923 42.2991 75.6924 33.7826C75.6923 25.2662 68.7031 18.3598 60.0791 18.3597ZM75.8682 34.6371C75.6222 39.1456 73.4422 43.1452 70.1328 45.8412L74.459 49.0365C76.8713 47.1308 78.4532 45.5031 79.5322 43.6429C80.61 41.7848 81.1901 39.6872 81.5918 36.8373L75.8682 34.6371ZM60.8135 25.3148C65.3933 25.5468 69.0352 29.3336 69.0352 33.9711L69.0244 34.4164C68.7924 38.996 65.0054 42.6378 60.3682 42.6381L59.9219 42.6273C55.4898 42.4027 51.9365 38.8484 51.7119 34.4164L51.7002 33.9711C51.7002 29.1841 55.5812 25.3031 60.3682 25.3031L60.8135 25.3148ZM60.3682 25.5033C55.6917 25.5033 51.9004 29.2946 51.9004 33.9711C51.9007 38.6473 55.6919 42.4378 60.3682 42.4379C65.0443 42.4376 68.8347 38.6472 68.835 33.9711C68.835 29.2947 65.0444 25.5035 60.3682 25.5033ZM59.3916 13.0502C58.7762 12.3981 58.031 11.9571 57.0664 12.0931C56.1038 12.229 55.5654 12.8451 55.2061 13.6273C55.0259 14.0196 54.8919 14.4515 54.7734 14.8802C54.656 15.3055 54.552 15.7347 54.4336 16.1078C53.8363 17.9896 52.8279 19.1959 51.5801 20.6058C54.0347 19.0573 56.9511 18.1596 60.0791 18.1595C61.7537 18.1595 63.368 18.4173 64.8828 18.8939C63.3004 17.8334 61.9639 16.9026 60.9043 15.225C60.483 14.5579 60.0104 13.706 59.3916 13.0502Z" fill="#0084D1"/>
<path d="M60.3848 4.0365L60.3368 2.78742L60.3367 2.78742L60.3848 4.0365ZM76.1357 8.98181L76.6948 7.86378L76.6947 7.86377L76.1357 8.98181ZM86.208 23.2523L87.4337 23.0072L87.4337 23.0072L86.208 23.2523ZM90.9072 54.142L92.1481 53.9908L92.1481 53.9908L90.9072 54.142ZM92.5977 72.514L93.8463 72.4561L93.8463 72.4561L92.5977 72.514ZM92.6377 79.4398L93.8858 79.5095L93.8858 79.5094L92.6377 79.4398ZM91.8828 83.7533L93.0222 84.2674L93.0223 84.2671L91.8828 83.7533ZM87.625 91.1097L88.5875 91.9073L88.5875 91.9073L87.625 91.1097ZM82.2373 96.0902L83.0304 97.0564L83.031 97.0559L82.2373 96.0902ZM82.1064 96.1976L81.3133 95.2315L81.3127 95.232L82.1064 96.1976ZM70.1699 102.198L70.5785 103.379L70.5785 103.379L70.1699 102.198ZM65.0654 103.776L65.3961 104.981L65.3961 104.981L65.0654 103.776ZM63.5234 104.181L63.8263 105.394L63.8263 105.394L63.5234 104.181ZM63.1035 104.285L63.3944 105.5L63.3945 105.5L63.1035 104.285ZM63.0645 104.293L62.7769 103.077L61.9842 103.264L61.8355 104.065L63.0645 104.293ZM63.0566 104.338L64.2865 104.562L64.2866 104.561L63.0566 104.338ZM62.9863 104.76L61.7511 104.569L61.7511 104.569L62.9863 104.76ZM62.8193 106.178L61.5732 106.08L61.5732 106.08L62.8193 106.178ZM63.0791 109.657L61.8989 110.069L61.899 110.069L63.0791 109.657ZM63.3877 110.328L64.4915 109.741L64.4915 109.741L63.3877 110.328ZM63.7119 111.049L64.8974 110.653L64.8973 110.653L63.7119 111.049ZM63.9375 114.103L65.1839 114.198L65.1839 114.198L63.9375 114.103ZM63.7998 115.316L65.0361 115.5L65.0361 115.5L63.7998 115.316ZM63.7412 115.677L64.9724 115.893L64.9724 115.893L63.7412 115.677ZM63.7236 115.776L64.9524 116.005L64.9525 116.005L63.7236 115.776ZM63.7188 115.801L62.4913 115.565L62.4911 115.566L63.7188 115.801ZM63.7178 115.808L64.8358 116.367L64.9228 116.193L64.9528 116.001L63.7178 115.808ZM63.7168 115.81L62.5988 115.251L62.5216 115.405L62.4891 115.575L63.7168 115.81ZM63.6904 115.948V117.198H64.7238L64.9181 116.183L63.6904 115.948ZM58.1035 115.948L56.8761 116.184L57.0716 117.198H58.1035V115.948ZM58.0771 115.811H56.8271V115.93L56.8498 116.048L58.0771 115.811ZM58.0771 115.81H59.3271V115.515L59.1952 115.251L58.0771 115.81ZM58.0762 115.808L56.8431 116.013L56.874 116.199L56.9581 116.367L58.0762 115.808ZM58.0752 115.801L59.3028 115.566L59.3027 115.565L58.0752 115.801ZM58.0703 115.776L56.8415 116.005L56.8415 116.005L58.0703 115.776ZM58.0527 115.677L56.8215 115.893L56.8215 115.893L58.0527 115.677ZM57.9941 115.316L56.7578 115.5L56.7578 115.5L57.9941 115.316ZM57.8574 114.103L56.611 114.198L56.611 114.198L57.8574 114.103ZM58.083 111.049L56.8976 110.652L56.8976 110.653L58.083 111.049ZM58.4072 110.328L59.511 110.914L59.511 110.914L58.4072 110.328ZM58.7148 109.657L59.895 110.069L59.8951 110.068L58.7148 109.657ZM58.9746 106.178L60.2207 106.08L60.2207 106.08L58.9746 106.178ZM58.8086 104.76L60.0439 104.569L60.0439 104.569L58.8086 104.76ZM58.7373 104.338L59.9671 104.115L59.967 104.114L58.7373 104.338ZM58.7285 104.293L59.9575 104.065L59.809 103.265L59.0178 103.077L58.7285 104.293ZM58.6904 104.285L58.3995 105.5L58.4001 105.5L58.6904 104.285ZM58.2705 104.181L57.9676 105.394L57.9676 105.394L58.2705 104.181ZM56.7285 103.776L56.3978 104.981L56.3978 104.981L56.7285 103.776ZM51.625 102.198L51.2164 103.379L51.2165 103.379L51.625 102.198ZM39.6875 96.1976L40.4812 95.2319L40.4806 95.2315L39.6875 96.1976ZM39.5566 96.0902L38.763 97.0559L38.7635 97.0564L39.5566 96.0902ZM34.1689 91.1097L33.2064 91.9073L33.2065 91.9073L34.1689 91.1097ZM29.9111 83.7533L28.7717 84.2672L28.7717 84.2674L29.9111 83.7533ZM29.1572 79.4398L27.9092 79.5094L27.9092 79.5095L29.1572 79.4398ZM29.1973 72.514L27.9486 72.4561L27.9486 72.4561L29.1973 72.514ZM30.8867 54.142L29.6459 53.9908L29.6459 53.9908L30.8867 54.142ZM35.5859 23.2523L34.3602 23.0072L34.3602 23.0072L35.5859 23.2523ZM45.6582 8.98181L46.2172 10.0998L46.2172 10.0998L45.6582 8.98181ZM60.3984 4.37537L60.3505 3.12629L60.3504 3.12629L60.3984 4.37537ZM45.8105 9.28552L46.3695 10.4036L46.3696 10.4035L45.8105 9.28552ZM35.9189 23.3187L34.6932 23.0736L34.6932 23.0736L35.9189 23.3187ZM31.2236 54.183L29.9828 54.0319L29.9828 54.0319L31.2236 54.183ZM29.5361 72.5297L28.2875 72.4717L28.2875 72.4717L29.5361 72.5297ZM29.4961 79.4213L28.248 79.4909L28.248 79.4909L29.4961 79.4213ZM30.2207 83.6136L29.0812 84.1275L29.0813 84.1277L30.2207 83.6136ZM34.4307 90.8929L33.4682 91.6905L33.4682 91.6905L34.4307 90.8929ZM39.7725 95.8275L38.9788 96.7932L38.9793 96.7937L39.7725 95.8275ZM39.9033 95.9349L40.697 94.9693L40.6964 94.9688L39.9033 95.9349ZM51.7354 101.876L51.3268 103.058L51.3268 103.058L51.7354 101.876ZM56.8184 103.449L56.4877 104.654L56.4877 104.654L56.8184 103.449ZM58.3535 103.852L58.0506 105.065L58.0507 105.065L58.3535 103.852ZM58.7695 103.953L59.0605 102.738L59.0604 102.738L58.7695 103.953ZM58.877 103.98L58.5916 105.197L58.5929 105.197L58.877 103.98ZM58.9043 103.986L59.2002 102.771L59.187 102.768L58.9043 103.986ZM58.9111 103.988L58.6298 105.206L58.7686 105.238H58.9111V103.988ZM58.9131 103.988L59.1925 102.769L59.0546 102.738H58.9131V103.988ZM59.0195 104.012L60.2431 103.756L60.0792 102.973L59.299 102.794L59.0195 104.012ZM59.042 104.12H60.292V103.99L60.2655 103.864L59.042 104.12ZM59.042 104.122H57.792V104.247L57.8166 104.369L59.042 104.122ZM59.0439 104.13L60.27 103.887L60.2682 103.878L59.0439 104.13ZM59.0498 104.161L57.8225 104.398L57.8225 104.399L59.0498 104.161ZM59.0723 104.278L60.3021 104.054L60.3021 104.054L59.0723 104.278ZM59.1436 104.707L60.3788 104.516L60.3788 104.516L59.1436 104.707ZM59.3135 106.151L60.5596 106.052L60.5596 106.052L59.3135 106.151ZM59.0361 109.769L60.2162 110.181L60.2163 110.181L59.0361 109.769ZM58.707 110.487L57.6033 109.9L57.6033 109.9L58.707 110.487ZM58.4043 111.157L57.219 110.76L57.2189 110.76L58.4043 111.157ZM58.1953 114.077L56.9489 114.171L56.9489 114.171L58.1953 114.077ZM58.3301 115.266L57.0938 115.451L57.0938 115.451L58.3301 115.266ZM58.3848 115.608L57.1533 115.822L57.3338 116.858H58.3848V115.608ZM63.4092 115.608V116.858H64.4602L64.6406 115.822L63.4092 115.608ZM63.4639 115.266L64.7002 115.451L64.7002 115.451L63.4639 115.266ZM63.5986 114.077L64.845 114.171L64.845 114.171L63.5986 114.077ZM63.3896 111.157L64.5751 110.76L64.575 110.76L63.3896 111.157ZM63.0879 110.487L64.1917 109.9L64.1917 109.9L63.0879 110.487ZM62.7588 109.769L61.5786 110.181L61.5787 110.181L62.7588 109.769ZM62.4814 106.151L61.2353 106.052L61.2353 106.052L62.4814 106.151ZM62.6504 104.707L61.4151 104.516L61.4151 104.516L62.6504 104.707ZM62.7227 104.278L61.4928 104.054L61.4928 104.054L62.7227 104.278ZM62.7441 104.161L63.9714 104.399L63.9715 104.398L62.7441 104.161ZM62.75 104.13L61.5269 103.872L61.5254 103.879L61.524 103.887L62.75 104.13ZM62.752 104.122L63.9774 104.369L64.002 104.247V104.122H62.752ZM62.752 104.12L61.5284 103.864L61.502 103.99V104.12H62.752ZM62.7744 104.012L62.495 102.794L61.7147 102.973L61.5509 103.756L62.7744 104.012ZM62.8809 103.988V102.738H62.7393L62.6014 102.769L62.8809 103.988ZM62.8828 103.988V105.238H63.0546L63.2201 105.191L62.8828 103.988ZM62.8896 103.986L62.6133 102.767L62.607 102.768L62.8896 103.986ZM62.917 103.98L63.2023 105.197L63.2031 105.197L62.917 103.98ZM63.0244 103.953L63.3153 105.169L63.3153 105.169L63.0244 103.953ZM63.4414 103.852L63.7443 105.065L63.7443 105.065L63.4414 103.852ZM64.9756 103.449L65.3063 104.654L65.3063 104.654L64.9756 103.449ZM70.0586 101.876L70.4672 103.058L70.4672 103.058L70.0586 101.876ZM81.8906 95.9349L81.0975 94.9688L81.0969 94.9693L81.8906 95.9349ZM82.0215 95.8275L82.8146 96.7937L82.8151 96.7932L82.0215 95.8275ZM87.3633 90.8929L88.3258 91.6905L88.3258 91.6905L87.3633 90.8929ZM91.5732 83.6136L92.7126 84.1277L92.7128 84.1274L91.5732 83.6136ZM92.2979 79.4213L93.5459 79.4909L93.5459 79.4909L92.2979 79.4213ZM92.2578 72.5297L93.5065 72.4717L93.5065 72.4717L92.2578 72.5297ZM90.5703 54.183L91.8111 54.0319L91.8111 54.0319L90.5703 54.183ZM85.875 23.3187L87.1007 23.0736L87.1007 23.0736L85.875 23.3187ZM75.9834 9.28552L76.5424 8.16749L76.5424 8.16749L75.9834 9.28552ZM57.0381 11.8949L56.8634 10.6572L56.8634 10.6572L57.0381 11.8949ZM59.5371 12.9125L60.4462 12.0546L60.4462 12.0545L59.5371 12.9125ZM61.0732 15.1185L60.0164 15.7861L60.0164 15.7861L61.0732 15.1185ZM65.6074 19.142L64.9095 20.179L65.0341 20.2628L65.175 20.3148L65.6074 19.142ZM75.8926 33.7826L77.1426 33.7826L77.1426 33.7826L75.8926 33.7826ZM75.8779 34.4252L74.629 34.374L74.5923 35.2699L75.4291 35.5918L75.8779 34.4252ZM81.7393 36.6801L81.2904 37.8467L81.2936 37.8479L81.7393 36.6801ZM81.8135 36.7084L83.0518 36.8786L83.1871 35.8946L82.2591 35.5405L81.8135 36.7084ZM81.8027 36.7865L83.0408 36.9588L83.0411 36.9568L81.8027 36.7865ZM79.7051 43.7426L80.7863 44.3698L80.7864 44.3697L79.7051 43.7426ZM74.5244 49.2416L75.2897 50.23L75.2977 50.2237L74.5244 49.2416ZM74.4639 49.2885L73.7191 50.2923L74.4799 50.8568L75.2291 50.2769L74.4639 49.2885ZM74.4033 49.2435L75.1481 48.2397L75.1459 48.238L74.4033 49.2435ZM69.9707 45.9701L70.7133 44.9646L69.9436 44.3962L69.1939 44.9907L69.9707 45.9701ZM60.0791 49.4056L60.0791 50.6556L60.0791 50.6556L60.0791 49.4056ZM44.2666 33.7826L43.0166 33.7826L43.0166 33.7826L44.2666 33.7826ZM50.9375 21.0326L51.6551 22.0561L51.7757 21.9716L51.8733 21.8613L50.9375 21.0326ZM54.2432 16.0472L55.4346 16.4254L55.4346 16.4253L54.2432 16.0472ZM54.5811 14.8265L53.3762 14.4937L53.3762 14.4937L54.5811 14.8265ZM55.0244 13.5443L53.8885 13.0226L53.8885 13.0226L55.0244 13.5443ZM60.0791 18.3597L60.0791 17.1097L60.0791 17.1097L60.0791 18.3597ZM44.4658 33.7826L43.2158 33.7826L43.2158 33.7826L44.4658 33.7826ZM60.0791 49.2054L60.0791 50.4554L60.0791 50.4554L60.0791 49.2054ZM75.6924 33.7826L76.9424 33.7826L76.9424 33.7826L75.6924 33.7826ZM75.8682 34.6371L76.3167 33.4703L74.7136 32.8541L74.62 34.569L75.8682 34.6371ZM70.1328 45.8412L69.3433 44.8721L68.0943 45.8896L69.3902 46.8467L70.1328 45.8412ZM74.459 49.0365L73.7163 50.042L74.4845 50.6093L75.2339 50.0174L74.459 49.0365ZM79.5322 43.6429L80.6135 44.2702L80.6135 44.2701L79.5322 43.6429ZM81.5918 36.8373L82.8296 37.0117L82.9683 36.0272L82.0403 35.6705L81.5918 36.8373ZM60.8135 25.3148L60.8767 24.0664L60.8615 24.0657L60.8464 24.0653L60.8135 25.3148ZM69.0352 33.9711L70.2848 34.0012L70.2852 33.9861V33.9711H69.0352ZM69.0244 34.4164L70.2728 34.4796L70.2737 34.4631L70.2741 34.4465L69.0244 34.4164ZM60.3682 42.6381L60.3381 43.8877L60.3532 43.8881L60.3682 43.8881L60.3682 42.6381ZM59.9219 42.6273L59.8586 43.8757L59.8752 43.8766L59.8918 43.877L59.9219 42.6273ZM51.7119 34.4164L50.4623 34.4493L50.4627 34.4645L50.4635 34.4796L51.7119 34.4164ZM51.7002 33.9711H50.4502V33.9875L50.4506 34.004L51.7002 33.9711ZM60.3682 25.3031L60.401 24.0535L60.3846 24.0531L60.3682 24.0531L60.3682 25.3031ZM60.3682 25.5033L60.3682 24.2533L60.3682 24.2533L60.3682 25.5033ZM51.9004 33.9711L50.6504 33.9711L50.6504 33.9711L51.9004 33.9711ZM60.3682 42.4379L60.3682 43.6879L60.3682 43.6879L60.3682 42.4379ZM68.835 33.9711L70.085 33.9711V33.9711H68.835ZM59.3916 13.0502L60.3008 12.1923L60.3007 12.1923L59.3916 13.0502ZM57.0664 12.0931L56.8919 10.8554L56.8917 10.8554L57.0664 12.0931ZM55.2061 13.6273L54.0702 13.1055L54.0701 13.1056L55.2061 13.6273ZM54.7734 14.8802L53.5686 14.5474L53.5686 14.5474L54.7734 14.8802ZM54.4336 16.1078L55.625 16.4859L55.625 16.4859L54.4336 16.1078ZM51.5801 20.6058L50.644 19.7774L52.247 21.663L51.5801 20.6058ZM60.0791 18.1595L60.0791 16.9095L60.0791 16.9095L60.0791 18.1595ZM64.8828 18.8939L64.5077 20.0863L65.5787 17.8556L64.8828 18.8939ZM60.9043 15.225L59.8475 15.8925L59.8475 15.8925L60.9043 15.225ZM60.3848 4.0365L60.4328 5.28558C66.6562 5.04645 72.6712 8.64717 75.5767 10.0999L76.1357 8.98181L76.6947 7.86377C74.0802 6.55654 67.3628 2.51746 60.3368 2.78742L60.3848 4.0365ZM76.1357 8.98181L75.5767 10.0998C78.1403 11.3817 83.2948 15.0602 84.9823 23.4975L86.208 23.2523L87.4337 23.0072C85.5579 13.6278 79.7592 9.39605 76.6948 7.86378L76.1357 8.98181ZM86.208 23.2523L84.9823 23.4974C85.8602 27.8874 88.0717 41.1999 89.6664 54.2931L90.9072 54.142L92.1481 53.9908C90.5474 40.8493 88.3267 27.4724 87.4337 23.0072L86.208 23.2523ZM90.9072 54.142L89.6664 54.2931C90.4637 60.8392 91.1048 67.3101 91.349 72.572L92.5977 72.514L93.8463 72.4561C93.5979 67.1035 92.9484 60.5621 92.1481 53.9908L90.9072 54.142ZM92.5977 72.514L91.349 72.572C91.4711 75.2037 91.4932 77.514 91.3896 79.3702L92.6377 79.4398L93.8858 79.5094C93.9959 77.5341 93.9704 75.13 93.8463 72.4561L92.5977 72.514ZM92.6377 79.4398L91.3896 79.3702C91.2838 81.2672 91.051 82.557 90.7433 83.2395L91.8828 83.7533L93.0223 84.2671C93.5359 83.1281 93.7786 81.4303 93.8858 79.5095L92.6377 79.4398ZM91.8828 83.7533L90.7434 83.2392C89.189 86.6845 87.9989 88.6993 86.6625 90.3122L87.625 91.1097L88.5875 91.9073C90.1276 90.0486 91.4257 87.8058 93.0222 84.2674L91.8828 83.7533ZM87.625 91.1097L86.6625 90.3122C85.316 91.937 83.7878 93.198 81.4436 95.1245L82.2373 96.0902L83.031 97.0559C85.3342 95.1631 87.0603 93.7503 88.5875 91.9073L87.625 91.1097ZM82.2373 96.0902L81.4442 95.124L81.3133 95.2315L82.1064 96.1976L82.8996 97.1638L83.0304 97.0564L82.2373 96.0902ZM82.1064 96.1976L81.3127 95.232C78.3446 97.6715 73.7308 99.6434 69.7613 101.016L70.1699 102.198L70.5785 103.379C74.5914 101.991 79.5671 99.9028 82.9001 97.1633L82.1064 96.1976ZM70.1699 102.198L69.7614 101.016C67.7951 101.696 66.0186 102.218 64.7347 102.57L65.0654 103.776L65.3961 104.981C66.718 104.619 68.5484 104.081 70.5785 103.379L70.1699 102.198ZM65.0654 103.776L64.7348 102.57C64.0938 102.746 63.5761 102.879 63.2205 102.968L63.5234 104.181L63.8263 105.394C64.1989 105.301 64.7352 105.163 65.3961 104.981L65.0654 103.776ZM63.5234 104.181L63.2206 102.968C63.0389 103.014 62.902 103.047 62.8126 103.069L63.1035 104.285L63.3945 105.5C63.4971 105.476 63.6447 105.439 63.8263 105.394L63.5234 104.181ZM63.1035 104.285L62.8126 103.069C62.819 103.067 62.823 103.066 62.8162 103.068C62.8142 103.068 62.8082 103.07 62.8026 103.071C62.7964 103.072 62.7874 103.074 62.7769 103.077L63.0645 104.293L63.352 105.51C63.3496 105.51 63.3477 105.511 63.3466 105.511C63.3454 105.511 63.3447 105.511 63.3447 105.511C63.3447 105.511 63.345 105.511 63.3461 105.511C63.3473 105.511 63.3482 105.511 63.3504 105.51C63.3567 105.509 63.3743 105.505 63.3944 105.5L63.1035 104.285ZM63.0645 104.293L61.8355 104.065C61.8336 104.075 61.8321 104.084 61.831 104.09C61.8299 104.097 61.8288 104.103 61.8282 104.106C61.8267 104.115 61.8266 104.116 61.8267 104.115L63.0566 104.338L64.2866 104.561C64.2896 104.545 64.2921 104.529 64.2931 104.524C64.2938 104.52 64.294 104.518 64.2942 104.517C64.2943 104.517 64.294 104.519 64.2934 104.522L63.0645 104.293ZM63.0566 104.338L61.8268 104.115C61.8068 104.225 61.7803 104.38 61.7511 104.569L62.9863 104.76L64.2216 104.951C64.2477 104.783 64.2707 104.649 64.2865 104.562L63.0566 104.338ZM62.9863 104.76L61.7511 104.569C61.6923 104.948 61.6206 105.479 61.5732 106.08L62.8193 106.178L64.0655 106.276C64.1067 105.755 64.1695 105.288 64.2216 104.951L62.9863 104.76ZM62.8193 106.178L61.5732 106.08C61.4821 107.235 61.4623 108.818 61.8989 110.069L63.0791 109.657L64.2593 109.245C64.0054 108.517 63.9783 107.382 64.0655 106.276L62.8193 106.178ZM63.0791 109.657L61.899 110.069C62.0277 110.437 62.1755 110.71 62.2839 110.914L63.3877 110.328L64.4915 109.741C64.3801 109.531 64.3175 109.411 64.2592 109.245L63.0791 109.657ZM63.3877 110.328L62.2839 110.914C62.3909 111.115 62.4626 111.255 62.5265 111.446L63.7119 111.049L64.8973 110.653C64.7625 110.25 64.6046 109.954 64.4915 109.741L63.3877 110.328ZM63.7119 111.049L62.5265 111.446C62.743 112.093 62.7618 113.077 62.6911 114.008L63.9375 114.103L65.1839 114.198C65.2584 113.218 65.2827 111.805 64.8974 110.653L63.7119 111.049ZM63.9375 114.103L62.6911 114.008C62.6574 114.451 62.6061 114.846 62.5635 115.131L63.7998 115.316L65.0361 115.5C65.0848 115.174 65.1445 114.717 65.1839 114.198L63.9375 114.103ZM63.7998 115.316L62.5635 115.131C62.5427 115.271 62.5236 115.384 62.51 115.461L63.7412 115.677L64.9724 115.893C64.9887 115.8 65.0114 115.666 65.0361 115.5L63.7998 115.316ZM63.7412 115.677L62.51 115.461C62.5023 115.505 62.4975 115.532 62.4948 115.547L63.7236 115.776L64.9525 116.005C64.9582 115.974 64.9654 115.933 64.9724 115.893L63.7412 115.677ZM63.7236 115.776L62.4948 115.547C62.4946 115.548 62.4943 115.549 62.4938 115.552C62.4935 115.554 62.4932 115.555 62.4928 115.557C62.4925 115.559 62.4919 115.562 62.4913 115.565L63.7188 115.801L64.9462 116.037C64.9462 116.038 64.9462 116.037 64.9466 116.035C64.9469 116.034 64.9474 116.031 64.948 116.028C64.9491 116.023 64.9507 116.014 64.9524 116.005L63.7236 115.776ZM63.7188 115.801L62.4911 115.566C62.4868 115.588 62.4839 115.607 62.4821 115.619C62.4803 115.631 62.479 115.641 62.4784 115.646C62.4781 115.648 62.4778 115.65 62.4777 115.651C62.4776 115.652 62.4778 115.65 62.4779 115.649C62.4781 115.648 62.4786 115.644 62.4793 115.639C62.4799 115.634 62.4811 115.626 62.4827 115.615L63.7178 115.808L64.9528 116.001C64.9545 115.99 64.9558 115.981 64.9565 115.976C64.9572 115.97 64.9577 115.966 64.958 115.964C64.9582 115.962 64.9585 115.96 64.9584 115.961C64.9584 115.961 64.9583 115.961 64.9583 115.962C64.9582 115.962 64.9581 115.963 64.958 115.964C64.9575 115.968 64.9564 115.976 64.9548 115.987C64.9532 115.998 64.9504 116.015 64.9464 116.037L63.7188 115.801ZM63.7178 115.808L62.5997 115.249L62.5988 115.251L63.7168 115.81L64.8348 116.369L64.8358 116.367L63.7178 115.808ZM63.7168 115.81L62.4891 115.575L62.4627 115.713L63.6904 115.948L64.9181 116.183L64.9445 116.045L63.7168 115.81ZM63.6904 115.948V114.698H58.1035V115.948V117.198H63.6904V115.948ZM58.1035 115.948L59.3309 115.711L59.3045 115.574L58.0771 115.811L56.8498 116.048L56.8761 116.184L58.1035 115.948ZM58.0771 115.811H59.3271V115.81H58.0771H56.8271V115.811H58.0771ZM58.0771 115.81L59.1952 115.251L59.1942 115.249L58.0762 115.808L56.9581 116.367L56.9591 116.369L58.0771 115.81ZM58.0762 115.808L59.3093 115.603C59.3115 115.616 59.3131 115.627 59.314 115.634C59.3149 115.64 59.3156 115.646 59.3159 115.648C59.3162 115.651 59.3165 115.653 59.3164 115.652C59.3164 115.652 59.3164 115.652 59.3164 115.652C59.3164 115.652 59.3164 115.652 59.3164 115.652C59.3163 115.652 59.3163 115.651 59.3163 115.651C59.3162 115.65 59.3161 115.649 59.3159 115.648C59.3154 115.644 59.314 115.634 59.3122 115.621C59.3103 115.608 59.3073 115.589 59.3028 115.566L58.0752 115.801L56.8476 116.037C56.8434 116.015 56.8406 115.997 56.8389 115.985C56.8372 115.974 56.836 115.965 56.8356 115.962C56.8354 115.96 56.8353 115.959 56.8354 115.959C56.8354 115.959 56.8357 115.962 56.8361 115.965C56.8364 115.968 56.8372 115.974 56.8382 115.981C56.8392 115.988 56.8408 115.999 56.8431 116.013L58.0762 115.808ZM58.0752 115.801L59.3027 115.565C59.3021 115.562 59.3015 115.559 59.3011 115.557C59.3007 115.555 59.3005 115.554 59.3002 115.552C59.2997 115.549 59.2994 115.548 59.2991 115.547L58.0703 115.776L56.8415 116.005C56.8433 116.015 56.8449 116.023 56.846 116.029C56.8465 116.031 56.8471 116.034 56.8473 116.035C56.8477 116.037 56.8477 116.037 56.8476 116.037L58.0752 115.801ZM58.0703 115.776L59.2991 115.547C59.2964 115.532 59.2917 115.506 59.2839 115.461L58.0527 115.677L56.8215 115.893C56.8286 115.933 56.8358 115.974 56.8415 116.005L58.0703 115.776ZM58.0527 115.677L59.284 115.461C59.2704 115.384 59.2513 115.271 59.2304 115.131L57.9941 115.316L56.7578 115.5C56.7826 115.666 56.8052 115.8 56.8215 115.893L58.0527 115.677ZM57.9941 115.316L59.2304 115.131C59.1882 114.848 59.1376 114.452 59.1038 114.008L57.8574 114.103L56.611 114.198C56.6503 114.715 56.7088 115.172 56.7578 115.5L57.9941 115.316ZM57.8574 114.103L59.1038 114.008C59.0331 113.077 59.0519 112.093 59.2684 111.446L58.083 111.049L56.8976 110.653C56.5121 111.805 56.5365 113.218 56.611 114.198L57.8574 114.103ZM58.083 111.049L59.2684 111.446C59.3323 111.255 59.404 111.115 59.511 110.914L58.4072 110.328L57.3035 109.741C57.1903 109.954 57.0324 110.25 56.8976 110.652L58.083 111.049ZM58.4072 110.328L59.511 110.914C59.6213 110.707 59.7669 110.435 59.895 110.069L58.7148 109.657L57.5347 109.245C57.4759 109.413 57.4127 109.535 57.3035 109.741L58.4072 110.328ZM58.7148 109.657L59.8951 110.068C60.3315 108.818 60.3119 107.235 60.2207 106.08L58.9746 106.178L57.7285 106.276C57.8157 107.381 57.7885 108.517 57.5346 109.245L58.7148 109.657ZM58.9746 106.178L60.2207 106.08C60.1734 105.48 60.1029 104.95 60.0439 104.569L58.8086 104.76L57.5733 104.951C57.6252 105.286 57.6872 105.753 57.7285 106.276L58.9746 106.178ZM58.8086 104.76L60.0439 104.569C60.0139 104.375 59.9861 104.219 59.9671 104.115L58.7373 104.338L57.5075 104.562C57.5244 104.655 57.5479 104.788 57.5733 104.951L58.8086 104.76ZM58.7373 104.338L59.967 104.114C59.9633 104.094 59.9597 104.076 59.9581 104.068C59.9571 104.063 59.9569 104.062 59.9566 104.06C59.9564 104.06 59.9568 104.062 59.9575 104.065L58.7285 104.293L57.4995 104.522C57.5015 104.532 57.5032 104.541 57.5045 104.547C57.5056 104.553 57.5069 104.559 57.5074 104.562C57.5089 104.569 57.5084 104.567 57.5076 104.562L58.7373 104.338ZM58.7285 104.293L59.0178 103.077C59.0104 103.076 59.0038 103.074 58.9989 103.073C58.9942 103.072 58.9895 103.071 58.9869 103.07C58.9802 103.069 58.9799 103.069 58.9808 103.069L58.6904 104.285L58.4001 105.5C58.4144 105.504 58.4273 105.507 58.4334 105.508C58.4372 105.509 58.4388 105.509 58.4402 105.51C58.4414 105.51 58.4408 105.51 58.4392 105.509L58.7285 104.293ZM58.6904 104.285L58.9813 103.069C58.892 103.048 58.7553 103.014 58.5734 102.968L58.2705 104.181L57.9676 105.394C58.1494 105.439 58.297 105.476 58.3995 105.5L58.6904 104.285ZM58.2705 104.181L58.5734 102.968C58.2179 102.88 57.7003 102.746 57.0592 102.57L56.7285 103.776L56.3978 104.981C57.0589 105.163 57.5951 105.301 57.9676 105.394L58.2705 104.181ZM56.7285 103.776L57.0592 102.57C55.7756 102.218 53.9999 101.696 52.0335 101.016L51.625 102.198L51.2165 103.379C53.2463 104.081 55.0759 104.619 56.3978 104.981L56.7285 103.776ZM51.625 102.198L52.0336 101.016C48.0639 99.6434 43.4495 97.6716 40.4812 95.2319L39.6875 96.1976L38.8938 97.1633C42.2271 99.9029 47.2035 101.991 51.2164 103.379L51.625 102.198ZM39.6875 96.1976L40.4806 95.2315L40.3498 95.124L39.5566 96.0902L38.7635 97.0564L38.8944 97.1638L39.6875 96.1976ZM39.5566 96.0902L40.3503 95.1245C38.0059 93.1978 36.478 91.9371 35.1314 90.3121L34.1689 91.1097L33.2065 91.9073C34.7338 93.7503 36.4596 95.1629 38.763 97.0559L39.5566 96.0902ZM34.1689 91.1097L35.1314 90.3122C33.7949 88.6993 32.6051 86.6847 31.0505 83.2392L29.9111 83.7533L28.7717 84.2674C30.3683 87.8061 31.6662 90.0485 33.2064 91.9073L34.1689 91.1097ZM29.9111 83.7533L31.0506 83.2394C30.743 82.5573 30.5112 81.2683 30.4053 79.3702L29.1572 79.4398L27.9092 79.5095C28.0163 81.4297 28.2578 83.1278 28.7717 84.2672L29.9111 83.7533ZM29.1572 79.4398L30.4053 79.3702C30.3017 77.5139 30.3238 75.2038 30.4459 72.572L29.1973 72.514L27.9486 72.4561C27.8245 75.1301 27.799 77.5341 27.9092 79.5094L29.1572 79.4398ZM29.1973 72.514L30.4459 72.572C30.6902 67.31 31.3303 60.839 32.1275 54.2931L30.8867 54.142L29.6459 53.9908C28.8455 60.5622 28.1971 67.1036 27.9486 72.4561L29.1973 72.514ZM30.8867 54.142L32.1275 54.2931C33.7223 41.1999 35.9338 27.8874 36.8117 23.4974L35.5859 23.2523L34.3602 23.0072C33.4672 27.4724 31.2465 40.8494 29.6459 53.9908L30.8867 54.142ZM35.5859 23.2523L36.8117 23.4975C38.4992 15.0603 43.6537 11.3816 46.2172 10.0998L45.6582 8.98181L45.0992 7.86378C42.0348 9.396 36.2361 13.6278 34.3602 23.0072L35.5859 23.2523ZM45.6582 8.98181L46.2172 10.0998C49.1014 8.65772 54.1549 5.52714 60.4328 5.28557L60.3848 4.0365L60.3367 2.78742C53.3835 3.05498 47.7423 6.54219 45.0992 7.86378L45.6582 8.98181ZM60.3984 4.37537L60.3504 3.12629C53.4886 3.39018 47.9269 6.82977 45.2515 8.1675L45.8105 9.28552L46.3696 10.4035C49.2874 8.94456 54.2605 5.86235 60.4465 5.62444L60.3984 4.37537ZM45.8105 9.28552L45.2515 8.16748C42.2552 9.66561 36.5436 13.8221 34.6932 23.0736L35.9189 23.3187L37.1447 23.5639C38.8067 15.2544 43.8742 11.6512 46.3695 10.4036L45.8105 9.28552ZM35.9189 23.3187L34.6932 23.0736C33.8023 27.5285 31.5826 40.8969 29.9828 54.0319L31.2236 54.183L32.4645 54.3341C34.0584 41.2475 36.2688 27.9435 37.1447 23.5639L35.9189 23.3187ZM31.2236 54.183L29.9828 54.0319C29.1829 60.5998 28.5354 67.1315 28.2875 72.4717L29.5361 72.5297L30.7848 72.5876C31.0285 67.338 31.6676 60.8766 32.4645 54.3341L31.2236 54.183ZM29.5361 72.5297L28.2875 72.4717C28.1636 75.1402 28.1387 77.5316 28.248 79.4909L29.4961 79.4213L30.7442 79.3516C30.6415 77.5114 30.6629 75.2138 30.7848 72.5876L29.5361 72.5297ZM29.4961 79.4213L28.248 79.4909C28.355 81.408 28.5954 83.0502 29.0812 84.1275L30.2207 83.6136L31.3602 83.0998C31.0806 82.4798 30.8499 81.2467 30.7442 79.3516L29.4961 79.4213ZM30.2207 83.6136L29.0813 84.1277C30.6722 87.6539 31.9556 89.8651 33.4682 91.6905L34.4307 90.8929L35.3932 90.0954C34.0843 88.5158 32.9089 86.5324 31.3601 83.0996L30.2207 83.6136ZM34.4307 90.8929L33.4682 91.6905C34.971 93.504 36.67 94.8958 38.9788 96.7932L39.7725 95.8275L40.5661 94.8618C38.216 92.9304 36.7151 91.6906 35.3931 90.0954L34.4307 90.8929ZM39.7725 95.8275L38.9793 96.7937L39.1102 96.9011L39.9033 95.9349L40.6964 94.9688L40.5656 94.8614L39.7725 95.8275ZM39.9033 95.9349L39.1096 96.9006C42.3932 99.5994 47.3197 101.672 51.3268 103.058L51.7354 101.876L52.1439 100.695C48.1802 99.3242 43.6157 97.3681 40.697 94.9693L39.9033 95.9349ZM51.7354 101.876L51.3268 103.058C53.3482 103.757 55.1707 104.293 56.4877 104.654L56.8184 103.449L57.149 102.243C55.8709 101.893 54.1021 101.372 52.1439 100.695L51.7354 101.876ZM56.8184 103.449L56.4877 104.654C57.1464 104.835 57.6806 104.972 58.0506 105.065L58.3535 103.852L58.6564 102.639C58.3029 102.551 57.7874 102.418 57.149 102.243L56.8184 103.449ZM58.3535 103.852L58.0507 105.065C58.237 105.111 58.3822 105.146 58.4786 105.169L58.7695 103.953L59.0604 102.738C58.9672 102.716 58.8311 102.683 58.6564 102.639L58.3535 103.852ZM58.7695 103.953L58.4785 105.169C58.496 105.173 58.512 105.177 58.5295 105.182C58.5432 105.185 58.5688 105.192 58.5916 105.197L58.877 103.98L59.1623 102.763C59.1632 102.763 59.1617 102.763 59.1561 102.761C59.1504 102.76 59.1441 102.758 59.1342 102.756C59.1158 102.751 59.0902 102.745 59.0605 102.738L58.7695 103.953ZM58.877 103.98L58.5929 105.197C58.6151 105.202 58.6334 105.206 58.6414 105.208C58.6431 105.208 58.6453 105.209 58.6455 105.209C58.6464 105.209 58.6458 105.209 58.6449 105.208C58.6439 105.208 58.6413 105.208 58.6378 105.207C58.6343 105.206 58.6287 105.205 58.6216 105.203L58.9043 103.986L59.187 102.768C59.1784 102.766 59.1711 102.765 59.166 102.763C59.1608 102.762 59.1564 102.761 59.1534 102.761C59.1505 102.76 59.148 102.76 59.1467 102.759C59.1448 102.759 59.1448 102.759 59.1442 102.759C59.143 102.759 59.1505 102.76 59.161 102.763L58.877 103.98ZM58.9043 103.986L58.6084 105.2C58.5886 105.195 58.5725 105.191 58.5619 105.188C58.5515 105.185 58.5436 105.182 58.5421 105.182C58.5417 105.182 58.5413 105.182 58.5416 105.182C58.5416 105.182 58.5424 105.182 58.5432 105.182C58.5446 105.183 58.5488 105.184 58.5541 105.186C58.5592 105.187 58.5682 105.19 58.5795 105.193C58.5852 105.194 58.5923 105.196 58.6005 105.198C58.6085 105.201 58.6184 105.203 58.6298 105.206L58.9111 103.988L59.1925 102.77C59.2037 102.772 59.2134 102.775 59.2212 102.777C59.2292 102.779 59.2361 102.781 59.2416 102.782C59.2524 102.785 59.261 102.788 59.2656 102.789C59.2704 102.79 59.2741 102.792 59.275 102.792C59.2755 102.792 59.276 102.792 59.2757 102.792C59.2757 102.792 59.2751 102.792 59.2743 102.792C59.2717 102.791 59.2625 102.788 59.2508 102.785C59.2389 102.781 59.2214 102.776 59.2002 102.771L58.9043 103.986ZM58.9111 103.988V105.238H58.9131V103.988V102.738H58.9111V103.988ZM58.9131 103.988L58.6336 105.206L58.7401 105.23L59.0195 104.012L59.299 102.794L59.1925 102.769L58.9131 103.988ZM59.0195 104.012L57.796 104.268L57.8185 104.375L59.042 104.12L60.2655 103.864L60.2431 103.756L59.0195 104.012ZM59.042 104.12H57.792V104.122H59.042H60.292V104.12H59.042ZM59.042 104.122L57.8166 104.369C57.8206 104.389 57.8244 104.405 57.827 104.416C57.8297 104.427 57.832 104.436 57.8334 104.442C57.8348 104.447 57.836 104.451 57.8363 104.453C57.8365 104.453 57.8366 104.453 57.8366 104.454C57.8367 104.454 57.8367 104.454 57.8367 104.454C57.8368 104.454 57.8367 104.454 57.8365 104.453C57.8359 104.451 57.8336 104.442 57.8307 104.431C57.8278 104.419 57.8238 104.403 57.8197 104.383L59.0439 104.13L60.2682 103.878C60.2637 103.856 60.2594 103.838 60.2561 103.825C60.2529 103.812 60.2501 103.802 60.2492 103.798C60.2489 103.797 60.2487 103.797 60.2487 103.796C60.2486 103.796 60.2487 103.797 60.2488 103.797C60.249 103.798 60.25 103.801 60.2513 103.806C60.2526 103.811 60.2547 103.819 60.2573 103.83C60.2598 103.84 60.2635 103.856 60.2674 103.876L59.042 104.122ZM59.0439 104.13L57.8179 104.374C57.8173 104.371 57.8169 104.369 57.8167 104.368C57.8164 104.366 57.8163 104.365 57.8163 104.365C57.8163 104.365 57.8163 104.366 57.8165 104.366C57.8166 104.367 57.8168 104.368 57.817 104.37C57.818 104.375 57.82 104.386 57.8225 104.398L59.0498 104.161L60.2771 103.925C60.277 103.924 60.2768 103.923 60.2758 103.917C60.2755 103.915 60.2747 103.911 60.2739 103.907C60.2731 103.903 60.2717 103.895 60.27 103.887L59.0439 104.13ZM59.0498 104.161L57.8225 104.399C57.8245 104.409 57.8266 104.419 57.8282 104.428C57.83 104.436 57.8315 104.444 57.8331 104.452C57.8363 104.468 57.8393 104.484 57.8424 104.501L59.0723 104.278L60.3021 104.054C60.2916 103.997 60.2779 103.929 60.2771 103.924L59.0498 104.161ZM59.0723 104.278L57.8424 104.501C57.8584 104.589 57.8813 104.725 57.9083 104.899L59.1436 104.707L60.3788 104.516C60.3495 104.326 60.3229 104.169 60.3021 104.054L59.0723 104.278ZM59.1436 104.707L57.9083 104.899C57.9613 105.241 58.0253 105.717 58.0674 106.249L59.3135 106.151L60.5596 106.052C60.5113 105.441 60.4385 104.902 60.3788 104.516L59.1436 104.707ZM59.3135 106.151L58.0674 106.249C58.1551 107.361 58.1347 108.558 57.8559 109.357L59.0361 109.769L60.2163 110.181C60.6777 108.859 60.6513 107.214 60.5596 106.052L59.3135 106.151ZM59.0361 109.769L57.856 109.357C57.7882 109.551 57.714 109.692 57.6033 109.9L58.707 110.487L59.8108 111.073C59.9189 110.87 60.0782 110.576 60.2162 110.181L59.0361 109.769ZM58.707 110.487L57.6033 109.9C57.4926 110.108 57.3446 110.385 57.219 110.76L58.4043 111.157L59.5896 111.553C59.6434 111.393 59.703 111.276 59.8108 111.073L58.707 110.487ZM58.4043 111.157L57.2189 110.76C56.8563 111.844 56.875 113.198 56.9489 114.171L58.1953 114.077L59.4417 113.982C59.3715 113.057 59.3962 112.132 59.5897 111.553L58.4043 111.157ZM58.1953 114.077L56.9489 114.171C56.9876 114.68 57.0458 115.129 57.0938 115.451L58.3301 115.266L59.5664 115.081C59.5247 114.803 59.4747 114.415 59.4417 113.982L58.1953 114.077ZM58.3301 115.266L57.0938 115.451C57.1164 115.602 57.137 115.729 57.1533 115.822L58.3848 115.608L59.6162 115.393C59.6039 115.323 59.5865 115.216 59.5664 115.081L58.3301 115.266ZM58.3848 115.608V116.858H63.4092V115.608V114.358H58.3848V115.608ZM63.4092 115.608L64.6406 115.822C64.6569 115.729 64.6776 115.602 64.7002 115.451L63.4639 115.266L62.2276 115.081C62.2075 115.216 62.19 115.323 62.1777 115.393L63.4092 115.608ZM63.4639 115.266L64.7002 115.451C64.7481 115.129 64.8064 114.68 64.845 114.171L63.5986 114.077L62.3522 113.982C62.3193 114.415 62.2692 114.803 62.2276 115.081L63.4639 115.266ZM63.5986 114.077L64.845 114.171C64.9189 113.198 64.9376 111.844 64.5751 110.76L63.3896 111.157L62.2042 111.553C62.3977 112.132 62.4225 113.057 62.3522 113.982L63.5986 114.077ZM63.3896 111.157L64.575 110.76C64.45 110.386 64.3042 110.112 64.1917 109.9L63.0879 110.487L61.9841 111.073C62.09 111.273 62.1499 111.391 62.2043 111.553L63.3896 111.157ZM63.0879 110.487L64.1917 109.9C64.0808 109.692 64.0068 109.551 63.9389 109.357L62.7588 109.769L61.5787 110.181C61.7168 110.577 61.8759 110.87 61.9841 111.073L63.0879 110.487ZM62.7588 109.769L63.9389 109.357C63.6601 108.558 63.6398 107.361 63.7276 106.249L62.4814 106.151L61.2353 106.052C61.1436 107.214 61.117 108.859 61.5786 110.181L62.7588 109.769ZM62.4814 106.151L63.7276 106.249C63.7697 105.715 63.8329 105.239 63.8857 104.899L62.6504 104.707L61.4151 104.516C61.3551 104.903 61.2835 105.443 61.2353 106.052L62.4814 106.151ZM62.6504 104.707L63.8857 104.899C63.9118 104.73 63.9356 104.594 63.9525 104.501L62.7227 104.278L61.4928 104.054C61.473 104.163 61.4453 104.321 61.4151 104.516L62.6504 104.707ZM62.7227 104.278L63.9525 104.501C63.9619 104.45 63.9678 104.417 63.9714 104.399L62.7441 104.161L61.5169 103.924C61.5101 103.959 61.5016 104.006 61.4928 104.054L62.7227 104.278ZM62.7441 104.161L63.9715 104.398C63.9739 104.386 63.9759 104.375 63.9769 104.37C63.9772 104.368 63.9773 104.367 63.9775 104.366C63.9776 104.366 63.9777 104.365 63.9776 104.366C63.9776 104.366 63.9775 104.366 63.9773 104.368C63.977 104.369 63.9766 104.371 63.976 104.374L62.75 104.13L61.524 103.887C61.5222 103.895 61.5208 103.903 61.5201 103.907C61.5193 103.911 61.5185 103.915 61.5181 103.917C61.5172 103.923 61.5169 103.924 61.5168 103.925L62.7441 104.161ZM62.75 104.13L63.9731 104.388C63.9691 104.407 63.9655 104.422 63.9629 104.432C63.9605 104.442 63.9584 104.45 63.9581 104.451C63.958 104.451 63.9579 104.451 63.958 104.451C63.9581 104.451 63.9583 104.45 63.9585 104.449C63.9589 104.448 63.96 104.444 63.9613 104.439C63.9627 104.433 63.9648 104.425 63.9674 104.415C63.9687 104.409 63.9702 104.403 63.9718 104.395C63.9735 104.388 63.9753 104.379 63.9774 104.369L62.752 104.122L61.5266 103.876C61.5285 103.866 61.5304 103.857 61.5319 103.85C61.5335 103.843 61.535 103.837 61.5362 103.832C61.5386 103.822 61.5407 103.814 61.5418 103.809C61.543 103.805 61.544 103.801 61.5442 103.8C61.5444 103.8 61.5445 103.799 61.5444 103.8C61.5444 103.8 61.5443 103.8 61.5441 103.801C61.5434 103.803 61.541 103.812 61.5381 103.824C61.5352 103.835 61.5312 103.852 61.5269 103.872L62.75 104.13ZM62.752 104.122H64.002V104.12H62.752H61.502V104.122H62.752ZM62.752 104.12L63.9755 104.375L63.998 104.268L62.7744 104.012L61.5509 103.756L61.5284 103.864L62.752 104.12ZM62.7744 104.012L63.0539 105.23L63.1603 105.206L62.8809 103.988L62.6014 102.769L62.495 102.794L62.7744 104.012ZM62.8809 103.988V105.238H62.8828V103.988V102.738H62.8809V103.988ZM62.8828 103.988L63.2201 105.191C63.2298 105.189 63.2375 105.186 63.2417 105.185C63.2461 105.184 63.2495 105.183 63.2507 105.182C63.2554 105.181 63.2498 105.183 63.2465 105.184C63.2417 105.185 63.2325 105.188 63.2208 105.191C63.2092 105.194 63.1926 105.199 63.1723 105.203L62.8896 103.986L62.607 102.768C62.5854 102.773 62.5674 102.778 62.5546 102.781C62.5416 102.785 62.5311 102.788 62.5251 102.79C62.5206 102.791 62.5139 102.793 62.5176 102.792C62.5183 102.792 62.5213 102.791 62.5252 102.79C62.5289 102.789 62.5362 102.787 62.5455 102.784L62.8828 103.988ZM62.8896 103.986L63.166 105.205C63.1601 105.206 63.1555 105.207 63.1529 105.208C63.1502 105.208 63.1483 105.209 63.1478 105.209C63.1474 105.209 63.1472 105.209 63.1484 105.209C63.1492 105.208 63.1512 105.208 63.1533 105.208C63.1621 105.206 63.1802 105.202 63.2023 105.197L62.917 103.98L62.6317 102.763C62.6421 102.76 62.6495 102.759 62.6491 102.759C62.6489 102.759 62.6487 102.759 62.6474 102.759C62.6465 102.76 62.6443 102.76 62.6419 102.76C62.6395 102.761 62.6357 102.762 62.6313 102.763C62.6269 102.764 62.6207 102.765 62.6133 102.767L62.8896 103.986ZM62.917 103.98L63.2031 105.197C63.2254 105.191 63.2508 105.185 63.2644 105.182C63.2818 105.177 63.2979 105.173 63.3153 105.169L63.0244 103.953L62.7335 102.738C62.704 102.745 62.6784 102.751 62.6599 102.756C62.65 102.758 62.6436 102.76 62.6377 102.761C62.6319 102.763 62.6303 102.763 62.6309 102.763L62.917 103.98ZM63.0244 103.953L63.3153 105.169C63.4101 105.146 63.5571 105.111 63.7443 105.065L63.4414 103.852L63.1385 102.639C62.9647 102.683 62.8286 102.715 62.7335 102.738L63.0244 103.953ZM63.4414 103.852L63.7443 105.065C64.1147 104.972 64.6484 104.835 65.3063 104.654L64.9756 103.449L64.6449 102.243C64.0067 102.418 63.4916 102.551 63.1385 102.639L63.4414 103.852ZM64.9756 103.449L65.3063 104.654C66.6233 104.293 68.446 103.757 70.4672 103.058L70.0586 101.876L69.65 100.695C67.692 101.372 65.9231 101.893 64.6449 102.243L64.9756 103.449ZM70.0586 101.876L70.4672 103.058C74.4742 101.672 79.4008 99.5994 82.6843 96.9006L81.8906 95.9349L81.0969 94.9693C78.1784 97.368 73.6137 99.3241 69.65 100.695L70.0586 101.876ZM81.8906 95.9349L82.6837 96.9011L82.8146 96.7937L82.0215 95.8275L81.2284 94.8614L81.0975 94.9688L81.8906 95.9349ZM82.0215 95.8275L82.8151 96.7932C85.1237 94.896 86.8231 93.5039 88.3258 91.6905L87.3633 90.8929L86.4008 90.0954C85.0789 91.6905 83.5778 92.9305 81.2278 94.8618L82.0215 95.8275ZM87.3633 90.8929L88.3258 91.6905C89.8382 89.8652 91.1218 87.6536 92.7126 84.1277L91.5732 83.6136L90.4338 83.0996C88.8851 86.5321 87.7095 88.5159 86.4008 90.0954L87.3633 90.8929ZM91.5732 83.6136L92.7128 84.1274C93.1985 83.0502 93.4389 81.4078 93.5459 79.4909L92.2979 79.4213L91.0498 79.3516C90.9441 81.2464 90.7133 82.4797 90.4337 83.0999L91.5732 83.6136ZM92.2979 79.4213L93.5459 79.4909C93.6552 77.5316 93.6303 75.1402 93.5065 72.4717L92.2578 72.5297L91.0092 72.5876C91.131 75.2138 91.1525 77.5114 91.0498 79.3516L92.2979 79.4213ZM92.2578 72.5297L93.5065 72.4717C93.2586 67.1315 92.6111 60.5998 91.8111 54.0319L90.5703 54.183L89.3295 54.3341C90.1263 60.8767 90.7655 67.338 91.0092 72.5876L92.2578 72.5297ZM90.5703 54.183L91.8111 54.0319C90.2113 40.8968 87.9916 27.5285 87.1007 23.0736L85.875 23.3187L84.6493 23.5639C85.5251 27.9435 87.7356 41.2474 89.3295 54.3341L90.5703 54.183ZM85.875 23.3187L87.1007 23.0736C85.2504 13.8223 79.5389 9.66574 76.5424 8.16749L75.9834 9.28552L75.4244 10.4036C77.9198 11.6513 82.9874 15.2546 84.6493 23.5639L85.875 23.3187ZM75.9834 9.28552L76.5424 8.16749C73.8889 6.84076 67.2673 2.86062 60.3505 3.12629L60.3984 4.37537L60.4464 5.62445C66.5602 5.38962 72.4782 8.93047 75.4244 10.4036L75.9834 9.28552ZM57.0381 11.8949L57.2128 13.1326C57.7114 13.0623 58.14 13.2533 58.628 13.7704L59.5371 12.9125L60.4462 12.0545C59.6547 11.2159 58.4714 10.4302 56.8634 10.6572L57.0381 11.8949ZM59.5371 12.9125L58.628 13.7704C59.1553 14.3292 59.5473 15.0434 60.0164 15.7861L61.0732 15.1185L62.1301 14.451C61.7748 13.8886 61.1915 12.8444 60.4462 12.0546L59.5371 12.9125ZM61.0732 15.1185L60.0164 15.7861C61.3517 17.8999 63.1062 18.9653 64.9095 20.179L65.6074 19.142L66.3054 18.105C64.3828 16.811 63.1293 16.0329 62.1301 14.451L61.0732 15.1185ZM65.6074 19.142L65.175 20.3148C70.7137 22.3569 74.6425 27.6232 74.6426 33.7826L75.8926 33.7826L77.1426 33.7826C77.1425 26.527 72.5143 20.3562 66.0398 17.9691L65.6074 19.142ZM75.8926 33.7826L74.6426 33.7826C74.6426 33.9753 74.6373 34.1716 74.629 34.374L75.8779 34.4252L77.1269 34.4763C77.136 34.2526 77.1426 34.0202 77.1426 33.7826L75.8926 33.7826ZM75.8779 34.4252L75.4291 35.5918L81.2904 37.8467L81.7393 36.6801L82.1881 35.5134L76.3267 33.2585L75.8779 34.4252ZM81.7393 36.6801L81.2936 37.8479L81.3678 37.8762L81.8135 36.7084L82.2591 35.5405L82.1849 35.5122L81.7393 36.6801ZM81.8135 36.7084L80.5751 36.5381L80.5644 36.6162L81.8027 36.7865L83.0411 36.9568L83.0518 36.8786L81.8135 36.7084ZM81.8027 36.7865L80.5647 36.6142C80.1715 39.4401 79.6145 41.4072 78.6238 43.1154L79.7051 43.7426L80.7864 44.3697C82.0075 42.2643 82.6265 39.9364 83.0408 36.9588L81.8027 36.7865ZM79.7051 43.7426L78.6238 43.1154C77.631 44.8269 76.1489 46.3713 73.7511 48.2595L74.5244 49.2416L75.2977 50.2237C77.8096 48.2457 79.5673 46.4714 80.7863 44.3698L79.7051 43.7426ZM74.5244 49.2416L73.7592 48.2532L73.6987 48.3L74.4639 49.2885L75.2291 50.2769L75.2896 50.23L74.5244 49.2416ZM74.4639 49.2885L75.2087 48.2846L75.1481 48.2397L74.4033 49.2435L73.6585 50.2474L73.7191 50.2923L74.4639 49.2885ZM74.4033 49.2435L75.1459 48.238L70.7133 44.9646L69.9707 45.9701L69.2281 46.9756L73.6607 50.2491L74.4033 49.2435ZM69.9707 45.9701L69.1939 44.9907C66.6989 46.9696 63.5315 48.1556 60.0791 48.1556L60.0791 49.4056L60.0791 50.6556C64.1138 50.6556 67.825 49.2674 70.7475 46.9494L69.9707 45.9701ZM60.0791 49.4056L60.0791 48.1556C52.023 48.1555 45.5166 41.7071 45.5166 33.7826L44.2666 33.7826L43.0166 33.7826C43.0166 43.1164 50.671 50.6554 60.0791 50.6556L60.0791 49.4056ZM44.2666 33.7826L45.5166 33.7826C45.5167 28.9474 47.9343 24.6647 51.6551 22.0561L50.9375 21.0326L50.2199 20.0091C45.8667 23.0611 43.0167 28.0904 43.0166 33.7826L44.2666 33.7826ZM50.9375 21.0326L51.8733 21.8613C53.3195 20.2281 54.6813 18.7988 55.4346 16.4254L54.2432 16.0472L53.0517 15.6691C52.4864 17.4504 51.519 18.4904 50.0017 20.2039L50.9375 21.0326ZM54.2432 16.0472L55.4346 16.4253C55.5603 16.0291 55.6819 15.5359 55.7859 15.1594L54.5811 14.8265L53.3762 14.4937C53.24 14.9866 53.1601 15.3277 53.0517 15.6691L54.2432 16.0472ZM54.5811 14.8265L55.7859 15.1594C55.9004 14.745 56.0163 14.3796 56.1603 14.066L55.0244 13.5443L53.8885 13.0226C53.6584 13.5236 53.5001 14.0453 53.3762 14.4937L54.5811 14.8265ZM55.0244 13.5443L56.1603 14.0661C56.4366 13.4646 56.7366 13.1998 57.2128 13.1326L57.0381 11.8949L56.8634 10.6572C55.229 10.8879 54.3627 11.9902 53.8885 13.0226L55.0244 13.5443ZM60.0791 18.3597L60.0791 17.1097C50.7792 17.11 43.2159 24.5616 43.2158 33.7826L44.4658 33.7826L45.7158 33.7826C45.7159 25.9709 52.1312 19.6099 60.0791 19.6097L60.0791 18.3597ZM44.4658 33.7826L43.2158 33.7826C43.2159 43.0037 50.7792 50.4552 60.0791 50.4554L60.0791 49.2054L60.0791 47.9554C52.1311 47.9553 45.7159 41.5943 45.7158 33.7826L44.4658 33.7826ZM60.0791 49.2054L60.0791 50.4554C69.3792 50.4554 76.9423 43.0037 76.9424 33.7826L75.6924 33.7826L74.4424 33.7826C74.4424 41.5945 68.0272 47.9554 60.0791 47.9554L60.0791 49.2054ZM75.6924 33.7826L76.9424 33.7826C76.9423 24.5615 69.3791 17.1098 60.0791 17.1097L60.0791 18.3597L60.0791 19.6097C68.0272 19.6097 74.4423 25.9708 74.4424 33.7826L75.6924 33.7826ZM75.8682 34.6371L74.62 34.569C74.3941 38.7095 72.3928 42.3878 69.3433 44.8721L70.1328 45.8412L70.9223 46.8103C74.4916 43.9026 76.8502 39.5817 77.1163 34.7052L75.8682 34.6371ZM70.1328 45.8412L69.3902 46.8467L73.7163 50.042L74.459 49.0365L75.2016 48.031L70.8755 44.8357L70.1328 45.8412ZM74.459 49.0365L75.2339 50.0174C77.7031 48.0666 79.4219 46.3243 80.6135 44.2702L79.5322 43.6429L78.451 43.0157C77.4845 44.6819 76.0394 46.195 73.6841 48.0556L74.459 49.0365ZM79.5322 43.6429L80.6135 44.2701C81.8058 42.2146 82.4172 39.9377 82.8296 37.0117L81.5918 36.8373L80.354 36.6628C79.9631 39.4367 79.4143 41.355 78.451 43.0158L79.5322 43.6429ZM81.5918 36.8373L82.0403 35.6705L76.3167 33.4703L75.8682 34.6371L75.4197 35.8038L81.1433 38.004L81.5918 36.8373ZM60.8135 25.3148L60.7502 26.5632C64.6685 26.7617 67.7852 30.0028 67.7852 33.9711H69.0352H70.2852C70.2852 28.6645 66.118 24.332 60.8767 24.0664L60.8135 25.3148ZM69.0352 33.9711L67.7855 33.9409L67.7748 34.3862L69.0244 34.4164L70.2741 34.4465L70.2848 34.0012L69.0352 33.9711ZM69.0244 34.4164L67.776 34.3531C67.5775 38.2711 64.3363 41.3879 60.3681 41.3881L60.3682 42.6381L60.3682 43.8881C65.6745 43.8878 70.0073 39.7208 70.2728 34.4796L69.0244 34.4164ZM60.3682 42.6381L60.3982 41.3884L59.952 41.3777L59.9219 42.6273L59.8918 43.877L60.3381 43.8877L60.3682 42.6381ZM59.9219 42.6273L59.9851 41.3789C56.1939 41.1868 53.1524 38.1448 52.9603 34.3531L51.7119 34.4164L50.4635 34.4796C50.7206 39.5521 54.7858 43.6187 59.8586 43.8757L59.9219 42.6273ZM51.7119 34.4164L52.9615 34.3835L52.9498 33.9382L51.7002 33.9711L50.4506 34.004L50.4623 34.4493L51.7119 34.4164ZM51.7002 33.9711H52.9502C52.9502 29.8745 56.2716 26.5531 60.3682 26.5531L60.3682 25.3031L60.3682 24.0531C54.8909 24.0531 50.4502 28.4938 50.4502 33.9711H51.7002ZM60.3682 25.3031L60.3353 26.5527L60.7806 26.5644L60.8135 25.3148L60.8464 24.0653L60.401 24.0535L60.3682 25.3031ZM60.3682 25.5033L60.3682 24.2533C55.0014 24.2533 50.6504 28.6042 50.6504 33.9711H51.9004H53.1504C53.1504 29.985 56.3821 26.7533 60.3682 26.7533L60.3682 25.5033ZM51.9004 33.9711L50.6504 33.9711C50.6507 39.3378 55.0016 43.6878 60.3682 43.6879L60.3682 42.4379L60.3682 41.1879C56.3821 41.1878 53.1506 37.9568 53.1504 33.971L51.9004 33.9711ZM60.3682 42.4379L60.3682 43.6879C65.7346 43.6876 70.0846 39.3375 70.085 33.9711L68.835 33.9711L67.585 33.971C67.5847 37.9568 64.3539 41.1877 60.3681 41.1879L60.3682 42.4379ZM68.835 33.9711H70.085C70.085 28.6045 65.7349 24.2536 60.3682 24.2533L60.3682 25.5033L60.3681 26.7533C64.354 26.7535 67.585 29.985 67.585 33.9711H68.835ZM59.3916 13.0502L60.3007 12.1923C59.5331 11.3788 58.4105 10.6412 56.8919 10.8554L57.0664 12.0931L57.241 13.3309C57.6514 13.273 58.0194 13.4173 58.4825 13.9081L59.3916 13.0502ZM57.0664 12.0931L56.8917 10.8554C55.3516 11.0728 54.5294 12.1058 54.0702 13.1055L55.2061 13.6273L56.3419 14.1491C56.6014 13.5844 56.8559 13.3852 57.2411 13.3309L57.0664 12.0931ZM55.2061 13.6273L54.0701 13.1056C53.8469 13.5916 53.6917 14.1018 53.5686 14.5474L54.7734 14.8802L55.9783 15.2131C56.0921 14.8012 56.2049 14.4476 56.342 14.149L55.2061 13.6273ZM54.7734 14.8802L53.5686 14.5474C53.4351 15.0306 53.3518 15.3841 53.2421 15.7297L54.4336 16.1078L55.625 16.4859C55.7522 16.0853 55.8768 15.5805 55.9783 15.2131L54.7734 14.8802ZM54.4336 16.1078L53.2422 15.7296C52.7308 17.3407 51.8823 18.3782 50.644 19.7774L51.5801 20.6058L52.5162 21.4342C53.7734 20.0136 54.9418 18.6385 55.625 16.4859L54.4336 16.1078ZM51.5801 20.6058L52.247 21.663C54.5073 20.2371 57.1933 19.4096 60.0791 19.4095L60.0791 18.1595L60.0791 16.9095C56.7089 16.9096 53.5622 17.8774 50.9131 19.5486L51.5801 20.6058ZM60.0791 18.1595L60.0791 19.4095C61.6248 19.4095 63.1126 19.6474 64.5077 20.0863L64.8828 18.8939L65.258 17.7015C63.6233 17.1872 61.8826 16.9095 60.0791 16.9095L60.0791 18.1595ZM64.8828 18.8939L65.5787 17.8556C63.9958 16.7947 62.8656 15.9894 61.9611 14.5574L60.9043 15.225L59.8475 15.8925C61.0622 17.8157 62.605 18.8721 64.1869 19.9323L64.8828 18.8939ZM60.9043 15.225L61.9611 14.5574C61.5968 13.9806 61.0286 12.9636 60.3008 12.1923L59.3916 13.0502L58.4824 13.908C58.9923 14.4484 59.3692 15.1353 59.8475 15.8925L60.9043 15.225Z" fill="#0084D1"/>
</svg>
