<svg width="120" height="120" viewBox="0 0 120 120" fill="none" xmlns="http://www.w3.org/2000/svg">
<path d="M70.2471 106.28C68.4029 106.842 66.3449 106.984 64.251 106.998C65.5735 106.989 66.8818 106.93 68.1309 106.745C68.5472 106.683 68.9569 106.607 69.3584 106.516C69.6595 106.447 69.956 106.369 70.2471 106.28ZM62.9258 106.993C63.3664 106.999 63.807 107.001 64.2461 106.998C63.3662 107.004 62.4799 106.988 61.6006 106.97L62.9258 106.993ZM60.2734 106.942C59.8423 106.935 59.4141 106.931 58.9912 106.932C58.0934 106.932 57.2212 106.945 56.376 106.954C57.2211 106.945 58.0935 106.931 58.9912 106.931C59.4142 106.93 59.8422 106.935 60.2734 106.942ZM108.2 13.5175C109.455 13.4894 110.7 13.4634 111.812 13.7089C112.535 13.8683 113.16 14.1369 113.659 14.5712C114.154 15.0017 114.559 15.6225 114.798 16.5409C114.976 17.2237 115.066 18.2277 115.01 19.2284C114.953 20.2407 114.75 21.1666 114.402 21.7382L114.257 21.9764L114.383 22.2245C116.423 26.2411 117.834 31.8899 118.559 37.6356C119.282 43.3783 119.313 49.1661 118.624 53.4432C116.183 68.5878 106.745 81.509 94.4307 90.3798L93.4209 91.0858C88.3116 94.5852 82.3126 97.6136 76.4268 99.2811L76.166 99.3553L76.0859 99.6151C75.4561 101.651 74.5043 103.071 73.3486 104.069C72.1901 105.07 70.7968 105.673 69.2471 106.028C66.1082 106.747 62.4738 106.43 58.9912 106.431C57.1708 106.431 55.5098 106.487 53.9365 106.445C52.3741 106.404 50.957 106.265 49.6748 105.891C47.1594 105.156 45.0772 103.488 43.5176 99.577L43.4463 99.3983L43.2734 99.3143L42.8086 99.0927C41.7194 98.5889 40.5928 98.1705 39.4805 97.7665C38.2016 97.3019 36.9449 96.8563 35.7393 96.3114C6.95117 83.2999 -7.91209 51.6659 5.46387 22.205L5.56738 21.9784L5.44824 21.7596C4.5257 20.0619 4.41709 18.0841 5.05957 16.4999C5.6927 14.9393 7.06002 13.7377 9.1748 13.538L106.946 13.536L108.2 13.5175ZM71.3818 105.867C71.198 105.946 71.0115 106.02 70.8223 106.089C71.0115 106.02 71.198 105.946 71.3818 105.867ZM74.0449 104.107C73.8081 104.339 73.5614 104.551 73.3057 104.748C73.5614 104.551 73.8081 104.339 74.0449 104.107ZM111.559 23.3866L111.308 23.4325L107.852 23.9354C104.389 24.4318 100.911 24.8948 97.4551 25.1991L96.999 25.2391V28.2216H94.1787V25.576L93.6279 25.6327C75.0802 27.516 54.3167 28.0263 35.6846 26.4901H35.6855L29.6299 25.9344H29.6309C28.4726 25.8238 27.2336 25.6591 26.0215 25.6298L25.4912 25.6171L25.5098 26.1473C25.5343 26.8535 25.5473 27.5413 25.5273 28.2303C25.0704 28.2449 24.5949 28.2726 24.1543 28.287C23.6983 28.3018 23.2595 28.3044 22.8477 28.2733V25.3065L22.4688 25.2118C18.4634 24.2111 12.207 23.6395 8.05957 23.788L7.76367 23.7987L7.63086 24.0634C4.15601 30.9757 3.25192 39.4433 3.2832 46.9989L3.28516 47.4979L3.78418 47.4969C18.2235 47.4667 30.953 51.637 39.8418 63.2206C42.3961 66.7535 43.8688 69.7795 44.708 72.9354C45.5497 76.1012 45.7623 79.4257 45.7637 83.5731L45.7588 92.3739C45.7551 94.0869 45.7368 95.6592 45.8516 97.0331C45.9664 98.408 46.2182 99.6397 46.7852 100.664C47.9563 102.78 50.3368 103.793 54.7656 103.787L59.9775 103.776L63.2949 103.792C64.3235 103.796 65.2732 103.791 66.1377 103.751C67.8685 103.671 69.3493 103.451 70.541 102.849C73.0123 101.598 73.9956 98.848 73.9922 93.4403L73.9844 81.9481C73.9809 70.643 79.2479 61.8323 87.126 55.9413C95.0146 50.0425 105.525 47.0714 115.964 47.4969L116.484 47.5175V46.9969C116.491 38.2565 115.263 32.0252 112.286 23.8319L112.235 23.6923L112.116 23.6024L111.949 23.4774L111.773 23.3466L111.559 23.3866ZM74.9609 103.054C74.7688 103.315 74.5668 103.559 74.3564 103.788C74.6381 103.482 74.9038 103.147 75.1523 102.781L74.9609 103.054ZM46.8838 99.6815C47.1997 100.527 47.6731 101.233 48.3809 101.79L48.5479 101.916C48.4333 101.834 48.3242 101.748 48.2207 101.659C48.1689 101.614 48.1185 101.569 48.0693 101.522C47.9714 101.43 47.8787 101.334 47.791 101.234C47.7471 101.184 47.7046 101.134 47.6631 101.082C47.4974 100.876 47.3509 100.656 47.2217 100.423C47.1894 100.364 47.1581 100.305 47.1279 100.245C47.0374 100.065 46.9566 99.8774 46.8838 99.6825V99.6815ZM76.1201 100.98C76.0343 101.184 75.9459 101.381 75.8525 101.571C75.9459 101.381 76.0343 101.184 76.1201 100.98ZM72.3652 100.35C72.2923 100.49 72.216 100.622 72.1357 100.749C72.216 100.622 72.2923 100.49 72.3652 100.35ZM77.3467 99.5321C77.0855 99.6112 76.8243 99.6887 76.5635 99.7626C76.5226 99.8948 76.4801 100.025 76.4365 100.152C76.4801 100.025 76.5226 99.8947 76.5635 99.7626C76.8245 99.6886 77.0854 99.6112 77.3467 99.5321ZM46.2705 95.3934C46.2925 96.3266 46.3453 97.1851 46.4619 97.9647L46.5391 98.4227C46.4815 98.1239 46.4353 97.8123 46.3984 97.4882C46.3616 97.1637 46.3341 96.8266 46.3135 96.4774C46.2929 96.1282 46.2793 95.7668 46.2705 95.3934ZM81.75 97.9647C81.5244 98.0564 81.2994 98.1488 81.0732 98.2372C81.2994 98.1488 81.5244 98.0564 81.75 97.9647ZM31.5479 94.8026C32.1961 95.1501 32.8524 95.4877 33.5166 95.8153C33.9594 96.0337 34.4057 96.2475 34.8555 96.4569C35.0805 96.5617 35.3065 96.665 35.5332 96.7675C35.6169 96.8053 35.7011 96.8419 35.7852 96.8788C35.7012 96.842 35.6167 96.8062 35.5332 96.7684C34.1735 96.1539 32.8446 95.4977 31.5479 94.8026ZM34.6465 61.2899C26.6806 53.3099 15.1487 49.7888 4.09277 50.1581L3.58594 50.1757L3.61035 50.6815C3.75954 53.8907 4.83539 57.7863 5.82129 60.786L5.92676 61.1073L6.26465 61.1288C7.36568 61.1973 8.46651 61.1761 9.54297 61.1571C10.626 61.138 11.6864 61.1213 12.7422 61.1913C27.111 62.1452 38.2704 72.5852 39.1631 87.0878C39.2386 88.3157 39.232 89.5541 39.2148 90.8075C39.1977 92.0554 39.1698 93.3245 39.2061 94.5878L39.2158 94.9344L39.5449 95.0468C40.5128 95.3756 41.4229 95.6792 42.2871 96.1249L43.0166 96.5009V95.6805L43.0215 84.6298C43.0218 79.7535 42.8678 75.8421 41.7363 72.1874C40.5998 68.5165 38.4898 65.1405 34.6465 61.2899ZM115.991 50.1581C114.911 50.1443 113.795 50.1155 112.689 50.1581L112.664 50.16C110.066 50.3941 107.501 50.5846 104.889 51.0868C91.4083 53.6777 78.3212 63.3402 76.8369 77.9452C76.3571 82.6684 76.5047 90.8703 76.6992 95.701L76.7275 96.3925L77.375 96.1483C78.0987 95.8759 78.8038 95.5771 79.5039 95.2714L80.2363 95.0516L80.5918 94.9442V94.5721C80.5814 84.7234 80.7146 77.2027 88.2412 69.6503C94.9942 62.8747 104.102 60.5426 113.463 61.4169L113.861 61.454L113.985 61.0731C114.587 59.2244 114.964 57.4781 115.312 55.788C115.66 54.0918 115.978 52.4602 116.464 50.7987L116.649 50.1669L115.991 50.1581ZM40.9434 95.0067C41.1241 95.0732 41.3047 95.1398 41.4834 95.2118C41.3048 95.1398 41.1241 95.0732 40.9434 95.0067ZM88.7529 94.5741C88.532 94.6984 88.3106 94.8223 88.0879 94.9442C88.3106 94.8223 88.532 94.6984 88.7529 94.5741ZM39.7148 90.8143C39.7021 91.7552 39.6827 92.6963 39.6895 93.6356C39.6828 92.6964 39.702 91.7552 39.7148 90.8143ZM26.5371 91.8192C27.8743 92.6998 29.2538 93.5353 30.6729 94.3241C29.2538 93.5353 27.8743 92.6998 26.5371 91.8192ZM112.081 63.7782C110.66 63.8681 109.317 63.7826 107.84 63.7772H107.792L107.744 63.786C106.741 63.9772 105.741 64.1118 104.716 64.2675C103.698 64.422 102.666 64.596 101.635 64.8632C94.7539 66.6468 90.0391 70.3896 87.1084 75.3583C84.1856 80.314 83.0577 86.453 83.2646 93.0116L83.2871 93.7264L83.9512 93.4598C84.9842 93.0444 85.9624 92.4658 86.8809 91.952L86.8828 91.951C91.6165 89.2769 97.1297 85.1155 101.91 80.2762C106.685 75.4424 110.768 69.8929 112.587 64.4354L112.821 63.7313L112.081 63.7782ZM36.1045 83.9471C33.5276 70.2869 21.6316 63.2157 8.45117 63.7772L8.42578 63.7792C8.14521 63.8058 7.87884 63.8815 7.66504 64.0419C7.43802 64.2123 7.31323 64.4464 7.27148 64.6971C7.1977 65.1419 7.38664 65.6334 7.58301 66.0321C7.79291 66.4582 8.0822 66.9115 8.34766 67.3202C8.6222 67.7429 8.8656 68.1099 9.02246 68.4032C14.1898 78.068 22.282 85.893 31.7695 91.2518C33.0571 91.9791 34.2568 92.5416 35.3555 93.3915L35.5 93.5038L35.6836 93.495L35.9453 93.4833L36.1953 93.4725L36.3359 93.2655C36.4812 93.0519 36.5466 92.7457 36.585 92.4755C36.6271 92.1783 36.6498 91.8169 36.6592 91.4208C36.678 90.6258 36.6433 89.644 36.583 88.6581C36.4629 86.6922 36.2364 84.6477 36.1045 83.9471ZM92.207 92.4901C91.8965 92.6906 91.5834 92.8893 91.2676 93.0858C91.5834 92.8893 91.8965 92.6906 92.207 92.4901ZM87.0225 76.536C84.6261 81.0628 83.6386 86.5271 83.749 92.3885C83.6804 88.7503 84.0349 85.2652 84.8867 82.0624C84.934 81.8844 84.9828 81.7073 85.0332 81.5311C85.5373 79.7694 86.1961 78.097 87.0225 76.536ZM25.3408 91.0116L25.9365 91.4188C25.6197 91.205 25.3061 90.9873 24.9941 90.7684C25.1096 90.8494 25.2247 90.9313 25.3408 91.0116ZM77.0527 83.201C76.9943 85.7338 77.0122 88.4926 77.0625 91.0116C77.0121 88.4923 76.9943 85.7331 77.0527 83.2001V83.201ZM30.5117 89.9374C30.7589 90.0863 31.0066 90.2343 31.2559 90.3798C31.0066 90.2343 30.7589 90.0863 30.5117 89.9374ZM36.1084 89.1288C36.1238 89.4202 36.1372 89.7079 36.1465 89.9872C36.1372 89.7079 36.1238 89.4202 36.1084 89.1288ZM92.5918 87.6395C92.0037 88.0696 91.4179 88.4839 90.8369 88.8817C91.4179 88.4839 92.0037 88.0696 92.5918 87.6395ZM18.3428 85.3925C18.5382 85.574 18.7345 85.7551 18.9326 85.9344C18.7345 85.7551 18.5382 85.574 18.3428 85.3925ZM96.5957 84.494C96.2813 84.7587 95.9662 85.02 95.6504 85.2772C95.9662 85.02 96.2813 84.7587 96.5957 84.494ZM102.819 83.9471C102.601 84.1632 102.381 84.3776 102.159 84.5907C102.381 84.3776 102.601 84.1633 102.819 83.9471ZM35.6133 84.0399C35.6315 84.1365 35.6512 84.2616 35.6729 84.41C35.6512 84.2618 35.6314 84.1373 35.6133 84.0409C35.6067 84.006 35.5985 83.9713 35.5918 83.9364C35.5985 83.971 35.6067 84.0053 35.6133 84.0399ZM46.1875 79.8827C46.2205 80.5827 46.2415 81.3033 46.2529 82.0487L46.2637 83.5731C46.2632 82.2732 46.2424 81.0499 46.1875 79.8837V79.8827ZM77.1836 79.9032C77.163 80.2437 77.1453 80.5946 77.1289 80.954L77.085 82.0565C77.0975 81.6815 77.1115 81.3134 77.1279 80.954L77.1836 79.9032ZM34.374 79.6385C34.4706 79.8909 34.5643 80.1459 34.6533 80.4042C34.5643 80.1459 34.4706 79.8909 34.374 79.6385ZM77.8779 74.7323C77.6306 75.7907 77.4475 76.8794 77.334 77.9969L77.252 78.9139C77.277 78.5956 77.3042 78.2888 77.334 77.996C77.3567 77.7725 77.3819 77.5501 77.4102 77.329C77.4384 77.1078 77.4693 76.8877 77.5029 76.6688C77.6039 76.0123 77.7295 75.3664 77.8779 74.7313V74.7323ZM45.9834 77.1835C46.0069 77.4008 46.0287 77.6199 46.0488 77.8407L46.1045 78.5096C46.0708 78.0604 46.0304 77.6191 45.9834 77.1844V77.1835ZM109.419 76.2919H109.418H109.419ZM45.6084 74.6444C45.6873 75.0575 45.7582 75.4747 45.8203 75.8973L45.9072 76.536C45.8256 75.8933 45.7268 75.2642 45.6084 74.6444ZM32.4404 75.7157C32.5129 75.833 32.5827 75.9522 32.6533 76.0712C32.4859 75.7889 32.3147 75.5107 32.1367 75.2382L32.4404 75.7157ZM90.375 71.8192C89.77 72.4636 89.2102 73.1419 88.6943 73.8514C88.9006 73.5678 89.1137 73.289 89.334 73.0155C89.4443 72.8786 89.556 72.7426 89.6699 72.6083C89.7837 72.4741 89.8993 72.3414 90.0166 72.2098L90.375 71.8192ZM78.2051 73.4755L78.2061 73.4764L78.2051 73.4755ZM30.4648 72.9969V72.996V72.9969ZM113.915 69.0565C113.477 69.8962 113.018 70.7246 112.538 71.5409C113.018 70.7245 113.477 69.8962 113.915 69.0565ZM43.498 68.2714C44.1379 69.5936 44.6375 70.8889 45.0225 72.203V72.204C44.9048 71.8023 44.7763 71.4024 44.6367 71.0028C44.4972 70.6031 44.3467 70.2037 44.1836 69.8036C44.1021 69.6036 44.0174 69.4035 43.9297 69.203C43.7941 68.8932 43.6491 68.5835 43.498 68.2714ZM79.2812 70.4667C79.1143 70.8555 78.9569 71.2495 78.8086 71.6483L78.8076 71.6473C78.8818 71.4479 78.9582 71.2496 79.0371 71.0526C79.116 70.8556 79.1978 70.6602 79.2812 70.4657V70.4667ZM92.752 69.6503C92.1789 70.0975 91.6364 70.5688 91.123 71.0624C91.5079 70.6923 91.9088 70.3344 92.3271 69.9901L92.752 69.6503ZM79.8086 69.3143L79.8096 69.3153L79.8086 69.3143ZM108.895 64.2919C108.544 64.2846 108.192 64.2795 107.838 64.2782C105.807 64.6652 103.77 64.8273 101.76 65.3485C98.5915 66.1698 95.8977 67.4114 93.6348 68.9979C94.2382 68.5749 94.8715 68.1752 95.5371 67.8026C95.7034 67.7095 95.8717 67.618 96.042 67.5282C96.3827 67.3485 96.7312 67.1751 97.0879 67.0087C97.2662 66.9255 97.4466 66.8443 97.6289 66.7645C98.176 66.5251 98.7414 66.3016 99.3252 66.0936C99.5198 66.0243 99.7163 65.9563 99.915 65.8905C100.511 65.6932 101.126 65.5118 101.76 65.3475C103.77 64.8264 105.807 64.6642 107.838 64.2772C108.192 64.2785 108.544 64.2846 108.895 64.2919ZM29.4814 67.0477C29.8064 67.3093 30.1252 67.5778 30.4375 67.8534C30.1252 67.5779 29.8065 67.3093 29.4814 67.0477ZM82.0586 65.5302C81.6951 66.0431 81.3495 66.5686 81.0215 67.1053L81.0205 67.1044C81.1298 66.9256 81.2412 66.7483 81.3545 66.5721C81.5813 66.2195 81.8162 65.8722 82.0586 65.5302ZM19.4814 65.7411C19.8409 65.8601 20.1968 65.986 20.5488 66.119C20.1968 65.986 19.8409 65.8601 19.4814 65.7411ZM24.1689 63.6796C25.3142 64.2388 26.4132 64.869 27.46 65.5663C27.1112 65.3339 26.7567 65.1088 26.3965 64.8915C26.0362 64.674 25.6701 64.4647 25.2988 64.2626C24.9275 64.0604 24.5508 63.866 24.1689 63.6796ZM115.734 65.203H115.735H115.734ZM7.83008 64.5917V64.5927V64.5917ZM13.2656 64.4198C13.4615 64.4402 13.6569 64.4622 13.8516 64.4862L14.4336 64.5643C14.0467 64.5091 13.6573 64.4606 13.2656 64.4198ZM11.4893 64.285C11.6883 64.2946 11.8869 64.306 12.085 64.3192L12.6768 64.3641C12.4797 64.3473 12.2821 64.3324 12.084 64.3192L11.4893 64.285ZM112.112 64.2782C111.571 64.3124 111.037 64.3203 110.505 64.3182C110.682 64.3189 110.86 64.3196 111.038 64.3173C111.216 64.3149 111.394 64.3099 111.573 64.3036C111.752 64.2972 111.932 64.2886 112.112 64.2772V64.2782ZM108.93 64.2928C109.454 64.3038 109.976 64.3162 110.5 64.3182C109.976 64.3162 109.454 64.3038 108.93 64.2928ZM8.47266 64.2772L8.47168 64.2782L8.47266 64.2772ZM10.29 64.2489C10.089 64.2466 9.88745 64.2466 9.68555 64.2479C9.88745 64.2466 10.089 64.2466 10.29 64.2489ZM98.8027 53.2841C93.1464 55.3374 87.9135 58.6606 84.0146 63.0673C84.2933 62.7523 84.5782 62.4424 84.8701 62.1385C85.016 61.9868 85.1634 61.8364 85.3125 61.6874C87.5487 59.4523 90.1404 57.5348 92.9463 55.9618C93.3203 55.7521 93.6978 55.5478 94.0791 55.3505C95.4142 54.6595 96.792 54.0446 98.1982 53.5087L98.8027 53.2841ZM119.597 48.0936C119.539 50.0594 119.379 51.8969 119.117 53.5233C118.616 56.632 117.824 59.647 116.775 62.5526L116.774 62.5516C117.097 61.6575 117.396 60.7531 117.669 59.8387C117.805 59.3819 117.936 58.9226 118.06 58.4608C118.122 58.2297 118.182 57.9979 118.24 57.7655C118.592 56.3722 118.886 54.9571 119.117 53.5223C119.379 51.8958 119.539 50.0585 119.597 48.0927V48.0936ZM19.3564 61.8329C19.9854 62.0135 20.6049 62.2129 21.2139 62.4315L21.8193 62.6571C21.2174 62.4261 20.6048 62.2137 19.9824 62.0204L19.3564 61.8329ZM104.756 61.08C107.324 60.7228 109.962 60.6541 112.622 60.8456C111.145 60.7392 109.674 60.7134 108.218 60.7723C107.926 60.7841 107.636 60.7996 107.346 60.8182C106.476 60.8741 105.612 60.961 104.756 61.08ZM12.7754 60.6923C14.3727 60.7983 15.9318 61.0196 17.4424 61.3495L17.4414 61.3505C17.2256 61.3033 17.0088 61.2584 16.791 61.2157C15.7024 61.0023 14.5899 60.8442 13.457 60.745L12.7754 60.6923ZM38.0586 60.3026C38.2426 60.5054 38.4242 60.7117 38.6055 60.9198C38.4242 60.7117 38.2426 60.5054 38.0586 60.3026ZM114.821 55.6884C114.474 57.3767 114.102 59.0986 113.51 60.9188L113.509 60.9178C114.101 59.0978 114.474 57.3763 114.821 55.6884ZM11.1543 60.6405V60.6415V60.6405ZM36.6826 58.8612C36.9864 59.1639 37.287 59.4729 37.584 59.7889C37.287 59.4729 36.9864 59.1638 36.6826 58.8612ZM31.4385 54.4989C31.72 54.6928 32 54.8902 32.2773 55.0927C32 54.8902 31.72 54.6928 31.4385 54.4989ZM30.1914 53.6737C30.3547 53.7769 30.5167 53.8823 30.6787 53.9882C30.3413 53.7676 30.0013 53.5525 29.6582 53.3436L30.1914 53.6737ZM89.9414 53.4413C89.7833 53.5372 89.6272 53.6362 89.4707 53.7343C89.8936 53.4695 90.3208 53.2097 90.7549 52.9598L89.9414 53.4413ZM114.347 50.6376C113.8 50.6341 113.253 50.6381 112.709 50.6591C110.1 50.8942 107.565 51.0827 104.983 51.579C103.314 51.8998 101.653 52.3296 100.021 52.8641H100.021C100.225 52.7973 100.429 52.7314 100.634 52.6678C102.068 52.223 103.523 51.8587 104.983 51.578C107.565 51.0817 110.1 50.8932 112.709 50.6581C113.254 50.6371 113.8 50.6341 114.347 50.6376ZM12.3408 51.1151C13.3647 51.2646 14.3837 51.4489 15.3945 51.6688C14.7204 51.5222 14.0427 51.3915 13.3623 51.2762L12.3408 51.1151ZM7.19629 50.6581C8.22742 50.692 9.25909 50.7602 10.2881 50.8632C9.2591 50.7602 8.22741 50.692 7.19629 50.6581ZM19.332 48.9237C19.7382 49.0366 20.1417 49.1555 20.543 49.2792C20.3424 49.2174 20.1413 49.1566 19.9395 49.0975L19.332 48.9237ZM104.233 47.9364C103.594 48.0663 102.959 48.2089 102.328 48.3641C102.013 48.4417 101.699 48.5225 101.386 48.6063C100.759 48.7742 100.137 48.9545 99.5205 49.1473C101.062 48.6652 102.636 48.2611 104.233 47.9364ZM5.1416 47.0067C8.97634 47.0698 12.6907 47.4383 16.2422 48.1757C15.4064 48.0021 14.5613 47.8502 13.708 47.7167C13.0682 47.6165 12.4236 47.5276 11.7744 47.4491C10.9089 47.3445 10.0354 47.2588 9.1543 47.1913C8.71376 47.1575 8.27137 47.1282 7.82715 47.1034C7.38296 47.0786 6.93699 47.0579 6.48926 47.0419L5.1416 47.0067ZM114.996 46.9667C112.36 46.9127 109.724 47.0726 107.131 47.4384C109.724 47.0726 112.36 46.9127 114.996 46.9667ZM4.01367 40.4979C3.8781 42.207 3.80914 43.9082 3.78906 45.576L3.7832 46.9969C3.77443 44.8799 3.83942 42.696 4.01367 40.4989V40.4979ZM96.6855 46.6229C96.5397 46.7081 96.3765 46.7676 96.1982 46.7997C96.3765 46.7675 96.5397 46.7082 96.6855 46.6229ZM23.7725 46.7069C23.7925 46.7115 23.8127 46.7157 23.833 46.7196C23.8127 46.7157 23.7925 46.7115 23.7725 46.7069ZM97.1562 46.1874C97.0932 46.2763 97.023 46.3586 96.9443 46.4315C97.0229 46.3585 97.0933 46.2763 97.1562 46.1874ZM95.7334 42.2059C96.444 42.2785 96.9988 42.8801 96.999 43.6102V45.035C96.999 45.4329 96.8728 45.7646 96.6797 45.9862C96.4927 46.2005 96.2248 46.3347 95.873 46.327C94.9643 46.3067 94.1787 45.525 94.1787 44.6454V43.6102C94.1789 42.8311 94.8104 42.1991 95.5889 42.1991L95.7334 42.2059ZM26.0098 44.9227C26.0097 45.4756 25.7636 45.9699 25.376 46.3055C25.4533 46.2385 25.5266 46.1668 25.5918 46.0878C25.629 46.0428 25.6635 45.9956 25.6963 45.9471C25.861 45.7035 25.9687 45.4182 26 45.1102L26.0098 44.9227ZM24.3145 42.2059C24.9854 42.2741 25.5093 42.8413 25.5098 43.5302V44.9227L25.5029 45.0585C25.4348 45.7296 24.8677 46.2535 24.1787 46.2538C23.4434 46.2538 22.8469 45.6576 22.8467 44.9227V43.5302L22.8535 43.3944C22.922 42.7235 23.4894 42.1991 24.1787 42.1991L24.3145 42.2059ZM97.3838 45.7411H97.3848H97.3838ZM97.499 45.036C97.499 45.0986 97.4971 45.1606 97.4922 45.2216C97.4971 45.1604 97.499 45.0978 97.499 45.035V45.036ZM93.6777 43.6102C93.6777 43.4126 93.7089 43.2221 93.7646 43.0428C93.7089 43.2221 93.6788 43.4126 93.6787 43.6102V44.6454L93.6777 44.6464V43.6102ZM115.928 24.4589C118.1 29.9722 119.339 37.3623 119.579 44.0145H119.578C119.566 43.6642 119.55 43.3119 119.532 42.9579C119.405 40.4814 119.143 37.9236 118.749 35.4149C118.693 35.0564 118.634 34.6988 118.572 34.3427C118.017 31.1383 117.245 28.0463 116.263 25.3446L115.928 24.4589ZM26.0088 43.5214C26.0062 43.0194 25.8021 42.5656 25.4727 42.2362C25.8023 42.5655 26.0062 43.0193 26.0088 43.5214ZM97.3486 42.8671C97.397 42.9814 97.4355 43.101 97.4609 43.2255L97.4893 43.4149C97.4697 43.2224 97.4211 43.0384 97.3486 42.8671ZM96.4189 41.8915C96.5013 41.9313 96.581 41.9754 96.6562 42.0262C96.581 41.9754 96.5013 41.9314 96.4189 41.8915ZM7.17969 26.243C5.60532 30.0041 4.70059 34.1432 4.22656 38.2987L4.14648 39.0321C4.19635 38.5434 4.25168 38.0546 4.31348 37.5663C4.3444 37.322 4.37708 37.0778 4.41113 36.8339C4.47924 36.3459 4.55355 35.8587 4.63477 35.3729C4.67538 35.13 4.71768 34.8875 4.76172 34.6454C4.84974 34.1614 4.9446 33.6791 5.04688 33.1991C5.09806 32.9589 5.15116 32.7193 5.20605 32.4803C5.69986 30.3307 6.34606 28.2334 7.17969 26.2421V26.243ZM23.8096 37.663C23.9287 37.6873 24.0524 37.6991 24.1787 37.6991L24.1777 37.7001C24.0516 37.7 23.9285 37.6873 23.8096 37.663ZM96.4951 37.4677C96.2232 37.6155 95.9114 37.7 95.5801 37.7001C95.5141 37.7001 95.449 37.6958 95.3848 37.6893C95.449 37.6958 95.5142 37.6991 95.5801 37.6991C95.9114 37.699 96.2231 37.6155 96.4951 37.4677ZM24.8457 37.5721C24.7499 37.6097 24.6508 37.6409 24.5479 37.662C24.6507 37.6409 24.7499 37.6097 24.8457 37.5721ZM95.0127 37.6141C95.0603 37.6288 95.1091 37.6402 95.1582 37.6512C95.0474 37.6264 94.9397 37.5938 94.8369 37.5507L95.0127 37.6141ZM25.3428 37.2811C25.2525 37.3556 25.1553 37.4221 25.0518 37.4784C25.1553 37.4221 25.2525 37.3556 25.3428 37.2811ZM97.499 35.7811C97.4989 36.3108 97.2846 36.7904 96.9375 37.1376L96.8008 37.2616C96.8956 37.1833 96.9823 37.0957 97.0605 37.0009C97.0996 36.9535 97.1365 36.9044 97.1709 36.8534C97.3778 36.5471 97.499 36.1776 97.499 35.7802V35.7811ZM24.3145 33.2255C24.9855 33.2937 25.5094 33.8608 25.5098 34.5497V35.868C25.5098 36.603 24.9138 37.1988 24.1787 37.1991C23.4431 37.1991 22.8467 36.6029 22.8467 35.868V34.5497L22.8535 34.4139C22.9219 33.743 23.4893 33.2186 24.1787 33.2186L24.3145 33.2255ZM95.7012 33.2264C96.4298 33.3005 96.9986 33.9157 96.999 34.6639V35.7802L96.9912 35.9257C96.9184 36.641 96.3147 37.1989 95.5801 37.1991C94.8002 37.1991 94.164 36.5702 94.1553 35.7919C94.1508 35.3916 94.1474 34.992 94.1475 34.5936C94.1477 33.834 94.7725 33.2186 95.5537 33.2186L95.7012 33.2264ZM26.0098 35.869C26.0097 36.1851 25.9302 36.4826 25.7891 36.7421L25.7881 36.7411C25.8163 36.6892 25.842 36.6358 25.8652 36.5809C25.9579 36.3619 26.0098 36.1208 26.0098 35.868V35.869ZM22.3467 35.868C22.3467 35.9753 22.3583 36.0803 22.376 36.1825C22.3583 36.0805 22.3467 35.976 22.3467 35.869V35.868ZM97.498 34.6542C97.4973 34.5234 97.4843 34.3958 97.459 34.2723C97.433 34.1456 97.395 34.0235 97.3457 33.9071C97.282 33.7564 97.1984 33.6166 97.1006 33.4882C97.3477 33.8125 97.4957 34.2155 97.498 34.6542ZM26.0088 34.5409C26.0069 34.1651 25.8923 33.8162 25.6963 33.5262C25.8925 33.8161 26.0069 34.165 26.0088 34.5409ZM96.8301 33.1991C96.8767 33.2397 96.9213 33.2822 96.9639 33.327C96.9214 33.2822 96.8767 33.2397 96.8301 33.1991ZM95.7422 32.7284C96.0971 32.7625 96.423 32.8938 96.6963 33.0927C96.5769 33.0057 96.4484 32.9302 96.3105 32.8719C96.2524 32.8474 96.1927 32.8254 96.1318 32.8065C96.0069 32.7677 95.8765 32.7413 95.7422 32.7284ZM1.61816 31.6669C1.59675 31.7522 1.57566 31.8375 1.55469 31.9227C1.57566 31.8375 1.59675 31.7522 1.61816 31.6669ZM113.395 28.7264C113.693 29.714 113.966 30.6825 114.209 31.6434C113.966 30.6825 113.693 29.714 113.395 28.7264ZM2.21094 29.493C2.13369 29.755 2.05941 30.0172 1.98633 30.2792C2.05941 30.0172 2.13369 29.755 2.21094 29.493ZM15.2695 24.5673C17.8293 24.8144 20.3704 25.2031 22.3477 25.6971V28.7216C22.4258 28.733 22.5052 28.7394 22.585 28.7479C22.505 28.7394 22.4251 28.733 22.3467 28.7216V25.6981C20.3694 25.2042 17.829 24.8144 15.2695 24.5673ZM93.6787 28.7216H93.6777V26.1298L93.6787 28.7216ZM26.0293 26.7792C26.0444 27.4266 26.0446 28.0701 26.0098 28.7216C26.033 28.2872 26.0401 27.8564 26.0381 27.4257L26.0293 26.7792ZM29.583 26.4325L35.501 26.9755L29.583 26.4335C29.0194 26.3796 28.4519 26.315 27.8838 26.2587C28.4518 26.3148 29.0194 26.3787 29.583 26.4325ZM104.45 24.912C102.133 25.2196 99.811 25.4946 97.499 25.6981V25.6971C99.8111 25.4936 102.133 25.2193 104.45 24.912ZM111.816 24.0028C111.942 24.3482 112.061 24.6915 112.181 25.0302C112.061 24.6913 111.941 24.3484 111.815 24.0028L111.649 23.8788L111.401 23.9237L111.649 23.8778L111.816 24.0028ZM9.70703 24.2665C9.13668 24.2631 8.59034 24.2706 8.07715 24.2889L7.76367 24.9315C7.86578 24.7157 7.97016 24.5008 8.07715 24.288C8.59042 24.2696 9.13656 24.2631 9.70703 24.2665ZM110.183 16.0477C109.383 15.9003 108.439 15.9218 107.533 15.9735C106.601 16.0267 105.718 16.1102 104.942 16.1102H14.7793C14.0649 16.1067 12.6041 16.0096 11.2773 16.0565C10.6009 16.0804 9.91664 16.1417 9.32227 16.2772C8.74335 16.4092 8.171 16.6289 7.7959 17.0253C7.27732 17.5737 7.16658 18.3314 7.27539 18.9921C7.38423 19.6517 7.72554 20.3119 8.24805 20.7206C8.53237 20.9428 8.93234 21.0543 9.30371 21.12C9.69312 21.1889 10.1354 21.2213 10.5664 21.2362C10.9995 21.2512 11.4369 21.2494 11.8164 21.2469C12.2046 21.2444 12.5182 21.241 12.7305 21.2518C16.2116 21.4291 19.7613 21.8873 23.3418 22.3788C26.9157 22.8694 30.5249 23.394 34.0947 23.6981C56.7825 25.6307 79.7678 25.0909 102.324 21.9413L102.325 21.9423C103.024 21.8507 105.156 21.6053 107.247 21.3378C108.282 21.2053 109.297 21.0692 110.092 20.9462C110.488 20.8848 110.835 20.8261 111.104 20.7723C111.237 20.7456 111.358 20.7184 111.457 20.6923C111.545 20.6691 111.656 20.6369 111.745 20.5907L111.918 20.5009L111.985 20.3173C112.448 19.0486 112.514 18.047 112.136 17.2987C111.748 16.5323 110.979 16.1946 110.183 16.0477ZM11.4834 24.3085V24.3075V24.3085ZM4.69727 22.6962C4.56007 23.009 4.42684 23.3224 4.2959 23.6356C4.42696 23.3221 4.55994 23.0083 4.69727 22.6952V22.6962ZM115.174 16.0526C115.212 16.169 115.249 16.2896 115.281 16.4149C115.657 17.8563 115.653 20.4744 114.904 21.8671L114.829 21.9979C114.983 21.7443 115.109 21.4419 115.209 21.1083C115.242 20.997 115.273 20.8822 115.301 20.7645C115.635 19.3527 115.572 17.5309 115.281 16.4149C115.249 16.2896 115.212 16.169 115.174 16.0526ZM23.0508 21.8348C23.2789 21.866 23.5072 21.8962 23.7354 21.9276C23.5072 21.8962 23.2789 21.866 23.0508 21.8348ZM17.9131 21.1854C18.4601 21.246 19.008 21.3106 19.5566 21.3778C19.008 21.3106 18.4601 21.246 17.9131 21.1854ZM9.66797 20.6698C9.95482 20.7058 10.2677 20.7262 10.584 20.7372C10.2677 20.7262 9.95483 20.7058 9.66797 20.6698ZM7.74316 18.701C7.77369 19.109 7.91397 19.5187 8.13184 19.8544C7.91369 19.5184 7.77362 19.1084 7.74316 18.7001V18.701ZM7.78711 18.0809C7.77165 18.1472 7.76021 18.2147 7.75195 18.2831L7.7373 18.4901C7.73866 18.4205 7.74274 18.3514 7.75098 18.2831L7.78711 18.0809ZM8.26953 17.2665C8.2301 17.2994 8.19311 17.3341 8.15918 17.37C8.06455 17.4701 7.98735 17.5816 7.92578 17.701L7.84473 17.8856C7.91369 17.6954 8.01707 17.5193 8.15918 17.369L8.26953 17.2665ZM9.04004 16.8719C8.85413 16.932 8.68532 17.0036 8.53711 17.0858L8.53613 17.0848C8.58554 17.0574 8.63749 17.0316 8.69141 17.0067C8.79935 16.957 8.91596 16.912 9.04004 16.8719ZM13.2705 16.5663C13.8673 16.5852 14.3962 16.6093 14.7773 16.6112L104.942 16.6102L14.7773 16.6122C14.3961 16.6103 13.8673 16.5852 13.2705 16.5663ZM13.2227 16.5643C12.9245 16.5551 12.61 16.5483 12.2891 16.5458H11.793C12.2842 16.5404 12.772 16.5504 13.2227 16.5643ZM112.762 13.4706C113.569 13.7821 114.263 14.2918 114.754 15.1171L114.91 15.4042C114.762 15.1054 114.59 14.8433 114.397 14.6132C114.333 14.5363 114.267 14.4633 114.198 14.3934C113.787 13.9748 113.3 13.6784 112.762 13.4706ZM111.625 13.162H111.626H111.625Z" fill="#0084D1"/>
</svg>
