<svg width="120" height="120" viewBox="0 0 120 120" fill="none" xmlns="http://www.w3.org/2000/svg">
<path d="M53.2197 4.50867C55.1986 4.50719 56.6812 4.47065 57.8115 4.55652C58.9516 4.64315 59.587 4.8488 59.9629 5.21375C60.3284 5.56879 60.5525 6.17977 60.5762 7.36902C60.5997 8.55041 60.4253 10.184 60.1191 12.4628L60.1182 12.4667L49.7168 95.829V95.8319C49.5761 97.0176 49.4291 97.8122 49.1094 98.4901C48.7961 99.1543 48.296 99.7473 47.374 100.474L47.1836 100.624V105.846C47.2019 108.393 47.2291 110.804 46.4883 112.597C46.1269 113.471 45.5884 114.177 44.7822 114.675C43.9701 115.176 42.8441 115.489 41.2676 115.499L29.0391 115.498C26.6799 115.496 24.7982 115.51 23.2822 115.385C21.7637 115.259 20.6887 114.997 19.9121 114.496C19.1583 114.009 18.6276 113.258 18.2832 112.016C17.934 110.757 17.7864 109.028 17.7871 106.639L17.793 100.867L17.7939 100.647L17.6318 100.498C15.3161 98.3725 15.2907 96.2232 14.9238 93.0311V93.0272L4.96875 12.2245C4.8593 11.3324 4.72155 10.5458 4.62695 9.68542C4.53595 8.85761 4.50305 8.08739 4.60742 7.39929C4.7108 6.71837 4.94626 6.13297 5.38184 5.65417C5.81097 5.18249 6.46976 4.77673 7.4873 4.50281L53.2188 4.50867H53.2197ZM19.9854 115.115C20.0793 115.164 20.1765 115.209 20.2764 115.253C20.1765 115.209 20.0793 115.164 19.9854 115.115ZM106.565 113.28C106.158 113.293 105.75 113.301 105.346 113.3C105.75 113.301 106.158 113.293 106.565 113.28ZM69.8809 113.285C70.3781 113.291 70.897 113.294 71.4385 113.294C70.897 113.294 70.3781 113.291 69.8809 113.285ZM100.056 25.1825C100.657 25.2103 101.21 25.5558 101.75 26.1053C102.312 26.6775 102.777 27.3817 103.229 27.9999C104.963 30.3681 105.524 32.3366 105.175 34.0702C104.823 35.8155 103.521 37.462 101.21 39.118L100.949 39.3046L101.011 39.62C101.445 41.8528 101.742 43.9747 101.805 46.2323L101.818 46.7274L102.312 46.7186C103.32 46.7022 104.016 46.7421 104.503 46.8534C104.975 46.9614 105.197 47.1241 105.33 47.3202C105.479 47.5408 105.572 47.8849 105.613 48.4745C105.654 49.0607 105.64 49.7965 105.638 50.7645L105.626 55.288L105.625 55.6307L105.943 55.7548C108.76 56.8557 111.184 59.1524 112.909 61.9667C114.526 64.6043 115.506 67.663 115.628 70.5419L115.641 71.1151V102.402C115.641 103.985 115.768 105.578 115.463 107.006C114.912 109.588 113.503 111.013 111.701 111.814C109.864 112.631 107.595 112.808 105.348 112.8H105.346L79.4375 112.791L71.4697 112.795C68.5618 112.795 66.3427 112.727 64.6377 112.433C62.9391 112.141 61.8122 111.635 61.0332 110.812C60.2503 109.985 59.7536 108.769 59.4619 106.919C59.17 105.067 59.0922 102.645 59.0938 99.4589L59.0928 76.3651C59.0913 71.7169 59.2915 67.7521 60.6689 64.3524C62.034 60.9836 64.578 58.1216 69.373 55.7372L69.6504 55.5995V55.2889C69.6504 53.1411 69.5936 51.0719 69.6064 48.9452C69.6106 48.2609 69.7092 47.8058 69.8545 47.5018C69.9923 47.214 70.1818 47.0403 70.4297 46.9247C70.6947 46.8012 71.0462 46.7357 71.5088 46.7108C71.9712 46.686 72.4973 46.703 73.1074 46.7186L73.6221 46.7323L73.6201 46.2167C73.6026 42.6225 73.6283 39.8995 75.4961 36.8407C77.0575 34.2837 78.7979 33.1906 80.748 32.6454C81.7394 32.3683 82.7966 32.2303 83.9395 32.1249C85.0661 32.021 86.3084 31.9475 87.583 31.7987C91.8503 31.3005 94.3047 29.7756 96.0703 28.2782C96.5068 27.908 96.9002 27.5412 97.2617 27.1991C97.6264 26.854 97.9543 26.5397 98.2754 26.2587C98.8985 25.7134 99.4462 25.3426 100.056 25.1825ZM20.8604 100.866L20.8057 101.305C20.6992 102.162 20.6642 103.96 20.6689 105.728C20.6737 107.506 20.7188 109.305 20.7783 110.182C20.8313 110.961 21.0972 111.554 21.5596 111.969C22.009 112.371 22.5874 112.552 23.166 112.633C23.7453 112.713 24.3786 112.699 24.9814 112.67C25.6024 112.639 26.1791 112.594 26.7178 112.595H26.7188L38.9648 112.594L39.4883 112.605C39.6673 112.612 39.852 112.622 40.0439 112.631C40.4212 112.647 40.8208 112.66 41.2178 112.643C42.0096 112.61 42.8498 112.455 43.5645 111.908L43.5967 111.884L43.624 111.855C43.8112 111.658 44.0325 111.433 44.2285 111.19L44.333 111.06L44.3389 110.893C44.4429 107.726 44.3367 104.503 44.3389 101.366V100.866H20.8604ZM24.4014 112.189C24.3175 112.191 24.2341 112.192 24.1514 112.192C24.2341 112.192 24.3175 112.191 24.4014 112.189ZM23.9531 112.188C23.8722 112.187 23.7921 112.184 23.7129 112.18C23.7921 112.184 23.8722 112.187 23.9531 112.188ZM24.7559 112.179C24.687 112.181 24.6183 112.184 24.5498 112.186C24.6183 112.184 24.687 112.181 24.7559 112.179ZM23.4326 112.16C23.383 112.155 23.3338 112.15 23.2852 112.143C23.3338 112.15 23.383 112.155 23.4326 112.16ZM41.0859 112.146C41.045 112.148 41.004 112.149 40.9629 112.149C41.004 112.149 41.045 112.147 41.0859 112.146ZM40.5596 112.146C40.4651 112.144 40.3707 112.141 40.2764 112.138C40.3707 112.141 40.4651 112.144 40.5596 112.146ZM26.2939 112.102C26.0108 112.112 25.7188 112.128 25.4248 112.144C25.5691 112.136 25.713 112.129 25.8555 112.122L26.2939 112.102ZM41.7393 112.097C41.5697 112.12 41.3975 112.134 41.2236 112.142C41.3975 112.134 41.5697 112.12 41.7393 112.097ZM23.0391 112.106C22.976 112.095 22.9143 112.08 22.8535 112.065C22.9143 112.08 22.976 112.095 23.0391 112.106ZM41.9824 112.057C41.9214 112.068 41.8597 112.078 41.7979 112.087C41.8597 112.078 41.9214 112.068 41.9824 112.057ZM22.7959 112.051C22.7564 112.04 22.7172 112.03 22.6787 112.018C22.7172 112.03 22.7564 112.04 22.7959 112.051ZM42.2314 112C42.1897 112.011 42.1477 112.021 42.1055 112.03C42.1477 112.021 42.1897 112.011 42.2314 112ZM22.6104 111.995C22.5772 111.984 22.544 111.974 22.5117 111.962C22.544 111.974 22.5772 111.984 22.6104 111.995ZM42.499 111.917C42.4458 111.936 42.3922 111.953 42.3379 111.97C42.3922 111.953 42.4458 111.936 42.499 111.917ZM22.4346 111.93C22.4066 111.918 22.3788 111.906 22.3516 111.893C22.3788 111.906 22.4066 111.918 22.4346 111.93ZM42.7363 111.82C42.6815 111.845 42.6264 111.869 42.5703 111.891C42.6265 111.869 42.6815 111.845 42.7363 111.82ZM22.2832 111.859C22.2545 111.845 22.226 111.83 22.1982 111.814C22.226 111.83 22.2545 111.845 22.2832 111.859ZM42.9609 111.706C42.9141 111.733 42.8673 111.758 42.8193 111.782C42.8673 111.758 42.9141 111.733 42.9609 111.706ZM22.1221 111.767C22.101 111.754 22.08 111.741 22.0596 111.726C22.08 111.741 22.101 111.754 22.1221 111.767ZM21.9922 111.677C21.9667 111.657 21.9414 111.637 21.917 111.616C21.9414 111.637 21.9667 111.657 21.9922 111.677ZM43.2607 111.511C43.1914 111.564 43.1194 111.611 43.0469 111.656C43.1194 111.611 43.1914 111.564 43.2607 111.511ZM21.8682 111.571C21.8438 111.548 21.8199 111.525 21.7969 111.501C21.8199 111.525 21.8438 111.548 21.8682 111.571ZM21.75 111.449C21.7252 111.421 21.7018 111.391 21.6787 111.36C21.7018 111.391 21.7252 111.421 21.75 111.449ZM21.6436 111.313C21.6237 111.285 21.6053 111.256 21.5869 111.225C21.6053 111.256 21.6237 111.285 21.6436 111.313ZM21.5449 111.155C21.5282 111.125 21.5134 111.093 21.498 111.06C21.5134 111.093 21.5282 111.125 21.5449 111.155ZM21.4648 110.988C21.4495 110.952 21.4355 110.915 21.4219 110.877C21.4355 110.915 21.4495 110.952 21.4648 110.988ZM21.3955 110.804C21.3843 110.768 21.375 110.732 21.3652 110.695C21.375 110.732 21.3843 110.768 21.3955 110.804ZM21.3408 110.6C21.3263 110.535 21.3139 110.468 21.3037 110.397C21.3139 110.468 21.3263 110.535 21.3408 110.6ZM112.313 70.0624C111.664 70.0595 110.982 70.0442 110.311 70.0624H61.8945V70.5624L61.8906 101.816C61.8895 103.16 61.7583 104.728 62.0215 106.093C62.2964 107.517 63.0082 108.801 64.6943 109.617L64.7256 109.633L64.7598 109.643C65.2525 109.801 65.9768 109.888 66.7754 109.939C67.587 109.991 68.5223 110.008 69.4619 110.007C70.4026 110.006 71.3554 109.988 72.2021 109.97C73.0519 109.951 73.7896 109.934 74.3125 109.933L100.462 109.934C102.747 109.936 105.136 110.028 107.46 109.897C108.84 109.82 109.901 109.522 110.703 109.017C111.514 108.507 112.024 107.808 112.337 107C112.645 106.204 112.763 105.304 112.807 104.379C112.828 103.918 112.832 103.437 112.83 102.95L112.819 101.48L112.812 70.5614L112.811 70.0643L112.313 70.0624ZM106.555 109.436C106.019 109.455 105.482 109.462 104.944 109.465C105.482 109.462 106.019 109.455 106.555 109.436ZM100.462 109.434C101.537 109.435 102.622 109.454 103.707 109.462C102.622 109.453 101.537 109.435 100.462 109.434L74.3125 109.433H74.3135L100.462 109.434ZM64.9121 109.167C64.821 109.123 64.7333 109.077 64.6484 109.03C64.7333 109.077 64.821 109.123 64.9121 109.167ZM64.5791 108.989C64.5242 108.958 64.4703 108.926 64.418 108.893C64.4703 108.926 64.5242 108.958 64.5791 108.989ZM64.3086 108.822C64.2696 108.796 64.2309 108.771 64.1934 108.744C64.2309 108.771 64.2696 108.796 64.3086 108.822ZM64.0996 108.676C64.0501 108.638 64.0019 108.601 63.9551 108.562C64.0019 108.601 64.0501 108.638 64.0996 108.676ZM33.3545 108.644C33.1754 108.656 32.9968 108.663 32.8193 108.67C33.0042 108.662 33.1903 108.655 33.377 108.642L33.3545 108.644ZM63.9092 108.524C63.8649 108.487 63.8222 108.449 63.7803 108.41C63.8222 108.449 63.8649 108.487 63.9092 108.524ZM63.708 108.343C63.67 108.306 63.6336 108.268 63.5977 108.23C63.6336 108.268 63.67 108.306 63.708 108.343ZM31.5996 105.19C32.3417 105.164 34.2343 105.163 36.0557 105.263C36.9701 105.313 37.8552 105.387 38.5625 105.495C38.9167 105.549 39.2163 105.609 39.4473 105.676C39.6934 105.746 39.8053 105.809 39.8369 105.835C40.1842 106.124 40.2964 106.326 40.3242 106.434C40.3418 106.504 40.3369 106.569 40.2461 106.674C40.1379 106.798 39.9332 106.942 39.6133 107.086C39.3006 107.227 38.9146 107.353 38.4844 107.464C36.7516 107.91 34.5121 108.057 34.0479 108.083L34.0361 108.084L34.0234 108.085C32.1382 108.282 30.2987 108.185 28.792 107.919C27.2589 107.648 26.1528 107.218 25.665 106.811C25.5498 106.715 25.4916 106.639 25.4658 106.589C25.4541 106.566 25.4503 106.551 25.4492 106.545C25.4484 106.54 25.4487 106.537 25.4492 106.534C25.4528 106.518 25.5092 106.362 25.9434 106.15C26.7875 105.738 28.5521 105.361 31.6006 105.191L31.5996 105.19ZM63.249 107.81C63.3378 107.935 63.4352 108.056 63.542 108.173C63.4352 108.056 63.3378 107.935 63.249 107.81ZM63.1904 107.724C63.1653 107.686 63.1398 107.649 63.1162 107.611C63.1398 107.649 63.1653 107.686 63.1904 107.724ZM63.0742 107.541C63.0465 107.494 63.0198 107.447 62.9941 107.399C63.0198 107.447 63.0465 107.494 63.0742 107.541ZM25.5918 107.376C25.6077 107.386 25.6242 107.396 25.6406 107.406C25.6256 107.397 25.6103 107.388 25.5957 107.379L25.5918 107.376ZM62.9658 107.346C62.939 107.294 62.9132 107.242 62.8887 107.189C62.9132 107.242 62.939 107.294 62.9658 107.346ZM25.3486 107.199L25.4629 107.288C25.4062 107.247 25.3545 107.204 25.3066 107.162C25.3205 107.174 25.334 107.187 25.3486 107.199ZM62.8604 107.128C62.8362 107.074 62.813 107.02 62.791 106.965C62.813 107.02 62.8362 107.074 62.8604 107.128ZM62.7725 106.919C62.7497 106.86 62.7284 106.801 62.708 106.741C62.7284 106.801 62.7497 106.86 62.7725 106.919ZM62.6934 106.697C62.6693 106.625 62.6468 106.551 62.626 106.477C62.6468 106.551 62.6693 106.625 62.6934 106.697ZM62.458 105.671C62.453 105.636 62.4489 105.602 62.4443 105.567C62.4489 105.602 62.453 105.636 62.458 105.671ZM26.418 105.431C26.2745 105.476 26.1426 105.523 26.0215 105.571C26.1426 105.523 26.2745 105.476 26.418 105.431ZM62.4238 105.381C62.4126 105.277 62.4024 105.172 62.3945 105.066C62.4024 105.172 62.4126 105.277 62.4238 105.381ZM27.2402 105.212C27.0544 105.253 26.8812 105.297 26.7197 105.342C26.8812 105.297 27.0544 105.253 27.2402 105.212ZM30.4834 104.766C29.89 104.813 29.3508 104.871 28.8623 104.935C29.6347 104.834 30.5344 104.749 31.5732 104.691L30.4834 104.766ZM62.3818 104.884C62.3746 104.759 62.3699 104.634 62.3662 104.509C62.3699 104.634 62.3746 104.759 62.3818 104.884ZM62.3633 104.412C62.3602 104.279 62.3576 104.145 62.3574 104.011C62.3576 104.145 62.3602 104.279 62.3633 104.412ZM113.336 61.7059C115.102 64.5884 116.135 67.9694 116.142 71.1141L116.141 102.402V71.1141C116.134 68.1659 115.227 65.0099 113.658 62.2518L113.336 61.7059ZM62.3916 101.816C62.3911 102.512 62.3591 103.222 62.3574 103.92C62.3582 103.575 62.366 103.228 62.374 102.881L62.3906 101.816L62.3945 70.5624L62.3916 101.816ZM10.0039 25.1649L9.97168 25.6298C9.78836 28.2162 10.3983 31.1587 10.6865 33.6259V33.6278L17.5195 90.1503C17.5574 90.463 17.5971 90.9966 17.6484 91.6591C17.6991 92.3134 17.7607 93.0798 17.8428 93.8358C17.9247 94.5896 18.0284 95.3463 18.165 95.9794C18.2333 96.2957 18.3121 96.5916 18.4043 96.8456C18.4936 97.0915 18.6085 97.3365 18.7666 97.5214C18.8664 97.6379 18.9952 97.6917 19.0547 97.7147C19.131 97.7442 19.2151 97.7665 19.2959 97.7841C19.4592 97.8196 19.6666 97.848 19.9014 97.8719C20.3745 97.9202 21.0142 97.9546 21.7598 97.9794C23.2542 98.0289 25.213 98.0399 27.2051 98.0321C31.223 98.0163 35.3044 97.9268 36.2109 97.9266H42.3828C43.3225 97.927 44.411 97.9982 45.418 97.9227L45.6074 97.9081L45.7393 97.7723C46.2141 97.2825 46.531 96.6362 46.751 95.9442C46.9718 95.2496 47.1056 94.4766 47.1963 93.7059C47.287 92.9345 47.3358 92.1459 47.3818 91.4227C47.4284 90.6917 47.471 90.0349 47.5469 89.496L47.5479 89.4882L54.3721 34.6376L54.373 34.6385C54.7703 31.7022 55.2548 28.693 55.4766 25.702L55.5166 25.1649H10.0039ZM29.6289 72.7362C28.9303 72.9338 28.2217 73.109 27.5049 73.2557C26.7865 73.284 26.1485 73.3004 25.582 73.3026C26.1482 73.3004 26.7859 73.2839 27.5039 73.2557C28.221 73.109 28.9299 72.9339 29.6289 72.7362ZM23.6777 73.2225C23.9314 73.2517 24.2102 73.2719 24.5166 73.285C24.368 73.2787 24.2258 73.2716 24.0898 73.2616L23.6777 73.2225ZM38.4189 42.1327C39.286 42.0707 40.5768 41.9119 41.7354 42.0302C42.9307 42.1522 43.6699 42.5333 43.8428 43.2889C43.9236 43.6428 43.9814 44.4864 44.0146 45.6434C44.0472 46.7791 44.0553 48.1649 44.0479 49.5634C44.033 52.3623 43.9587 55.1964 43.9092 56.1659C43.4309 65.5329 36.0632 70.9805 27.4414 72.7567C25.5452 72.8303 24.2629 72.8241 23.3887 72.6776C22.5234 72.5326 22.1678 72.2706 21.9775 71.9208C21.7542 71.5097 21.6879 70.8657 21.7051 69.7723C21.7214 68.7363 21.8112 67.2896 21.8076 65.5272C21.7947 59.1255 21.4 54.2073 25.5 48.9989C28.8673 44.722 33.0772 42.786 38.4189 42.1327ZM21.5068 72.0907C21.5219 72.1213 21.5353 72.1523 21.5518 72.1815C21.5353 72.1523 21.5219 72.1213 21.5068 72.0907ZM40.5938 45.0175C39.888 44.9959 39.0996 44.945 38.3301 45.0194L38.3232 45.0204C33.1666 45.5957 29.7184 47.7908 27.5781 51.0507C25.4539 54.2867 24.6559 58.5142 24.6553 63.0975L24.6582 69.4178V69.9218L25.1631 69.9178C25.9453 69.9105 26.7207 69.9048 27.4951 69.9178L27.585 69.9188L27.6689 69.8895C28.2442 69.6888 28.8328 69.524 29.4404 69.3485C30.0423 69.1747 30.6606 68.9906 31.2666 68.7587C35.3304 67.2029 37.8088 64.9112 39.2549 62.0243C40.6003 59.3378 41.0289 56.1795 41.0781 52.7225L41.084 52.0272L41.0791 45.5165L41.0781 45.0321L40.5938 45.0175ZM29.1641 68.9081C28.6076 69.0684 28.0504 69.2272 27.5039 69.4178L26.3311 69.41C25.9404 69.4108 25.5492 69.4142 25.1582 69.4178V69.4169C25.9406 69.4096 26.7229 69.4037 27.5049 69.4169C28.051 69.2264 28.608 69.0681 29.1641 68.9081ZM31.8066 68.0009C31.7113 68.0414 31.614 68.0793 31.5166 68.119C31.614 68.0793 31.7113 68.0414 31.8066 68.0009ZM32.4863 67.6962C32.3221 67.7736 32.1541 67.8482 31.9834 67.9227C32.1541 67.8482 32.3221 67.7736 32.4863 67.6962ZM33.1191 67.3837C33.0034 67.4439 32.8848 67.5008 32.7656 67.5594C32.8848 67.5008 33.0034 67.4439 33.1191 67.3837ZM102.187 58.0956C101.582 58.1103 100.924 58.1423 100.097 58.1425L71.0879 58.1473H71.0088L70.9336 58.1718C69.1524 58.75 67.4895 60.0228 66.1152 61.5331C64.7376 63.0472 63.6179 64.8352 62.9355 66.494L62.6514 67.1835H112.375L112.099 66.4969C111.012 63.7963 109.501 61.8503 107.293 59.9999C105.903 58.8351 104.936 58.3379 103.848 58.1669C103.32 58.0839 102.781 58.0811 102.187 58.0956ZM33.7188 67.0555C33.7009 67.0658 33.6829 67.0756 33.665 67.0858C33.6829 67.0756 33.7009 67.0658 33.7188 67.0555ZM34.2832 66.7147C34.2689 66.7238 34.2546 66.733 34.2402 66.7421C34.2546 66.733 34.2689 66.7238 34.2832 66.7147ZM67.2637 61.0721C65.5675 62.686 64.1816 64.7798 63.3984 66.6835H63.3975C64.0569 65.0803 65.1444 63.3426 66.4844 61.87C66.5682 61.7779 66.6526 61.6865 66.7383 61.5966C66.9096 61.4168 67.0851 61.242 67.2637 61.0721ZM34.8369 66.3475C34.8145 66.3632 34.7921 66.3789 34.7695 66.3944C34.7921 66.3789 34.8145 66.3632 34.8369 66.3475ZM35.3311 65.9862C35.3191 65.9954 35.307 66.0044 35.2949 66.0135C35.307 66.0044 35.3191 65.9954 35.3311 65.9862ZM35.8076 65.6034C35.7998 65.6099 35.792 65.6164 35.7842 65.6229C35.792 65.6164 35.7998 65.6099 35.8076 65.6034ZM111.024 65.3387C111.045 65.3789 111.065 65.4194 111.085 65.4598C111.065 65.4194 111.045 65.3789 111.024 65.3387ZM110.8 64.9139C110.825 64.9602 110.85 65.0069 110.875 65.0536C110.85 65.0069 110.825 64.9602 110.8 64.9139ZM110.561 64.495C110.589 64.5422 110.616 64.5899 110.644 64.6376C110.616 64.5899 110.589 64.5422 110.561 64.495ZM37.0908 64.3524C37.08 64.3647 37.0685 64.3763 37.0576 64.3885C37.0685 64.3763 37.08 64.3647 37.0908 64.3524ZM110.326 64.1132C110.35 64.151 110.374 64.1893 110.397 64.2274C110.374 64.1893 110.35 64.151 110.326 64.1132ZM37.498 63.8612C37.4425 63.9315 37.3856 64.0009 37.3281 64.0702C37.3856 64.0008 37.4425 63.9315 37.498 63.8612ZM110.065 63.7206C110.1 63.7708 110.134 63.8212 110.168 63.8719C110.134 63.8212 110.1 63.7708 110.065 63.7206ZM37.8506 63.3915C37.7973 63.4663 37.7427 63.5403 37.6875 63.6141C37.7427 63.5403 37.7973 63.4663 37.8506 63.3915ZM109.79 63.3309C109.835 63.3916 109.878 63.4531 109.922 63.5145C109.878 63.4531 109.835 63.3916 109.79 63.3309ZM38.166 62.9257C38.1187 62.9994 38.0705 63.0726 38.0215 63.1454C38.0705 63.0726 38.1187 62.9994 38.166 62.9257ZM109.52 62.9755C109.555 63.0213 109.592 63.0669 109.627 63.1132C109.592 63.0669 109.555 63.0213 109.52 62.9755ZM109.171 62.5468C109.237 62.6244 109.301 62.7024 109.365 62.7811C109.301 62.7024 109.237 62.6244 109.171 62.5468ZM38.4658 62.4335C38.4212 62.511 38.3745 62.5874 38.3281 62.6639C38.3745 62.5873 38.4212 62.511 38.4658 62.4335ZM108.875 62.2069C108.941 62.2807 109.007 62.3549 109.071 62.4296C109.007 62.3549 108.941 62.2807 108.875 62.2069ZM38.7441 61.9208C38.7048 61.9973 38.665 62.0736 38.624 62.1493C38.665 62.0736 38.7048 61.9973 38.7441 61.9208ZM108.516 61.8202C108.595 61.9035 108.674 61.9869 108.752 62.0712C108.674 61.9869 108.595 61.9035 108.516 61.8202ZM108.192 61.4921C108.274 61.5725 108.355 61.6529 108.434 61.7343C108.354 61.653 108.274 61.5725 108.192 61.4921ZM39.002 61.3915C38.956 61.492 38.9078 61.5912 38.8594 61.6903C38.9078 61.5912 38.956 61.492 39.002 61.3915ZM107.849 61.162C107.93 61.2385 108.012 61.3143 108.091 61.3915C108.011 61.3144 107.93 61.2385 107.849 61.162ZM39.209 60.912C39.1779 60.9875 39.1466 61.0628 39.1143 61.1376C39.1466 61.0628 39.1779 60.9875 39.209 60.912ZM39.4219 60.3622C39.3907 60.4482 39.3589 60.5339 39.3262 60.619C39.3589 60.5339 39.3907 60.4482 39.4219 60.3622ZM43.7021 60.3485C43.6807 60.4198 43.6581 60.4907 43.6357 60.5614C43.6581 60.4907 43.6807 60.4198 43.7021 60.3485ZM39.6191 59.7831C39.5901 59.8746 39.5609 59.9659 39.5303 60.0565C39.5609 59.9659 39.5901 59.8746 39.6191 59.7831ZM39.7842 59.2255C39.757 59.3232 39.73 59.4207 39.7012 59.5175C39.73 59.4207 39.7571 59.3232 39.7842 59.2255ZM39.9307 58.661C39.9071 58.7588 39.8835 58.8562 39.8584 58.953C39.8835 58.8562 39.9071 58.7588 39.9307 58.661ZM40.0771 58.0028C40.0541 58.116 40.0307 58.2287 40.0059 58.3407C40.0307 58.2287 40.0541 58.116 40.0771 58.0028ZM107.208 55.7772C107.562 55.9582 107.908 56.1567 108.246 56.3719C107.908 56.1567 107.562 55.9582 107.208 55.7772ZM40.1797 57.4618C40.1597 57.5757 40.1389 57.6889 40.1172 57.8016C40.1389 57.6889 40.1597 57.5757 40.1797 57.4618ZM40.2939 56.7391C40.2724 56.8915 40.25 57.0429 40.2256 57.1932C40.25 57.0429 40.2724 56.8915 40.2939 56.7391ZM40.3682 56.1659C40.351 56.3122 40.3331 56.4578 40.3135 56.6024C40.3331 56.4578 40.351 56.3123 40.3682 56.1659ZM40.4287 55.5995C40.4176 55.7149 40.407 55.8299 40.3945 55.9442C40.407 55.8299 40.4176 55.7149 40.4287 55.5995ZM40.4785 55.0175C40.4708 55.1194 40.4638 55.221 40.4551 55.3221C40.4638 55.221 40.4708 55.1194 40.4785 55.0175ZM72.416 49.5389L72.4111 50.0331C72.395 51.6208 72.4057 53.2099 72.4111 54.7909L72.4131 55.2889H102.804V49.5389H72.416ZM26.3789 47.2235C26.2127 47.3973 26.0492 47.5764 25.8867 47.7596C26.0492 47.5764 26.2127 47.3973 26.3789 47.2235ZM104.812 46.4178C105.125 46.5105 105.366 46.6387 105.55 46.8114H105.549C105.512 46.7769 105.473 46.7439 105.432 46.7128C105.307 46.6196 105.161 46.5418 104.99 46.4774L104.812 46.4178ZM99.6211 28.9559C94.8096 34.4615 89.263 34.1779 84.6436 34.7421C82.3595 35.0211 80.2374 35.5224 78.7227 37.2147C77.2135 38.9012 76.3987 41.6649 76.418 46.2216L76.4199 46.7186H99.04L99.0459 46.2255C99.0696 44.4004 98.8107 42.7592 98.4141 41.0135L98.2998 40.5126L97.8018 40.6395C97.0197 40.8398 95.7243 41.173 94.4531 41.3602C93.8174 41.4538 93.2017 41.5093 92.6699 41.496C92.1262 41.4823 91.726 41.398 91.4795 41.2606C90.7305 40.8427 90.4528 39.8462 90.9072 39.1659C91.1869 38.7479 91.7371 38.5414 92.5234 38.455C92.9037 38.4132 93.3022 38.4031 93.7012 38.3944C94.0889 38.3859 94.4914 38.3787 94.8369 38.3387C97.3754 38.0445 100.026 36.9426 101.429 35.2782C102.141 34.432 102.55 33.4143 102.406 32.286C102.264 31.1678 101.59 30.0308 100.33 28.911L99.9531 28.576L99.6211 28.9559ZM103.611 46.2382C103.907 46.2555 104.168 46.2829 104.399 46.3231L104.614 46.3661C104.334 46.302 104.003 46.2611 103.611 46.2382ZM99.998 24.6805C101.641 24.696 102.769 26.522 103.634 27.704C107.186 32.5568 106.209 36.1511 101.502 39.5243C101.939 41.7735 102.24 43.924 102.304 46.2177V46.2186C102.24 43.9246 101.938 41.7738 101.501 39.5243C106.209 36.151 107.185 32.5569 103.633 27.704C102.768 26.522 101.639 24.6959 99.9971 24.6805H99.998ZM35.4951 42.1366C35.641 42.1025 35.7879 42.0706 35.9355 42.0389C35.7879 42.0706 35.641 42.1025 35.4951 42.1366ZM43.4199 41.9882C43.533 42.0526 43.6387 42.1244 43.7354 42.205C43.6387 42.1244 43.533 42.0526 43.4199 41.9882ZM92.0322 41.9432C92.1271 41.9576 92.2256 41.968 92.3271 41.9764C92.2256 41.968 92.1271 41.9576 92.0322 41.9432ZM37.6729 41.7284C37.3134 41.7808 36.959 41.8401 36.6094 41.9052C36.959 41.8401 37.3134 41.7808 37.6729 41.7284ZM91.5215 41.8231C91.5519 41.8336 91.5835 41.842 91.6152 41.8514C91.5852 41.8425 91.5552 41.835 91.5264 41.8251L91.5215 41.8231ZM39.9365 41.5145C39.3406 41.548 38.7932 41.6051 38.3789 41.6346L37.9609 41.6884C38.0996 41.6696 38.2388 41.6507 38.3789 41.6337C38.7931 41.6042 39.3406 41.548 39.9365 41.5145ZM41.3252 41.4999C41.6358 41.5144 41.9428 41.5428 42.2354 41.5936V41.5946C42.162 41.5818 42.0877 41.5706 42.0127 41.5604C41.7886 41.5301 41.5579 41.5107 41.3252 41.4999ZM97.9258 41.1239C97.632 41.1992 97.2611 41.2928 96.8438 41.3925C97.2611 41.2928 97.632 41.1992 97.9258 41.1239ZM74.5703 37.4696C74.4701 37.6657 74.377 37.861 74.29 38.0555C74.377 37.861 74.4701 37.6657 74.5703 37.4696ZM94.1445 37.8817C93.9705 37.8873 93.7886 37.8921 93.6025 37.8964C93.7886 37.8921 93.9705 37.8873 94.1445 37.8817ZM99.4062 36.3134C98.0957 37.1089 96.4282 37.6515 94.7793 37.8427L94.5312 37.8651C94.5036 37.867 94.4755 37.8664 94.4473 37.868C94.5637 37.8613 94.6752 37.8538 94.7803 37.8417C96.4288 37.6506 98.0959 37.1085 99.4062 36.3134ZM100.79 35.2382C100.49 35.5452 100.139 35.8286 99.752 36.0907C100.14 35.8284 100.491 35.5445 100.791 35.2372L100.79 35.2382ZM99.9971 29.285C95.9621 33.9019 91.3848 34.5813 87.376 34.9706H87.375C87.6833 34.9406 87.995 34.9089 88.3096 34.8739C88.9388 34.8038 89.5794 34.7196 90.2275 34.6093C90.3895 34.5817 90.552 34.5525 90.7148 34.5214C93.8095 33.9297 97.0483 32.6591 99.9971 29.285ZM101.729 33.8241C101.715 33.8603 101.701 33.8966 101.686 33.9325C101.701 33.8966 101.715 33.8603 101.729 33.8241ZM92.8828 29.8007C92.6881 29.8969 92.4864 29.9902 92.2773 30.0809C92.4864 29.9902 92.6881 29.8969 92.8828 29.8007ZM97.6602 26.1425C97.333 26.4422 96.9917 26.7658 96.627 27.1063C96.9917 26.7658 97.333 26.4422 97.6602 26.1425ZM98.624 25.3417C98.5203 25.4155 98.4175 25.4939 98.3145 25.576C98.4175 25.4939 98.5204 25.4155 98.624 25.3417ZM99.3281 24.9218C99.186 24.9894 99.0464 25.065 98.9092 25.1503C99.0464 25.065 99.186 24.9894 99.3281 24.9218ZM7.24609 7.28601L7.30371 7.83875C7.79512 12.5192 8.4851 17.235 9.16016 21.8798L9.22266 22.3075H47.0518C49.866 22.3082 52.7021 22.3404 55.5273 22.3075L55.9531 22.3026L56.0156 21.8817C56.6622 17.5683 57.583 12.2005 57.8232 7.81335L57.8525 7.28601H7.24609ZM9.14941 18.3134C9.00188 17.2825 8.85717 16.2499 8.71582 15.2167C8.85721 16.2499 9.00186 17.2825 9.14941 18.3134ZM8.13867 10.7518C8.0958 10.3962 8.05273 10.0408 8.01172 9.68542C8.05274 10.0408 8.09578 10.3962 8.13867 10.7518ZM7.80176 7.78601C7.85741 8.31609 7.91514 8.84691 7.97559 9.37781C7.91515 8.8469 7.85741 8.31609 7.80176 7.78601ZM19.0488 114.445C19.0075 114.405 18.9673 114.363 18.9277 114.321C18.9673 114.363 19.0075 114.405 19.0488 114.445ZM18.2227 113.281C18.2067 113.249 18.1912 113.216 18.1758 113.182C18.1912 113.216 18.2067 113.249 18.2227 113.281ZM17.8125 112.185C17.8019 112.148 17.7915 112.11 17.7812 112.071C17.7915 112.11 17.8019 112.148 17.8125 112.185ZM115.16 109.319C115.104 109.423 115.045 109.523 114.985 109.621C115.045 109.523 115.104 109.423 115.16 109.319ZM62.5557 106.2C62.5428 106.144 62.5308 106.087 62.5195 106.03C62.5308 106.087 62.5429 106.144 62.5557 106.2ZM62.5557 106.2C62.5592 106.216 62.5618 106.231 62.5654 106.247C62.5618 106.231 62.5592 106.216 62.5557 106.2ZM43.999 59.2157C43.9821 59.2907 43.9631 59.365 43.9453 59.4393C43.9631 59.365 43.9821 59.2907 43.999 59.2157ZM35.1953 42.2098C35.2949 42.1851 35.3947 42.1601 35.4951 42.1366C35.3947 42.1601 35.2949 42.1851 35.1953 42.2098Z" fill="#0084D1"/>
</svg>
