<svg width="140" height="140" viewBox="0 0 140 140" fill="none" xmlns="http://www.w3.org/2000/svg">
  <path d="M125.416 49.5833C125.416 33.4746 112.358 20.4167 96.2497 20.4167C84.6793 20.4167 74.713 27.1688 69.9997 36.9338C65.2834 27.1688 55.3201 20.4167 43.7497 20.4167C27.6409 20.4167 14.583 33.4746 14.583 49.5833C14.583 85.5283 51.2805 113.61 67.5205 121.403C69.0955 122.159 70.9038 122.159 72.4788 121.403C88.7188 113.61 125.416 85.5283 125.416 49.5833Z" fill="#E7000B" />
  <path d="M14.583 49.5833C14.583 69.1017 25.4068 86.2925 37.8988 99.1842L112.014 25.0687C107.318 22.03 101.843 20.4144 96.2497 20.4167C84.6793 20.4167 74.713 27.1687 69.9997 36.9337C65.2834 27.1687 55.3201 20.4167 43.7497 20.4167C27.6409 20.4167 14.583 33.4746 14.583 49.5833Z" fill="#FF6467" />
  <path d="M93.3333 64.1667H78.75V49.5833C78.75 48.8098 78.4427 48.0679 77.8957 47.5209C77.3488 46.9739 76.6069 46.6667 75.8333 46.6667H64.1667C63.3931 46.6667 62.6513 46.9739 62.1043 47.5209C61.5573 48.0679 61.25 48.8098 61.25 49.5833V64.1667H46.6667C45.8931 64.1667 45.1513 64.4739 44.6043 65.0209C44.0573 65.5679 43.75 66.3098 43.75 67.0833V78.75C43.75 79.5235 44.0573 80.2654 44.6043 80.8124C45.1513 81.3594 45.8931 81.6667 46.6667 81.6667H61.25V96.25C61.25 97.0235 61.5573 97.7654 62.1043 98.3124C62.6513 98.8594 63.3931 99.1667 64.1667 99.1667H75.8333C76.6069 99.1667 77.3488 98.8594 77.8957 98.3124C78.4427 97.7654 78.75 97.0235 78.75 96.25V81.6667H93.3333C94.1069 81.6667 94.8488 81.3594 95.3957 80.8124C95.9427 80.2654 96.25 79.5235 96.25 78.75V67.0833C96.25 66.3098 95.9427 65.5679 95.3957 65.0209C94.8488 64.4739 94.1069 64.1667 93.3333 64.1667Z" fill="#F3F4F6" />
  <path d="M78.75 64.1667V49.5833C78.75 48.8098 78.4427 48.0679 77.8957 47.5209C77.3488 46.9739 76.6069 46.6667 75.8333 46.6667H64.1667C63.3931 46.6667 62.6513 46.9739 62.1043 47.5209C61.5573 48.0679 61.25 48.8098 61.25 49.5833V64.1667H46.6667C45.8931 64.1667 45.1513 64.4739 44.6043 65.0209C44.0573 65.5679 43.75 66.3098 43.75 67.0833V78.75C43.75 79.5235 44.0573 80.2654 44.6043 80.8124C45.1513 81.3594 45.8931 81.6667 46.6667 81.6667H61.25L78.75 64.1667Z" fill="white" />
</svg>