<svg width="100" height="100" viewBox="0 0 100 100" fill="none" xmlns="http://www.w3.org/2000/svg">
  <g clip-path="url(#clip0_110_5898)">
    <path d="M85.2342 32.1846H64.5859V69.6086H98.4165V52.7641L94.4709 39.1277C93.2816 35.0156 89.5151 32.1846 85.2342 32.1846Z" fill="#FF6467" />
    <path d="M93.4778 52.5914L89.9615 40.4361C89.3553 38.3467 87.4118 36.8843 85.2348 36.8843H69.2861V52.5914H93.4778Z" fill="#00A6F4" />
    <path d="M93.4816 52.585H69.2773V36.8779L93.4816 52.585Z" fill="#E2E8F0" />
    <path d="M93.4778 52.5914L89.9615 40.4361C89.3553 38.3467 87.4118 36.8843 85.2348 36.8843H69.2861L93.4778 52.5914Z" fill="white" />
    <path d="M6.24948 13.3965H58.3367C61.7864 13.3965 64.5862 16.1941 64.5862 19.646V69.6064H0V19.646C0 16.1943 2.79762 13.3965 6.24948 13.3965Z" fill="#0084D1" />
    <path d="M42.33 13.4072V29.9203L39.9134 27.5039L37.3804 30.0371L34.8493 27.5039L32.3183 30.0371L29.783 27.5039L27.2187 30.0371L24.6896 27.5039L22.2441 29.9496V13.4072H42.33Z" fill="#00A6F4" />
    <path d="M100 69.6043V76.6662H0.00878906V69.6043H10.4454C12.8827 65.2296 17.5698 62.2715 22.9444 62.2715C28.298 62.2715 32.9851 65.2296 35.4433 69.6043H69.0239C71.4612 65.2296 76.1254 62.2715 81.5 62.2715C86.8745 62.2715 91.5407 65.2296 93.9989 69.6043H100Z" fill="#00598A" />
    <path d="M91.4802 76.6225C91.4802 82.1345 87.0118 86.6029 81.4997 86.6029C75.9877 86.6029 71.5234 82.1345 71.5234 76.6225C71.5234 71.1105 75.9897 66.6421 81.4997 66.6421C87.0139 66.6421 91.4802 71.1105 91.4802 76.6225Z" fill="#024A70" />
    <path d="M85.5114 76.6223C85.5114 78.8368 83.7157 80.6304 81.5034 80.6304C79.2889 80.6304 77.4912 78.8368 77.4912 76.6223C77.4912 74.4079 79.287 72.6143 81.5034 72.6143C83.7157 72.6123 85.5114 74.4081 85.5114 76.6223Z" fill="#E2E8F0" />
    <path d="M32.9159 76.6225C32.9159 82.1345 28.4454 86.6029 22.9355 86.6029C17.4235 86.6029 12.9551 82.1345 12.9551 76.6225C12.9551 71.1105 17.4235 66.6421 22.9355 66.6421C28.4454 66.6421 32.9159 71.1105 32.9159 76.6225Z" fill="#024A70" />
    <path d="M26.9439 76.6223C26.9439 78.8368 25.1503 80.6304 22.9358 80.6304C20.7213 80.6304 18.9258 78.8368 18.9258 76.6223C18.9258 74.4079 20.7215 72.6143 22.9358 72.6143C25.1501 72.6143 26.9439 74.4081 26.9439 76.6223Z" fill="#E2E8F0" />
  </g>
  <defs>
    <clipPath id="clip0_110_5898">
      <rect width="100" height="100" fill="white" />
    </clipPath>
  </defs>
</svg>