<svg width="100" height="100" viewBox="0 0 100 100" fill="none" xmlns="http://www.w3.org/2000/svg">
  <path d="M76.61 95.4726H52.2639C51.4303 95.4726 50.7549 94.7972 50.7549 93.9636C50.7549 93.13 51.4303 92.4545 52.2639 92.4545H76.61C86.5951 92.4545 94.7187 84.331 94.7187 74.3459V63.7825C94.7187 62.9489 95.3941 62.2734 96.2277 62.2734C97.0613 62.2734 97.7368 62.9489 97.7368 63.7825V74.3459C97.7368 85.9952 88.2593 95.4726 76.61 95.4726Z" fill="#CAD5E2" />
  <path d="M52.2638 87.9277H46.2275V100H52.2638C55.5976 100 58.3 97.2978 58.3 93.964C58.3 90.6301 55.5976 87.9277 52.2638 87.9277Z" fill="#00598A" />
  <path d="M52.2639 93.964C52.2639 90.6301 49.5615 87.9277 46.2277 87.9277H40.1915C36.8577 87.9277 34.1553 90.6301 34.1553 93.964C34.1553 97.2978 36.8577 100 40.1915 100H46.2277C49.5615 100 52.2639 97.2978 52.2639 93.964Z" fill="#0069A8" />
  <path d="M15.1403 12.8765C7.1844 20.8324 2.26367 31.8233 2.26367 43.9636V56.2372L8.29989 50.201V43.9636C8.29989 31.1004 14.7049 19.7346 24.4981 12.8765H15.1403Z" fill="#CAD5E2" />
  <path d="M77.3148 12.8765H67.957C77.7502 19.7346 84.1552 31.3016 84.1552 44.1648V50.201L90.1914 56.2372V43.9636C90.1914 31.8233 85.2705 20.8324 77.3148 12.8765Z" fill="#CAD5E2" />
  <path d="M90.191 65.2915V71.3278C90.191 74.6616 87.4886 77.364 84.1548 77.364H81.1367V62.2734L90.191 65.2915Z" fill="#00598A" />
  <path d="M87.1729 68.3098C85.5061 68.3098 84.1548 66.9585 84.1548 65.2917H81.1367V50.2012H84.1548C87.4886 50.2012 90.191 52.9036 90.191 56.2374V65.2917C90.191 66.9585 88.8397 68.3098 87.1729 68.3098Z" fill="#0069A8" />
  <path d="M79.6278 71.3281L76.6097 84.9096C72.4425 84.9096 69.0645 81.5315 69.0645 77.3643V71.3281H79.6278Z" fill="#0084D1" />
  <path d="M76.6097 42.6558L79.6278 45.6739V78.8215L76.6097 78.8731C72.4425 78.8731 69.0645 75.495 69.0645 71.3278V50.201C69.0645 46.0338 72.4425 42.6558 76.6097 42.6558Z" fill="#0084D1" />
  <path d="M84.1546 71.3281V77.3643C84.1546 81.5315 80.7766 84.9096 76.6094 84.9096V78.8734L84.1546 71.3281Z" fill="#0069A8" />
  <path d="M84.1546 50.201V71.3278C84.1546 75.495 80.7766 78.8731 76.6094 78.8731V42.6558C80.7766 42.6558 84.1546 46.0338 84.1546 50.201Z" fill="#0084D1" />
  <path d="M2.26367 65.2915V71.3278C2.26367 74.6616 4.96609 77.364 8.29989 77.364H11.318V62.2734L2.26367 65.2915Z" fill="#00598A" />
  <path d="M5.28178 68.3098C6.94858 68.3098 8.29989 66.9585 8.29989 65.2917H11.318V50.2012H8.29989C4.96609 50.2012 2.26367 52.9036 2.26367 56.2374V65.2917C2.26367 66.9585 3.61498 68.3098 5.28178 68.3098Z" fill="#0069A8" />
  <path d="M12.8271 71.3281L15.8453 84.9096C20.0125 84.9096 23.3905 81.5315 23.3905 77.3643V71.3281H12.8271Z" fill="#0084D1" />
  <path d="M15.8453 42.6558L12.8271 45.6739V78.8215L15.8453 78.8731C20.0125 78.8731 23.3905 75.495 23.3905 71.3278V50.201C23.3905 46.0338 20.0125 42.6558 15.8453 42.6558Z" fill="#0084D1" />
  <path d="M8.2998 71.3281V77.3643C8.2998 81.5315 11.6779 84.9096 15.8451 84.9096V78.8734L8.2998 71.3281Z" fill="#0069A8" />
  <path d="M8.2998 50.201V71.3278C8.2998 75.495 11.6779 78.8731 15.8451 78.8731V42.6558C11.6779 42.6558 8.2998 46.0338 8.2998 50.201Z" fill="#0084D1" />
  <path d="M73.0937 9.16504L59.6826 11.7465C61.3921 12.46 63.042 13.3087 64.6164 14.2848C68.6786 16.8069 73.9335 16.258 77.3146 12.8769C75.9878 11.5513 74.578 10.3115 73.0937 9.16504Z" fill="#00598A" />
  <path d="M46.2277 0C34.0875 0 23.0966 4.92093 15.1406 12.8767C18.5217 16.2577 23.7766 16.8068 27.8388 14.2845C33.1789 10.969 39.4799 9.05433 46.2277 9.05433C50.999 9.05433 55.5461 10.0121 59.6881 11.7453C64.2811 13.6672 69.5732 12.6853 73.0937 9.16479C65.664 3.42032 56.3459 0 46.2277 0Z" fill="#0069A8" />
</svg>