<svg width="295" height="44" viewBox="0 0 295 44" fill="none" xmlns="http://www.w3.org/2000/svg">
<path d="M7.5075 37H2.9875V8.2H7.3275L17.2875 28.6L27.2475 8.2H31.5875V37H27.0875V18.54L18.2475 37H16.3275L7.5075 18.54V37ZM42.0263 32.48H55.8063V37H37.2063V8.2H55.8063V12.72H42.0263V19.82H53.4063V24.34H42.0263V32.48ZM69.7847 37H60.6047V8.2H69.7847C70.2647 8.2 71.9447 8.2 73.2847 8.36C80.1447 9.22 83.8847 15.28 83.8847 22.6C83.8847 29.94 80.1447 35.98 73.2847 36.84C71.9647 37 70.2447 37 69.7847 37ZM65.5047 12.74V32.46H69.7847C70.5847 32.46 71.9847 32.44 72.9647 32.24C77.0447 31.46 78.7847 27.12 78.7847 22.6C78.7847 17.9 76.9447 13.72 72.9647 12.96C71.9847 12.76 70.5847 12.74 69.7847 12.74H65.5047Z" fill="#0084D1"/>
<path d="M99.5069 37.6C93.2069 37.6 88.4869 34.14 87.5869 28.48L92.5869 27.72C93.4269 31.14 96.3269 33.08 99.8069 33.08C102.887 33.08 105.767 31.6 105.767 28.94C105.767 27.34 104.747 26.28 102.567 25.62L95.1269 23.42C92.5669 22.68 88.7069 21.14 88.7069 16.06C88.7069 10.5 93.3669 7.6 99.2269 7.64C105.147 7.7 109.307 10.72 110.587 16.06L105.407 16.96C104.787 13.92 102.127 12.22 99.1669 12.14C96.2869 12.08 93.7669 13.58 93.7669 15.82C93.7669 17.96 95.9869 18.74 97.9269 19.26L103.087 20.7C105.887 21.46 110.807 22.9 110.807 28.62C110.807 34.6 105.427 37.6 99.5069 37.6ZM126.876 37H122.056V12.72H112.736V8.2H136.196V12.72H126.876V37ZM151.574 37.6C142.954 37.6 137.794 31.54 137.794 22.6C137.794 13.66 142.954 7.6 151.574 7.6C160.214 7.6 165.374 13.66 165.374 22.6C165.374 31.54 160.214 37.6 151.574 37.6ZM151.574 33.06C157.374 33.12 160.274 28.9 160.274 22.6C160.274 16.3 157.374 12.22 151.574 12.14C145.774 12.08 142.914 16.3 142.894 22.6C142.874 28.9 145.774 32.98 151.574 33.06ZM173.875 37H169.355V8.2H173.695L183.655 28.6L193.615 8.2H197.955V37H193.455V18.54L184.615 37H182.695L173.875 18.54V37ZM201.573 37L210.653 8.2H217.713L226.793 37H221.833L219.833 30.76H208.513L206.533 37H201.573ZM214.133 12.84L209.913 26.26H218.413L214.133 12.84ZM233.669 37.38C232.029 37.38 230.789 36.12 230.789 34.5C230.789 32.88 232.029 31.62 233.669 31.62C235.349 31.62 236.569 32.88 236.569 34.5C236.569 36.12 235.349 37.38 233.669 37.38ZM258.658 25.42L264.658 37H259.198L253.538 26.08H247.378V37H242.558V8.2H254.458C255.018 8.2 256.018 8.24 256.758 8.36C261.758 9.14 264.098 12.62 264.098 17.14C264.098 20.46 262.338 24 258.658 25.42ZM254.258 12.72H247.378V21.56H254.258C254.798 21.56 255.538 21.6 256.078 21.38C258.478 20.42 259.238 18.74 259.238 17.14C259.238 15.54 258.478 13.52 256.078 12.9C255.518 12.76 254.798 12.72 254.258 12.72ZM280.564 37.6C273.704 37.6 268.964 33.16 268.964 26.3V8.24L273.844 8.2V26.18C273.844 30.52 277.064 33.06 280.564 33.06C284.144 33.06 287.284 30.46 287.284 26.18V8.2H292.164V26.3C292.164 33.14 287.424 37.6 280.564 37.6Z" fill="#E7000B"/>
</svg>
