<svg width="80" height="16" viewBox="0 0 80 16" fill="none" xmlns="http://www.w3.org/2000/svg">
    <path d="M9.15141 2.29628L10.3246 4.66208C10.4846 4.99141 10.9112 5.30729 11.2712 5.36778L13.3976 5.72399C14.7575 5.95251 15.0775 6.94723 14.0975 7.92849L12.4444 9.59529C12.1644 9.87756 12.0111 10.422 12.0977 10.8118L12.5711 12.8752C12.9443 14.5084 12.0844 15.1402 10.6513 14.2866L8.65814 13.097C8.29821 12.8819 7.70494 12.8819 7.33827 13.097L5.34519 14.2866C3.91867 15.1402 3.05211 14.5016 3.4254 12.8752L3.89868 10.8118C3.98533 10.422 3.83202 9.87756 3.55205 9.59529L1.8989 7.92849C0.925674 6.94723 1.23897 5.95251 2.59882 5.72399L4.72525 5.36778C5.07855 5.30729 5.50517 4.99141 5.66515 4.66208L6.83834 2.29628C7.47827 1.01257 8.51814 1.01257 9.15141 2.29628Z" fill="#cad5e2"/>
    <path d="M25.1514 2.29628L26.3246 4.66208C26.4846 4.99141 26.9112 5.30729 27.2712 5.36778L29.3976 5.72399C30.7575 5.95251 31.0775 6.94723 30.0975 7.92849L28.4444 9.59529C28.1644 9.87756 28.0111 10.422 28.0977 10.8118L28.5711 12.8752C28.9443 14.5084 28.0844 15.1402 26.6513 14.2866L24.6581 13.097C24.2982 12.8819 23.7049 12.8819 23.3383 13.097L21.3452 14.2866C19.9187 15.1402 19.0521 14.5016 19.4254 12.8752L19.8987 10.8118C19.9853 10.422 19.832 9.87756 19.552 9.59529L17.8989 7.92849C16.9257 6.94723 17.239 5.95251 18.5988 5.72399L20.7253 5.36778C21.0785 5.30729 21.5052 4.99141 21.6651 4.66208L22.8383 2.29628C23.4783 1.01257 24.5181 1.01257 25.1514 2.29628Z" fill="#cad5e2"/>
    <path d="M41.1514 2.29628L42.3246 4.66208C42.4846 4.99141 42.9112 5.30729 43.2712 5.36778L45.3976 5.72399C46.7575 5.95251 47.0775 6.94723 46.0975 7.92849L44.4444 9.59529C44.1644 9.87756 44.0111 10.422 44.0977 10.8118L44.5711 12.8752C44.9443 14.5084 44.0844 15.1402 42.6513 14.2866L40.6581 13.097C40.2982 12.8819 39.7049 12.8819 39.3383 13.097L37.3452 14.2866C35.9187 15.1402 35.0521 14.5016 35.4254 12.8752L35.8987 10.8118C35.9853 10.422 35.832 9.87756 35.552 9.59529L33.8989 7.92849C32.9257 6.94723 33.239 5.95251 34.5988 5.72399L36.7253 5.36778C37.0785 5.30729 37.5052 4.99141 37.6651 4.66208L38.8383 2.29628C39.4783 1.01257 40.5181 1.01257 41.1514 2.29628Z" fill="#cad5e2"/>
    <path d="M57.1514 2.29628L58.3246 4.66208C58.4846 4.99141 58.9112 5.30729 59.2712 5.36778L61.3976 5.72399C62.7575 5.95251 63.0775 6.94723 62.0975 7.92849L60.4444 9.59529C60.1644 9.87756 60.0111 10.422 60.0977 10.8118L60.5711 12.8752C60.9443 14.5084 60.0844 15.1402 58.6513 14.2866L56.6581 13.097C56.2982 12.8819 55.7049 12.8819 55.3383 13.097L53.3452 14.2866C51.9187 15.1402 51.0521 14.5016 51.4254 12.8752L51.8987 10.8118C51.9853 10.422 51.832 9.87756 51.552 9.59529L49.8989 7.92849C48.9257 6.94723 49.239 5.95251 50.5988 5.72399L52.7253 5.36778C53.0785 5.30729 53.5052 4.99141 53.6651 4.66208L54.8383 2.29628C55.4783 1.01257 56.5181 1.01257 57.1514 2.29628Z" fill="#cad5e2"/>
    <path d="M73.1514 2.29628L74.3246 4.66208C74.4846 4.99141 74.9112 5.30729 75.2712 5.36778L77.3976 5.72399C78.7575 5.95251 79.0775 6.94723 78.0975 7.92849L76.4444 9.59529C76.1644 9.87756 76.0111 10.422 76.0977 10.8118L76.5711 12.8752C76.9443 14.5084 76.0844 15.1402 74.6513 14.2866L72.6581 13.097C72.2982 12.8819 71.7049 12.8819 71.3383 13.097L69.3452 14.2866C67.9187 15.1402 67.0521 14.5016 67.4254 12.8752L67.8987 10.8118C67.9853 10.422 67.832 9.87756 67.552 9.59529L65.8989 7.92849C64.9257 6.94723 65.239 5.95251 66.5988 5.72399L68.7253 5.36778C69.0785 5.30729 69.5052 4.99141 69.6651 4.66208L70.8383 2.29628C71.4783 1.01257 72.5181 1.01257 73.1514 2.29628Z" fill="#cad5e2"/>
</svg>