<svg width="24" height="24" viewBox="0 0 24 24" fill="none" xmlns="http://www.w3.org/2000/svg">
  <path d="M8.25577 20.2639C8.67371 20.2639 9.01252 19.9251 9.01252 19.5071C9.01252 19.0892 8.67371 18.7504 8.25577 18.7504C7.83783 18.7504 7.49902 19.0892 7.49902 19.5071C7.49902 19.9251 7.83783 20.2639 8.25577 20.2639Z" stroke="#E7000B" stroke-width="2" stroke-linecap="round" stroke-linejoin="round" />
  <path d="M18.7558 20.2639C19.1737 20.2639 19.5125 19.9251 19.5125 19.5071C19.5125 19.0892 19.1737 18.7504 18.7558 18.7504C18.3378 18.7504 17.999 19.0892 17.999 19.5071C17.999 19.9251 18.3378 20.2639 18.7558 20.2639Z" stroke="#E7000B" stroke-width="2" stroke-linecap="round" stroke-linejoin="round" />
  <path d="M2.24902 3.74988H5.24902L7.49902 16.4999H19.499" stroke="#E7000B" stroke-width="2" stroke-linecap="round" stroke-linejoin="round" />
  <path d="M7.50098 13.5006H19.1935C19.2802 13.5007 19.3643 13.4707 19.4314 13.4157C19.4985 13.3608 19.5444 13.2842 19.5615 13.1992L20.9114 6.4492C20.9223 6.39478 20.921 6.33861 20.9076 6.28475C20.8941 6.2309 20.8689 6.1807 20.8337 6.13778C20.7985 6.09487 20.7542 6.0603 20.704 6.03658C20.6538 6.01286 20.599 6.00057 20.5435 6.00061H6.00098" stroke="#E7000B" stroke-width="2" stroke-linecap="round" stroke-linejoin="round" />
</svg>