<svg width="24" height="24" viewBox="0 0 24 24" fill="none" xmlns="http://www.w3.org/2000/svg">
  <path d="M2.25 15.7503L21.75 15.7503C22.1642 15.7503 22.5 15.4145 22.5 15.0003V4.50027C22.5 4.08606 22.1642 3.75027 21.75 3.75027L2.25 3.75027C1.83579 3.75027 1.5 4.08606 1.5 4.50027V15.0003C1.5 15.4145 1.83579 15.7503 2.25 15.7503Z" stroke="#0069A8" stroke-width="2" stroke-linejoin="round" />
  <path d="M3.00195 18.0003H21.002" stroke="#0069A8" stroke-width="2" stroke-linecap="round" stroke-linejoin="round" />
  <path d="M4.50195 20.2504H19.502" stroke="#0069A8" stroke-width="2" stroke-linecap="round" stroke-linejoin="round" />
  <path d="M12.0005 13.5012C14.0719 13.5012 15.7511 11.822 15.7511 9.75066C15.7511 7.67929 14.0719 6.00012 12.0005 6.00012C9.92917 6.00012 8.25 7.67929 8.25 9.75066C8.25 11.822 9.92917 13.5012 12.0005 13.5012Z" stroke="#0069A8" stroke-width="2" stroke-linecap="round" stroke-linejoin="round" />
  <path d="M22.5047 7.50285C21.5094 7.50285 20.5549 7.10747 19.8511 6.40369C19.1473 5.69991 18.752 4.74538 18.752 3.75009" stroke="#0069A8" stroke-width="2" stroke-linecap="round" stroke-linejoin="round" />
  <path d="M1.50195 7.50279C1.99477 7.50279 2.48277 7.40572 2.93807 7.21713C3.39338 7.02853 3.80708 6.75211 4.15555 6.40363C4.50403 6.05516 4.78046 5.64145 4.96905 5.18615C5.15764 4.73084 5.25471 4.24285 5.25471 3.75003" stroke="#0069A8" stroke-width="2" stroke-linecap="round" stroke-linejoin="round" />
  <path d="M22.5047 12.0006C21.5094 12.0006 20.5549 12.396 19.8511 13.0998C19.1473 13.8035 18.752 14.7581 18.752 15.7534" stroke="#0069A8" stroke-width="2" stroke-linecap="round" stroke-linejoin="round" />
  <path d="M1.50195 12.0006C1.99477 12.0006 2.48277 12.0977 2.93807 12.2863C3.39338 12.4749 3.80708 12.7513 4.15555 13.0998C4.50403 13.4482 4.78046 13.8619 4.96905 14.3173C5.15764 14.7726 5.25471 15.2606 5.25471 15.7534" stroke="#0069A8" stroke-width="2" stroke-linecap="round" stroke-linejoin="round" />
</svg>