<svg width="24" height="24" viewBox="0 0 24 24" fill="none" xmlns="http://www.w3.org/2000/svg">
  <path d="M3.1875 2.50024H9.56348C9.74578 2.50024 9.92085 2.57257 10.0498 2.70142C10.1787 2.83034 10.2509 3.00543 10.251 3.18774V9.56372C10.251 9.74612 10.1788 9.92107 10.0498 10.05C9.92083 10.179 9.74588 10.2512 9.56348 10.2512H3.1875C3.00519 10.2512 2.83009 10.179 2.70117 10.05C2.57233 9.92109 2.5 9.74602 2.5 9.56372V3.18774C2.50006 3.00543 2.57225 2.83034 2.70117 2.70142C2.83009 2.5725 3.00519 2.50031 3.1875 2.50024Z" stroke="white" stroke-width="2" />
  <path d="M14.4375 2.5H20.8135C20.9958 2.5 21.1708 2.57232 21.2998 2.70117C21.4287 2.83009 21.5009 3.00519 21.501 3.1875V9.56348C21.501 9.74588 21.4288 9.92083 21.2998 10.0498C21.1708 10.1788 20.9959 10.251 20.8135 10.251H14.4375C14.2552 10.2509 14.0801 10.1787 13.9512 10.0498C13.8223 9.92085 13.75 9.74578 13.75 9.56348V3.1875C13.7501 3.00519 13.8223 2.83009 13.9512 2.70117C14.0801 2.57225 14.2552 2.50006 14.4375 2.5Z" stroke="white" stroke-width="2" />
  <path d="M3.1875 13.7506H9.56348C9.74578 13.7506 9.92085 13.8229 10.0498 13.9518C10.1787 14.0807 10.2509 14.2558 10.251 14.4381V20.8141C10.251 20.9965 10.1788 21.1714 10.0498 21.3004C9.92083 21.4294 9.74588 21.5016 9.56348 21.5016H3.1875C3.00519 21.5015 2.83009 21.4293 2.70117 21.3004C2.57232 21.1715 2.5 20.9964 2.5 20.8141V14.4381C2.50006 14.2558 2.57225 14.0807 2.70117 13.9518C2.83009 13.8229 3.00519 13.7507 3.1875 13.7506Z" stroke="white" stroke-width="2" />
  <path d="M14.4375 13.7506H20.8135C20.9958 13.7506 21.1708 13.8229 21.2998 13.9518C21.4287 14.0807 21.5009 14.2558 21.501 14.4381V20.8141C21.501 20.9965 21.4288 21.1714 21.2998 21.3004C21.1708 21.4294 20.9959 21.5016 20.8135 21.5016H14.4375C14.2552 21.5015 14.0801 21.4293 13.9512 21.3004C13.8223 21.1715 13.75 20.9964 13.75 20.8141V14.4381C13.7501 14.2558 13.8223 14.0807 13.9512 13.9518C14.0801 13.8229 14.2552 13.7507 14.4375 13.7506Z" stroke="white" stroke-width="2" />
</svg>