<svg width="24" height="24" viewBox="0 0 24 24" fill="none" xmlns="http://www.w3.org/2000/svg">
  <path d="M6.74902 6.62231C6.78269 6.62231 6.81506 6.63562 6.83887 6.65942L11.999 11.8196L17.1582 6.6604C17.1818 6.6368 17.2146 6.62326 17.248 6.62329C17.2813 6.6234 17.3134 6.63683 17.3369 6.6604C17.3604 6.684 17.374 6.71597 17.374 6.74927C17.374 6.78254 17.3604 6.81456 17.3369 6.83813L12.1758 11.9993L12.8828 12.7063L17.3389 17.1594C17.3627 17.1832 17.376 17.2156 17.376 17.2493C17.376 17.2829 17.3627 17.3153 17.3389 17.3391C17.3151 17.3629 17.2827 17.3762 17.249 17.3762C17.2154 17.3762 17.183 17.3629 17.1592 17.3391L11.999 12.179L6.83887 17.3391C6.81506 17.3629 6.78269 17.3762 6.74902 17.3762C6.71535 17.3762 6.68299 17.3629 6.65918 17.3391C6.63537 17.3153 6.62207 17.2829 6.62207 17.2493C6.62207 17.2156 6.63537 17.1832 6.65918 17.1594L11.8193 11.9993L6.65918 6.83911C6.63537 6.8153 6.62207 6.78294 6.62207 6.74927C6.62207 6.7156 6.63537 6.68323 6.65918 6.65942C6.68299 6.63562 6.71535 6.62231 6.74902 6.62231Z" stroke="#0069A8" stroke-width="2" />
</svg>