<svg width="24" height="24" viewBox="0 0 24 24" fill="none" xmlns="http://www.w3.org/2000/svg">
  <path d="M3.89063 17.999C3.28125 16.4521 2.25 13.6222 2.25 11.999C2.25 6.61396 6.99984 2.24896 12 2.24896C17.0002 2.24896 21.75 6.61396 21.75 11.999C21.75 13.6222 20.6719 16.5458 20.1094 17.999" stroke="#0084D1" stroke-width="2" stroke-linecap="round" stroke-linejoin="round" />
  <path d="M5.08125 12.6622L4.43944 13.0372C3.02221 13.8671 2.95329 16.4319 4.28098 18.7662C5.60867 21.1004 7.8379 22.3203 9.25513 21.491L9.89694 21.1159C10.0673 21.0144 10.1911 20.8503 10.2417 20.6586C10.2924 20.4669 10.2659 20.263 10.1679 20.0906L6.09437 12.9374C6.04634 12.8524 5.98192 12.7777 5.90483 12.7178C5.82774 12.6578 5.73953 12.6138 5.64529 12.5882C5.55105 12.5626 5.45267 12.5559 5.35585 12.5686C5.25903 12.5814 5.1657 12.6131 5.08125 12.6622V12.6622Z" stroke="#0084D1" stroke-width="2" stroke-miterlimit="10" />
  <path d="M18.92 12.6622L19.5618 13.0372C20.9791 13.8666 21.0498 16.4315 19.7203 18.7657C18.3907 21.1 16.1634 22.3198 14.7461 21.4905L14.1043 21.1154C13.934 21.014 13.8102 20.8498 13.7595 20.6581C13.7089 20.4664 13.7354 20.2625 13.8333 20.0901L17.9069 12.9374C17.9549 12.8524 18.0193 12.7777 18.0964 12.7178C18.1735 12.6578 18.2617 12.6138 18.356 12.5882C18.4502 12.5626 18.5486 12.5559 18.6454 12.5686C18.7422 12.5814 18.8356 12.6131 18.92 12.6622V12.6622Z" stroke="#0084D1" stroke-width="2" stroke-miterlimit="10" />
</svg>