<svg width="24" height="24" viewBox="0 0 24 24" fill="none" xmlns="http://www.w3.org/2000/svg">
  <path d="M10.3636 3.00159C8.90721 3.00159 7.48354 3.43345 6.2726 4.24258C5.06167 5.0517 4.11786 6.20173 3.56052 7.54725C3.00319 8.89277 2.85737 10.3733 3.14149 11.8017C3.42562 13.2301 4.12693 14.5422 5.15675 15.572C6.18657 16.6018 7.49863 17.3032 8.92703 17.5873C10.3554 17.8714 11.836 17.7256 13.1815 17.1682C14.527 16.6109 15.6771 15.6671 16.4862 14.4562C17.2953 13.2452 17.7272 11.8216 17.7272 10.3652C17.7271 8.41227 16.9512 6.53938 15.5703 5.15847C14.1894 3.77756 12.3165 3.00171 10.3636 3.00159V3.00159Z" stroke="#0069A8" stroke-width="2" stroke-miterlimit="10" />
  <path d="M15.8564 15.859L21.0012 21.0038" stroke="#0069A8" stroke-width="2" stroke-miterlimit="10" stroke-linecap="round" />
</svg>