<svg width="25" height="24" viewBox="0 0 25 24" fill="none" xmlns="http://www.w3.org/2000/svg">
  <path d="M12.499 2.25012C8.77246 2.25012 5.74902 5.12778 5.74902 8.672C5.74902 12.7501 10.249 19.2128 11.9014 21.445C11.97 21.5392 12.0598 21.6159 12.1637 21.6687C12.2676 21.7216 12.3825 21.7492 12.499 21.7492C12.6156 21.7492 12.7305 21.7216 12.8343 21.6687C12.9382 21.6159 13.0281 21.5392 13.0967 21.445C14.749 19.2137 19.249 12.7534 19.249 8.672C19.249 5.12778 16.2256 2.25012 12.499 2.25012Z" stroke="#E7000B" stroke-width="2" stroke-linecap="round" stroke-linejoin="round" />
  <path d="M12.5017 11.2534C13.7452 11.2534 14.7533 10.2453 14.7533 9.00178C14.7533 7.75822 13.7452 6.75012 12.5017 6.75012C11.2581 6.75012 10.25 7.75822 10.25 9.00178C10.25 10.2453 11.2581 11.2534 12.5017 11.2534Z" stroke="#E7000B" stroke-width="2" stroke-linecap="round" stroke-linejoin="round" />
</svg>