<svg width="24" height="24" viewBox="0 0 24 24" fill="none" xmlns="http://www.w3.org/2000/svg">
  <path d="M14.6845 5.84326L9.31547 2.40826C9.1019 2.30157 8.86595 2.24741 8.62723 2.25026C8.38852 2.25311 8.15393 2.3129 7.94297 2.42466L2.64891 5.97685C2.52846 6.04066 2.42769 6.13608 2.3574 6.25286C2.28712 6.36964 2.24999 6.50336 2.25 6.63966V20.5053C2.24999 20.6346 2.28343 20.7618 2.34707 20.8744C2.41071 20.987 2.50239 21.0812 2.6132 21.1479C2.72402 21.2146 2.8502 21.2515 2.97949 21.2551C3.10879 21.2586 3.2368 21.2287 3.35109 21.1681L7.93641 18.1779C8.14909 18.0653 8.38576 18.0054 8.62644 18.0035C8.86712 18.0015 9.10473 18.0575 9.31922 18.1667L14.5627 21.5886C14.7753 21.6969 15.0107 21.753 15.2493 21.7521C15.4879 21.7512 15.7229 21.6933 15.9347 21.5834L21.3455 18.0237C21.4674 17.9605 21.5696 17.8649 21.6409 17.7475C21.7123 17.6302 21.75 17.4955 21.75 17.3581V3.49622C21.75 3.36688 21.7166 3.23974 21.6529 3.12713C21.5893 3.01453 21.4976 2.9203 21.3868 2.85359C21.276 2.78689 21.1498 2.74998 21.0205 2.74644C20.8912 2.7429 20.7632 2.77286 20.6489 2.83341L16.0552 5.82685C15.8444 5.9383 15.6102 5.99792 15.3718 6.00077C15.1335 6.00362 14.8979 5.94963 14.6845 5.84326Z" stroke="#0069A8" stroke-width="2" stroke-linecap="round" stroke-linejoin="round" />
  <path d="M15.375 5.99991V21.7499" stroke="#0069A8" stroke-width="2" stroke-linecap="round" stroke-linejoin="round" />
  <path d="M8.625 2.25098V18.001" stroke="#0069A8" stroke-width="2" stroke-linecap="round" stroke-linejoin="round" />
</svg>