<svg width="24" height="24" viewBox="0 0 24 24" fill="none" xmlns="http://www.w3.org/2000/svg">
  <path d="M20.25 5.2489H3.75C2.50736 5.2489 1.5 6.25626 1.5 7.4989V19.4989C1.5 20.7415 2.50736 21.7489 3.75 21.7489H20.25C21.4926 21.7489 22.5 20.7415 22.5 19.4989V7.4989C22.5 6.25626 21.4926 5.2489 20.25 5.2489Z" stroke="#0084D1" stroke-width="2" stroke-linejoin="round" />
  <path d="M6.74902 5.25012V3.75012C6.74902 3.3523 6.90706 2.97077 7.18836 2.68946C7.46967 2.40816 7.8512 2.25012 8.24902 2.25012H15.749C16.1468 2.25012 16.5284 2.40816 16.8097 2.68946C17.091 2.97077 17.249 3.3523 17.249 3.75012V5.25012" stroke="#0084D1" stroke-width="2" stroke-linecap="round" stroke-linejoin="round" />
  <path d="M12 9.75055V17.2516" stroke="#0084D1" stroke-width="2" stroke-linecap="round" stroke-linejoin="round" />
  <path d="M15.7511 13.4993H8.25" stroke="#0084D1" stroke-width="2" stroke-linecap="round" stroke-linejoin="round" />
</svg>