<svg width="25" height="24" viewBox="0 0 25 24" fill="none" xmlns="http://www.w3.org/2000/svg">
  <path d="M21.6409 17.5316C20.8965 16.7816 19.0937 15.687 18.219 15.2459C17.08 14.6722 16.9862 14.6253 16.0909 15.2905C15.4937 15.7344 15.0967 16.1309 14.3978 15.9819C13.6989 15.8328 12.1801 14.9923 10.8503 13.6667C9.52042 12.3411 8.6312 10.7783 8.48167 10.0817C8.33214 9.38515 8.73527 8.99281 9.17495 8.39421C9.79464 7.55046 9.74777 7.40984 9.21808 6.27078C8.80511 5.38484 7.6787 3.5989 6.92589 2.85828C6.12058 2.06281 6.12058 2.20343 5.60167 2.41906C5.17922 2.5968 4.77394 2.81286 4.39089 3.06453C3.64089 3.56281 3.22464 3.97671 2.93355 4.59874C2.64246 5.22078 2.51167 6.67906 4.01496 9.41C5.51824 12.1409 6.57292 13.5373 8.75589 15.7142C10.9389 17.8911 12.6175 19.0616 15.0714 20.4378C18.107 22.138 19.2714 21.8066 19.8953 21.5159C20.5192 21.2253 20.935 20.8128 21.4342 20.0628C21.6865 19.6804 21.903 19.2756 22.081 18.8534C22.2971 18.3364 22.4378 18.3364 21.6409 17.5316Z" stroke="#E7000B" stroke-width="2" stroke-miterlimit="10" />
</svg>