<svg width="24" height="24" viewBox="0 0 24 24" fill="none" xmlns="http://www.w3.org/2000/svg">
  <path d="M12 13.4996C15.3137 13.4996 18 10.8133 18 7.49963C18 4.18593 15.3137 1.49963 12 1.49963C8.68629 1.49963 6 4.18593 6 7.49963C6 10.8133 8.68629 13.4996 12 13.4996Z" stroke="#006045" stroke-width="1.5" stroke-linecap="round" stroke-linejoin="round" />
  <path d="M6.73457 10.6793L2.25098 18.7502L6.32254 18.7305C6.45299 18.7299 6.58136 18.7632 6.69497 18.8274C6.80858 18.8915 6.9035 18.9841 6.97035 19.0961L9.00098 22.5002L13.1414 13.3914" stroke="#006045" stroke-width="1.5" stroke-linecap="round" stroke-linejoin="round" />
  <path d="M17.1816 10.4998L21.75 18.7498L17.6784 18.7301C17.548 18.7295 17.4196 18.7628 17.306 18.827C17.1924 18.8911 17.0975 18.9837 17.0306 19.0958L15 22.4998L12 15.8998" stroke="#006045" stroke-width="1.5" stroke-linecap="round" stroke-linejoin="round" />
  <path d="M12.0004 10.5009C13.6575 10.5009 15.0009 9.15758 15.0009 7.50049C15.0009 5.8434 13.6575 4.50006 12.0004 4.50006C10.3433 4.50006 9 5.8434 9 7.50049C9 9.15758 10.3433 10.5009 12.0004 10.5009Z" stroke="#006045" stroke-width="1.5" stroke-linecap="round" stroke-linejoin="round" />
</svg>